<?xml version="1.0" encoding="UTF-8"?>
<!-- Generator: visioncortex VTracer 0.6.12 -->
<svg version="1.1" xmlns="http://www.w3.org/2000/svg" viewBox="0 0 695 646" width="695" height="646">
<path d="M0 0 C10.51 0.1 20.99 2.13 31.34 3.81 C33.13 4.09 34.91 4.38 36.7 4.66 C41.46 5.43 46.22 6.19 50.98 6.96 C55.95 7.76 60.91 8.55 65.87 9.35 C76.69 11.08 87.5 12.82 98.31 14.57 C101.66 15.11 105.02 15.65 108.37 16.19 C131.65 19.94 131.65 19.94 143.04 21.78 C153.26 23.44 163.49 25.09 173.72 26.65 C174.51 26.77 175.29 26.89 176.1 27.02 C179.52 27.54 182.93 28.05 186.35 28.56 C187.45 28.72 188.55 28.89 189.69 29.06 C190.61 29.2 191.53 29.33 192.48 29.47 C195.15 30.03 197.48 30.96 200 32 C198.5 43.27 196.6 54.46 194.67 65.66 C194.09 69 193.52 72.34 192.94 75.68 C191.91 81.71 190.87 87.74 189.83 93.76 C187.89 105.06 185.95 116.35 184.01 127.65 C183.9 128.27 183.9 128.27 183.36 131.44 C180.51 148.03 177.72 164.62 174.99 181.23 C174.69 183.06 174.39 184.89 174.09 186.73 C172.84 194.28 171.61 201.84 170.39 209.41 C169.9 212.43 169.41 215.45 168.91 218.47 C168.58 220.47 168.27 222.47 167.95 224.47 C166.24 234.85 163.75 245 159.12 254.5 C158.85 255.07 158.58 255.65 158.29 256.24 C157.21 258.5 156.1 260.75 155 263 C152.84 267.41 150.69 271.83 148.54 276.25 C147.57 278.23 146.6 280.21 145.62 282.19 C145.02 283.42 144.42 284.66 143.82 285.89 C143.27 286.99 142.73 288.1 142.17 289.24 C141 292 141 292 141 295 C143.29 296.22 143.29 296.22 146.55 297.43 C147.16 297.66 147.16 297.66 150.25 298.82 C151.6 299.32 152.96 299.82 154.31 300.31 C157.14 301.37 159.96 302.44 162.79 303.5 C163.53 303.78 164.27 304.06 165.03 304.35 C170.62 306.45 176.17 308.66 181.71 310.9 C182.51 311.22 183.3 311.55 184.12 311.88 C187.25 313.15 190.38 314.42 193.51 315.7 C195.68 316.59 197.86 317.48 200.04 318.36 C200.69 318.63 201.34 318.9 202 319.17 C205.3 320.5 207.37 321 211 321 C212.27 318.6 212.27 318.6 213.38 315.26 C213.8 314.05 214.22 312.85 214.65 311.6 C214.87 310.96 215.09 310.32 215.32 309.66 C219.45 297.75 223.3 289.28 234 282 C235.8 280.53 237.59 279.06 239.38 277.56 C240.27 276.84 241.16 276.12 242.09 275.38 C245.44 272.64 248.72 269.83 252 267 C256.1 263.46 260.23 259.97 264.44 256.56 C268.75 253.07 272.95 249.46 277.12 245.81 C283.2 240.51 289.38 235.36 295.63 230.26 C301.32 225.61 306.87 220.81 312.36 215.91 C316.79 212 316.79 212 319 212 C319 211.34 319 210.68 319 210 C320.73 208.44 320.73 208.44 323.19 206.56 C327.3 203.35 331.34 200.07 335.31 196.69 C335.86 196.22 336.4 195.76 336.97 195.28 C338.64 193.86 340.32 192.43 342 191 C344.21 189.12 346.42 187.25 348.62 185.38 C348.9 185.14 348.9 185.14 350.27 183.98 C353.61 181.16 356.98 178.38 360.38 175.62 C365.5 171.46 370.48 167.14 375.45 162.8 C379.94 158.9 384.5 155.12 389.12 151.38 C392.66 148.46 396.11 145.45 399.56 142.44 C404.43 138.2 409.34 134.06 414.43 130.09 C416.42 128.47 418.33 126.82 420.23 125.09 C432.04 114.44 443.28 107.51 459.72 107.73 C474.04 108.91 484.07 116.2 493.12 126.81 C495.11 129.19 497.06 131.59 499 134 C499.81 134.98 500.61 135.95 501.44 136.96 C503.64 139.63 505.82 142.31 508 145 C512.8 150.9 517.64 156.77 522.56 162.56 C525.97 166.58 529.36 170.61 532.69 174.69 C533.33 175.48 533.97 176.26 534.64 177.07 C536 179 536 179 536 181 C536.66 181 537.32 181 538 181 C539.45 182.59 539.45 182.59 541.25 184.94 C545.04 189.79 548.9 194.57 552.81 199.31 C553.42 200.05 554.02 200.78 554.64 201.53 C558.78 206.54 562.96 211.51 567.16 216.46 C570.76 220.7 574.3 224.99 577.8 229.3 C579.32 231.17 580.85 233.03 582.38 234.88 C586.45 239.81 590.38 244.74 594 250 C588.33 255.25 582.43 260.01 576.21 264.6 C572.89 267.07 569.63 269.62 566.38 272.19 C561.02 276.42 555.64 280.62 550.25 284.81 C549.5 285.4 548.74 285.98 547.97 286.59 C546.42 287.79 544.88 288.99 543.34 290.18 C540.99 292.01 538.65 293.83 536.31 295.65 C534.77 296.85 533.23 298.05 531.69 299.25 C531.31 299.54 531.31 299.54 529.41 301.03 C525.06 304.41 520.69 307.78 516.31 311.12 C511.72 314.65 507.19 318.24 502.69 321.88 C497.54 326.03 492.31 330.05 487 334 C481.14 338.36 475.4 342.84 469.72 347.43 C464.3 351.79 458.79 356.01 453.26 360.22 C448.26 364.02 443.3 367.88 438.37 371.77 C433.68 375.47 428.97 379.15 424.25 382.81 C423.5 383.4 422.74 383.99 421.96 384.59 C418.86 387 415.77 389.4 412.67 391.81 C410.36 393.6 408.06 395.4 405.75 397.19 C405 397.77 404.25 398.35 403.48 398.95 C398.87 402.54 394.27 406.14 389.69 409.75 C381.78 415.97 373.8 422.11 365.79 428.2 C358.74 433.57 351.75 438.98 344.93 444.63 C340.51 448.2 335.99 451.63 331.47 455.06 C327.52 458.07 323.58 461.09 319.69 464.17 C318.56 465.06 317.43 465.94 316.29 466.81 C313.1 469.28 310.06 471.84 307.09 474.57 C299.42 481.42 292.63 485.92 282.09 485.61 C269.02 484.25 256.58 478.23 244.59 473.18 C238.45 470.59 232.27 468.1 226.07 465.67 C225.15 465.31 224.23 464.95 223.28 464.58 C221.43 463.85 219.57 463.13 217.72 462.4 C203.7 456.91 189.73 451.33 175.82 445.57 C170.52 443.39 165.2 441.31 159.83 439.32 C148.44 435.09 137.17 430.55 125.88 426.06 C121.14 424.18 116.4 422.3 111.66 420.42 C111.07 420.19 111.07 420.19 108.11 419.01 C99.44 415.57 90.76 412.14 82.08 408.73 C74.72 405.83 67.36 402.92 60 400 C59.33 399.73 58.66 399.47 57.97 399.19 C53.58 397.45 49.19 395.7 44.81 393.94 C43.76 393.52 42.71 393.1 41.63 392.67 C8.25 379.15 -17.02 353.33 -31.05 320.34 C-40.66 296.54 -41.68 272.13 -37.95 247.01 C-37.72 245.49 -37.5 243.98 -37.28 242.46 C-36.66 238.22 -36.04 233.99 -35.41 229.75 C-34.99 226.93 -34.57 224.1 -34.15 221.27 C-32.08 207.27 -29.99 193.28 -27.9 179.3 C-27.37 175.77 -26.84 172.24 -26.31 168.7 C-21.47 136.34 -16.58 103.98 -11.61 71.63 C-11.19 68.88 -10.77 66.13 -10.35 63.39 C-10.25 62.73 -10.15 62.07 -10.04 61.4 C-8.6 52 -7.19 42.61 -5.81 33.21 C-5.72 32.64 -5.72 32.64 -5.3 29.75 C-4.53 24.54 -3.77 19.33 -3.02 14.12 C-2.76 12.37 -2.5 10.61 -2.24 8.85 C-2.13 8.05 -2.02 7.26 -1.9 6.44 C-1.11 1.11 -1.11 1.11 0 0 Z " fill="#3F8784" transform="translate(71,162)"/>
<path d="M0 0 C1.88 0.03 3.76 0.04 5.64 0.05 C42.52 1.22 82.77 20.31 108.09 47.04 C108.09 47.7 108.09 48.36 108.09 49.04 C109.08 49.37 110.07 49.7 111.09 50.04 C136.93 73.07 151.25 113.65 153.94 147.08 C154.25 153.07 154.22 159.04 154.09 165.04 C154.08 166.26 154.06 167.48 154.04 168.74 C153.17 192.96 145.48 215.86 134.09 237.04 C133.61 237.97 133.14 238.89 132.65 239.85 C131.4 242.1 131.4 242.1 129.09 245.04 C126.78 245.13 126.78 245.13 124.09 244.04 C122.11 241.86 120.43 239.78 118.72 237.41 C117.74 236.12 116.77 234.84 115.79 233.56 C115.32 232.94 114.86 232.33 114.38 231.7 C102.76 216.71 84.51 208.68 66.09 206.04 C45.3 203.92 26.3 210.19 10.09 223.04 C8.52 224.24 6.94 225.45 5.36 226.65 C3.14 228.35 0.94 230.06 -1.27 231.77 C-3.87 233.78 -6.49 235.78 -9.1 237.79 C-14.38 241.85 -19.65 245.94 -24.91 250.04 C-33.53 256.75 -42.17 263.42 -50.85 270.05 C-52.27 271.13 -53.68 272.21 -55.1 273.29 C-55.8 273.82 -56.5 274.36 -57.23 274.92 C-63.55 279.75 -69.84 284.64 -76.11 289.54 C-76.82 290.1 -77.54 290.66 -78.28 291.24 C-78.91 291.73 -79.54 292.22 -80.19 292.73 C-84.57 296.05 -84.57 296.05 -87.18 295.95 C-90.79 294.74 -93.58 292.72 -96.6 290.47 C-97.2 290.03 -97.81 289.58 -98.44 289.12 C-110.51 280.23 -110.51 280.23 -113.91 277.04 C-113.91 276.38 -113.91 275.72 -113.91 275.04 C-114.19 274.9 -114.19 274.9 -115.61 274.22 C-118.63 272.66 -120.4 270.57 -122.66 268.04 C-123.46 267.15 -124.26 266.26 -125.08 265.35 C-126.91 263.04 -126.91 263.04 -126.91 261.04 C-127.57 261.04 -128.23 261.04 -128.91 261.04 C-130.13 259.67 -130.13 259.67 -131.48 257.74 C-131.73 257.39 -131.73 257.39 -133 255.6 C-133.52 254.84 -134.05 254.07 -134.6 253.29 C-135.14 252.51 -135.68 251.72 -136.24 250.92 C-161.31 214.48 -169.88 171.41 -161.91 128.04 C-161.84 127.67 -161.84 127.67 -161.5 125.79 C-158.49 109.75 -152.45 93.94 -143.91 80.04 C-143.24 78.94 -142.58 77.85 -141.89 76.72 C-138.02 70.5 -133.9 64.5 -129.47 58.66 C-129.05 58.1 -128.62 57.53 -128.18 56.95 C-127.14 55.6 -126.03 54.31 -124.91 53.04 C-124.25 53.04 -123.59 53.04 -122.91 53.04 C-122.23 51.71 -121.56 50.38 -120.91 49.04 C-96.34 20.28 -56.96 4.42 -20.22 0.29 C-13.49 -0.16 -6.74 -0.13 0 0 Z " fill="#FFDC4E" transform="translate(471.908203125,29.962890625)"/>
</svg>
