<?xml version="1.0" encoding="UTF-8"?>
<!-- Generator: visioncortex VTracer 0.6.12 -->
<svg version="1.1" xmlns="http://www.w3.org/2000/svg" viewBox="0 0 1571 1669" width="1571" height="1669">
<path d="M0 0 C518.43 0 1036.86 0 1571 0 C1571 550.77 1571 1101.54 1571 1669 C1052.57 1669 534.14 1669 0 1669 C0 1118.23 0 567.46 0 0 Z M811 70 C810.05 70.67 809.11 71.34 808.13 72.04 C803.37 75.41 798.97 78.7 795 83 C792.86 85.08 790.72 87.16 788.57 89.23 C787 91 787 91 787 93 C786.01 93.33 785.02 93.66 784 94 C782.65 95.42 782.65 95.42 781.29 97.25 C781.04 97.58 781.04 97.58 779.77 99.27 C779.25 99.98 778.73 100.7 778.19 101.44 C777.65 102.17 777.11 102.9 776.55 103.66 C751.39 138.11 740.15 180.95 746.59 223.25 C750.79 248.41 760.13 271.34 774.77 292.24 C775.64 293.49 776.5 294.74 777.35 296 C778.51 297.7 779.75 299.35 781 301 C781.66 301 782.32 301 783 301 C783.67 302.33 784.34 303.66 785 305 C786.45 306.79 787.96 308.54 789.5 310.25 C790.29 311.14 791.09 312.03 791.91 312.95 C794 315 794 315 796 315 C796 315.66 796 316.32 796 317 C798.05 318.8 800.09 320.47 802.25 322.12 C802.88 322.61 803.51 323.1 804.16 323.6 C806.1 325.08 808.04 326.54 810 328 C810.58 328.43 811.16 328.87 811.76 329.31 C820.86 336.01 820.86 336.01 824.51 335.97 C827.71 334.72 829.74 332.97 832.31 330.69 C837.05 326.58 841.91 322.73 846.94 319 C848.31 317.98 849.69 316.95 851.07 315.93 C851.73 315.43 852.4 314.94 853.09 314.43 C863.45 306.69 873.6 298.66 883.8 290.71 C896.55 280.79 909.29 270.87 922.28 261.27 C923.68 260.24 925.07 259.18 926.45 258.12 C940.93 247.57 960.63 244.02 978.12 246.27 C999.22 249.7 1015.45 260.71 1029 277 C1029.96 278.36 1030.9 279.73 1031.81 281.12 C1034 284 1034 284 1036.43 284.95 C1037.28 284.97 1038.13 284.98 1039 285 C1057.41 267.25 1063.43 229.21 1064 205 C1064.04 203.77 1064.08 202.54 1064.12 201.27 C1064.82 162.45 1050.52 125.79 1026 96 C1025.44 95.31 1024.88 94.62 1024.31 93.9 C1022.92 92.22 1021.47 90.61 1020 89 C1019.34 89 1018.68 89 1018 89 C1017.33 87.67 1016.66 86.33 1016 85 C1014.34 83.31 1014.34 83.31 1012.39 81.66 C1011.68 81.05 1010.96 80.45 1010.22 79.82 C1000.36 71.73 990.38 63.86 979 58 C977.88 57.42 976.75 56.84 975.6 56.24 C956.08 46.48 933.81 40.52 912 40 C911.34 39.98 910.67 39.96 909.99 39.94 C874.84 38.93 839.31 48.78 811 70 Z M509 172 C506.83 178.63 505.95 185.38 504.97 192.27 C504.78 193.61 504.58 194.94 504.39 196.28 C503.97 199.14 503.56 202 503.15 204.87 C502.04 212.6 500.91 220.33 499.78 228.05 C499.67 228.85 499.55 229.64 499.43 230.46 C497.14 246.16 494.74 261.84 492.31 277.51 C488.37 302.87 484.58 328.25 480.87 353.64 C480.36 357.13 479.85 360.63 479.34 364.12 C479.24 364.8 479.14 365.48 479.04 366.17 C476.78 381.59 474.44 397 472.07 412.4 C472 412.84 472 412.84 471.66 415.05 C471.42 416.64 471.17 418.23 470.93 419.82 C465.64 454.21 471.4 489.65 491.88 518.5 C497.04 525.47 502.9 531.84 509 538 C509.79 538.8 510.58 539.6 511.39 540.43 C516.3 545.12 521.65 548.96 527.31 552.69 C527.98 553.13 528.64 553.57 529.32 554.02 C540.49 561.15 553.04 565.71 565.33 570.52 C568.08 571.6 570.84 572.68 573.59 573.76 C577.59 575.34 581.59 576.91 585.6 578.48 C596.91 582.93 608.2 587.4 619.5 591.88 C620.64 592.32 621.77 592.77 622.94 593.24 C636.56 598.63 650.17 604.03 663.69 609.63 C668.91 611.79 674.17 613.83 679.46 615.8 C688.97 619.33 698.39 623.07 707.81 626.81 C709.68 627.55 711.55 628.29 713.42 629.03 C717.31 630.58 721.2 632.12 725.09 633.66 C730.95 635.98 736.8 638.3 742.66 640.61 C743.61 640.98 744.56 641.36 745.54 641.75 C749.22 643.2 752.89 644.65 756.57 646.1 C758.27 646.77 759.97 647.44 761.66 648.11 C763.31 648.76 764.95 649.41 766.59 650.06 C770.93 651.77 775.25 653.51 779.56 655.31 C780.47 655.68 781.38 656.06 782.32 656.45 C784.07 657.17 785.82 657.9 787.56 658.65 C788.34 658.97 789.13 659.29 789.94 659.63 C790.63 659.92 791.32 660.21 792.03 660.51 C794.43 661.11 795.69 660.86 798 660 C800.2 658.43 802.28 656.83 804.38 655.12 C805.64 654.11 806.9 653.1 808.16 652.09 C808.48 651.83 808.48 651.83 810.11 650.52 C812.97 648.22 815.86 645.95 818.75 643.69 C819.32 643.24 819.88 642.8 820.46 642.34 C830.52 634.44 840.61 626.59 850.75 618.81 C855.19 615.4 859.6 611.96 864 608.5 C868.92 604.63 873.86 600.79 878.83 596.98 C889.5 588.79 900.1 580.51 910.67 572.18 C916.2 567.84 921.75 563.52 927.31 559.21 C932.07 555.51 936.82 551.79 941.56 548.06 C948.66 542.48 955.78 536.94 962.94 531.44 C970.54 525.6 978.09 519.71 985.65 513.83 C987.99 512.01 990.32 510.19 992.66 508.38 C999.64 502.96 1006.62 497.53 1013.56 492.06 C1014.14 491.61 1014.72 491.15 1015.31 490.69 C1015.86 490.25 1016.42 489.82 1016.98 489.37 C1022.95 484.68 1028.94 480.04 1034.97 475.44 C1041.56 470.41 1048.12 465.36 1054.63 460.23 C1059.32 456.53 1064.03 452.85 1068.75 449.19 C1069.12 448.9 1069.12 448.9 1071.02 447.42 C1074.98 444.34 1078.94 441.27 1082.9 438.21 C1083.7 437.59 1084.51 436.97 1085.33 436.33 C1086.85 435.15 1088.38 433.97 1089.9 432.79 C1094.38 429.32 1098.72 425.72 1103 422 C1098.98 416.46 1094.68 411.2 1090.24 405.99 C1087.29 402.53 1084.37 399.03 1081.5 395.5 C1078.19 391.44 1074.83 387.43 1071.44 383.44 C1065.84 376.84 1060.4 370.13 1055.13 363.27 C1054.64 362.63 1054.14 361.98 1053.62 361.32 C1052.64 360.04 1051.66 358.76 1050.68 357.47 C1049.5 355.94 1048.25 354.47 1047 353 C1046.34 353 1045.68 353 1045 353 C1044.31 351.68 1043.65 350.34 1043 349 C1041.73 347.32 1040.41 345.68 1039.06 344.06 C1038.26 343.1 1037.46 342.13 1036.63 341.13 C1033.44 337.33 1030.23 333.54 1027.01 329.76 C1023.7 325.85 1020.48 321.88 1017.3 317.87 C1014.21 314.01 1011.08 310.19 1007.94 306.38 C1007.36 305.67 1006.78 304.97 1006.19 304.24 C1003.27 300.69 1000.32 297.17 997.32 293.68 C997.05 293.37 997.05 293.37 995.69 291.77 C988.62 284.36 978.86 280.67 968.78 279.69 C951.24 279.33 939.36 287.98 926.85 299.34 C924.03 301.87 921.15 304.31 918.25 306.75 C917.71 307.2 917.18 307.65 916.63 308.12 C913.32 310.91 909.98 313.65 906.62 316.38 C901.5 320.54 896.53 324.86 891.55 329.2 C887.04 333.12 882.45 336.93 877.81 340.69 C874.5 343.41 871.25 346.2 868 349 C863.9 352.54 859.77 356.03 855.56 359.44 C850.39 363.63 845.37 367.99 840.39 372.4 C837.37 375.04 834.35 377.49 831.05 379.77 C830.04 380.5 829.04 381.24 828 382 C828 382.66 828 383.32 828 384 C827.47 384.26 826.95 384.52 826.4 384.79 C823.03 386.49 820.38 388.96 817.56 391.44 C816.31 392.53 815.05 393.61 813.8 394.7 C813.16 395.25 812.53 395.81 811.88 396.37 C809.04 398.83 806.18 401.26 803.31 403.69 C802.78 404.14 802.24 404.59 801.69 405.06 C798.26 407.96 794.8 410.8 791.31 413.62 C787.76 416.51 784.32 419.48 780.94 422.56 C777 426.14 772.94 429.48 768.76 432.77 C764.85 435.93 761.06 439.22 757.25 442.5 C752.87 446.28 748.41 449.96 743.89 453.57 C742.94 454.37 741.98 455.18 741 456 C740.23 456.58 739.46 457.16 738.66 457.76 C731.05 463.88 728.04 470.5 724.88 479.56 C724.39 480.87 723.91 482.18 723.42 483.49 C722.25 486.65 721.12 489.82 720 493 C714.02 492.36 708.77 490.14 703.22 487.96 C702.18 487.55 701.14 487.14 700.06 486.73 C696.73 485.43 693.39 484.12 690.06 482.81 C687.86 481.95 685.65 481.09 683.44 480.23 C672.27 475.88 661.12 471.48 650 467 C650.62 463.04 651.86 459.89 653.62 456.31 C654.16 455.21 654.7 454.11 655.25 452.98 C655.83 451.81 656.41 450.64 657 449.44 C658.19 447 659.37 444.55 660.55 442.11 C661.15 440.89 661.74 439.67 662.33 438.45 C662.88 437.31 663.43 436.17 664 435 C664.24 434.51 664.24 434.51 665.45 432.02 C666.69 429.44 667.91 426.85 669.12 424.25 C669.48 423.53 669.83 422.8 670.2 422.06 C676.29 408.84 677.31 392.66 679.7 378.41 C680.06 376.29 680.42 374.17 680.78 372.05 C681.74 366.37 682.7 360.7 683.66 355.02 C685.47 344.29 687.28 333.56 689.1 322.84 C689.3 321.63 689.51 320.43 689.71 319.19 C692.44 303.09 695.2 287 698.01 270.92 C698.55 267.83 699.09 264.74 699.63 261.65 C701.14 252.98 702.65 244.31 704.18 235.65 C704.8 232.15 705.41 228.64 706.02 225.14 C706.3 223.53 706.59 221.92 706.88 220.31 C707.27 218.13 707.64 215.94 708.02 213.76 C708.13 213.15 708.13 213.15 708.67 210.07 C709.17 205.4 709.17 205.4 708 203 C706.33 202.25 706.33 202.25 704.1 201.9 C703.27 201.75 702.43 201.61 701.56 201.46 C701.1 201.39 701.1 201.39 698.74 201.04 C697.76 200.88 696.78 200.72 695.78 200.55 C692.52 200.02 689.26 199.51 686 199 C683.77 198.64 681.54 198.27 679.31 197.91 C671.92 196.7 664.52 195.54 657.12 194.38 C655.07 194.05 653.02 193.73 650.96 193.4 C628.57 189.86 606.17 186.36 583.78 182.87 C570.98 180.88 558.19 178.88 545.41 176.82 C544.37 176.65 543.33 176.48 542.25 176.31 C537.47 175.54 532.69 174.76 527.91 173.98 C526.26 173.71 524.61 173.45 522.96 173.18 C522.23 173.06 521.5 172.94 520.75 172.81 C516.8 172.18 513.01 171.88 509 172 Z M73.53 809.43 C72.91 810.09 72.29 810.76 71.65 811.44 C70.96 812.17 70.27 812.9 69.57 813.65 C69.2 814.04 69.2 814.04 67.38 816 C66.68 816.74 65.98 817.49 65.25 818.25 C61.27 822.51 57.37 826.83 53.55 831.24 C50.91 834.23 48.1 837.07 45.31 839.92 C44 842 44 842 44.43 843.92 C46.58 846.77 49.1 849.12 51.75 851.5 C52.32 852.02 52.89 852.54 53.48 853.07 C58.29 857.43 63.22 861.64 68.17 865.83 C71.8 868.92 75.25 872.08 78.47 875.6 C80.46 877.42 82.66 878.67 85 880 C90.25 874.84 95.42 869.68 100.2 864.08 C103.11 860.71 106.15 857.47 109.18 854.2 C111 852 111 852 112 849 C116.93 851.74 120.7 855.29 124.79 859.14 C127 861 127 861 129 861 C129 861.66 129 862.32 129 863 C130.4 864.41 130.4 864.41 132.38 866.06 C135.69 868.87 138.92 871.75 142.12 874.69 C145.6 877.83 149 880.58 153 883 C154.15 881.85 155.3 880.7 156.45 879.55 C157.51 878.49 158.57 877.44 159.64 876.39 C168.36 867.81 168.36 867.81 172 863 C172 862.34 172 861.68 172 861 C172.66 861 173.32 861 174 861 C175.62 859.39 175.62 859.39 177.44 857.25 C177.74 856.9 177.74 856.9 179.25 855.14 C179.82 854.43 180.4 853.73 181 853 C181.61 852.33 182.22 851.67 182.85 850.98 C183.04 850.66 183.04 850.66 184 849 C182.84 845.93 181.2 843.99 178.8 841.79 C178.18 841.21 177.55 840.63 176.9 840.03 C176.23 839.42 175.56 838.81 174.88 838.19 C174.19 837.56 173.51 836.93 172.81 836.28 C168.89 832.69 164.94 829.12 160.9 825.65 C157.65 822.83 154.48 819.92 151.3 817.02 C150.92 816.68 150.92 816.68 149 815 C148.32 814.4 147.65 813.79 146.95 813.17 C145 812 145 812 143.05 812.26 C139.61 813.5 137.55 816.38 135.19 819.06 C134.66 819.65 134.12 820.24 133.58 820.85 C132.04 822.56 130.52 824.28 129 826 C128.3 826.79 127.59 827.58 126.87 828.39 C124.65 830.91 122.45 833.42 120.39 836.07 C119.87 836.73 119.35 837.39 118.81 838.06 C118.37 838.65 117.92 839.24 117.46 839.85 C116 841 116 841 114.18 841 C111.02 839.55 108.73 837.26 106.25 834.88 C105.18 833.86 104.1 832.85 103.02 831.84 C102.5 831.35 101.98 830.86 101.45 830.36 C99.63 828.65 97.76 827.01 95.88 825.38 C92.84 822.75 89.85 820.07 86.88 817.38 C75.71 807.31 75.71 807.31 73.53 809.43 Z M1335.84 809.66 C1335.03 809.8 1334.22 809.94 1333.38 810.09 C1332.5 810.25 1331.62 810.41 1330.71 810.57 C1329.79 810.74 1328.86 810.91 1327.9 811.08 C1324.91 811.61 1321.92 812.15 1318.94 812.69 C1317.02 813.03 1315.1 813.37 1313.17 813.72 C1303.94 815.37 1294.72 817.05 1285.5 818.77 C1269.53 821.75 1253.54 824.57 1237.54 827.36 C1229.38 828.79 1221.21 830.22 1213.05 831.65 C1212.23 831.8 1211.42 831.94 1210.58 832.09 C1187.44 836.15 1164.32 840.28 1141.2 844.43 C1138.02 845 1134.84 845.57 1131.65 846.14 C1108.53 850.29 1085.4 854.46 1062.29 858.66 C1059.93 859.09 1057.58 859.51 1055.23 859.94 C1054.11 860.14 1053 860.34 1051.86 860.55 C1050.77 860.75 1049.68 860.95 1048.55 861.15 C1046.43 861.54 1044.3 861.93 1042.17 862.33 C1037.07 863.27 1031.97 864.17 1026.84 864.97 C1025.87 865.13 1024.89 865.29 1023.89 865.46 C1022.07 865.75 1020.25 866.03 1018.42 866.29 C1016.13 866.68 1014.13 867.07 1012 868 C1009.45 871.74 1008.39 875.62 1007.31 880 C1007.06 880.99 1006.81 881.98 1006.55 883 C1005.99 886.07 1005.96 888.89 1006 892 C1016.61 890.58 1027.13 888.78 1037.66 886.86 C1039.37 886.55 1041.07 886.25 1042.78 885.94 C1046.37 885.29 1049.95 884.64 1053.54 883.99 C1061.56 882.53 1069.59 881.09 1077.62 879.65 C1082.15 878.84 1086.69 878.02 1091.23 877.2 C1093.08 876.87 1094.93 876.54 1096.78 876.21 C1099.64 875.69 1102.5 875.18 1105.35 874.66 C1129.73 870.28 1154.11 865.9 1178.5 861.56 C1190.78 859.38 1203.06 857.18 1215.33 854.92 C1216.26 854.75 1217.2 854.58 1218.16 854.4 C1222.92 853.52 1227.68 852.64 1232.43 851.76 C1245.51 849.33 1258.6 847.02 1271.71 844.74 C1277.5 843.74 1283.29 842.72 1289.08 841.71 C1294.87 840.7 1300.66 839.7 1306.46 838.71 C1310.1 838.09 1313.73 837.45 1317.37 836.81 C1319.08 836.51 1320.8 836.21 1322.51 835.93 C1324.88 835.53 1327.25 835.11 1329.61 834.69 C1329.96 834.63 1329.96 834.63 1331.72 834.35 C1335.99 833.56 1338.35 832.47 1341 829 C1342.05 825.76 1342.05 825.76 1342.75 822.12 C1342.99 820.93 1343.23 819.74 1343.48 818.51 C1343.96 815.27 1344.1 812.26 1344 809 C1341.03 809 1338.71 809.14 1335.84 809.66 Z M492.03 816.68 C491.23 816.83 490.42 816.99 489.59 817.14 C488.71 817.31 487.84 817.48 486.93 817.65 C486 817.83 485.07 818 484.12 818.18 C482.1 818.57 480.08 818.95 478.06 819.33 C472.62 820.37 467.17 821.39 461.73 822.42 C460.6 822.63 459.47 822.84 458.3 823.06 C446.29 825.33 434.27 827.54 422.25 829.75 C421.22 829.94 420.18 830.13 419.12 830.33 C407.25 832.5 395.38 834.65 383.5 836.75 C374.23 838.39 364.99 840.16 355.76 842.05 C349.65 843.29 343.53 844.46 337.39 845.58 C336.66 845.71 335.93 845.85 335.17 845.98 C329.26 847.06 329.26 847.06 326.4 847.57 C324.37 847.93 322.34 848.3 320.32 848.67 C319.15 848.88 317.97 849.09 316.77 849.3 C314 850 314 850 312 852 C311.21 854.42 310.51 856.79 309.88 859.25 C309.69 859.91 309.51 860.56 309.32 861.24 C308.26 865.25 307.81 868.86 308 873 C315.23 873.25 321.77 872.32 328.84 870.91 C329.98 870.69 331.13 870.47 332.3 870.24 C334.76 869.77 337.21 869.29 339.66 868.81 C343.56 868.05 347.46 867.3 351.37 866.55 C351.69 866.48 351.69 866.48 353.36 866.16 C354.69 865.91 356.02 865.65 357.35 865.39 C359.36 865.01 361.37 864.62 363.38 864.23 C374.53 862.08 385.69 860.01 396.86 857.97 C414.24 854.81 431.6 851.6 448.95 848.34 C451.23 847.91 453.52 847.49 455.8 847.06 C460.99 846.09 466.17 845.11 471.35 844.09 C475.02 843.36 478.7 842.72 482.4 842.13 C493.83 840.2 493.83 840.2 496.87 837.08 C497.96 834.68 498.39 832.68 498.69 830.06 C498.85 829.26 499.02 828.47 499.19 827.64 C499.97 823.54 500.22 820.07 499 816 C496.48 816 494.48 816.22 492.03 816.68 Z M206.29 860.63 C206.01 861.04 206.01 861.04 204.62 863.12 C203.95 864.11 203.28 865.09 202.59 866.1 C202.2 866.69 201.81 867.28 201.41 867.89 C199.7 870.45 197.96 872.99 196.22 875.52 C182.92 894.92 182.92 894.92 183.39 900.95 C183.58 904.84 183.59 908.39 182 912 C177.77 915.78 171.76 916.94 166.4 918.35 C162.98 919.28 159.75 920.49 156.44 921.75 C155.81 921.98 155.18 922.22 154.53 922.46 C138.28 928.57 122.35 935.88 107 944 C106.65 944.18 106.65 944.18 104.86 945.12 C83.5 956.34 61.69 970.11 50 992 C49.62 992.65 49.24 993.29 48.84 993.96 C38.82 1011.96 38.07 1037.07 43.3 1056.63 C48.18 1073.3 57.34 1086.77 72.65 1095.27 C92.3 1105.73 115.67 1106.96 137 1101 C145.77 1098.01 153.14 1094.24 160 1088 C160.37 1087.68 160.37 1087.68 162.23 1086.08 C171.16 1077.89 177.01 1067.34 181 1056 C181.97 1058.92 182.31 1061.36 182.61 1064.42 C185.33 1090.86 190.28 1117.12 212 1135 C227.56 1145.62 244.61 1150.33 263.38 1150.27 C263.92 1150.27 263.92 1150.27 266.66 1150.28 C270.24 1150.29 273.83 1150.29 277.41 1150.29 C280 1150.3 282.58 1150.3 285.17 1150.31 C291.44 1150.33 297.72 1150.33 304 1150.33 C309.11 1150.34 314.23 1150.34 319.34 1150.35 C333.9 1150.36 348.46 1150.37 363.01 1150.37 C363.41 1150.37 363.41 1150.37 365.39 1150.37 C366.17 1150.37 366.96 1150.37 367.76 1150.37 C380.43 1150.37 393.09 1150.39 405.75 1150.42 C418.81 1150.45 431.87 1150.46 444.93 1150.46 C452.24 1150.46 459.54 1150.46 466.85 1150.48 C473.75 1150.5 480.64 1150.5 487.53 1150.49 C490.04 1150.49 492.54 1150.49 495.05 1150.5 C542.18 1150.72 583.82 1138.38 625.76 1117.6 C631.77 1114.63 637.82 1111.77 643.86 1108.89 C648.19 1106.83 652.51 1104.75 656.81 1102.63 C690.87 1085.93 726.3 1077.33 764.08 1075.23 C765.04 1075.16 766.01 1075.08 767 1075 C767.6 1074.99 767.6 1074.99 770.62 1074.93 C774 1074 774 1074 776.14 1070.87 C776.75 1069.48 777.34 1068.07 777.9 1066.66 C778.23 1065.91 778.55 1065.15 778.89 1064.37 C779.93 1061.95 780.94 1059.51 781.94 1057.06 C782.61 1055.48 783.28 1053.91 783.95 1052.33 C784.96 1049.96 785.97 1047.59 786.95 1045.21 C788.66 1041.11 790.42 1037.05 792.32 1033.04 C792.51 1032.64 792.51 1032.64 793.46 1030.6 C794.18 1029.08 794.91 1027.56 795.65 1026.05 C797.88 1021.27 798.27 1018.28 797 1013 C796.83 1012.16 796.66 1011.31 796.49 1010.44 C795.62 1007.83 794.8 1006.09 793 1004 C788.77 1002.26 784.46 1001.87 779.94 1001.38 C777.29 1001 774.64 1000.62 771.99 1000.23 C771.32 1000.13 770.65 1000.03 769.95 999.93 C758.75 998.29 747.88 995.07 737 992 C735.83 991.68 734.66 991.35 733.45 991.02 C707.27 983.71 682.17 973.94 657.15 963.4 C628.4 951.31 590.14 936.66 559 948 C550.18 951.68 540.74 956.07 534 963 C534 963.66 534 964.32 534 965 C533.34 965 532.68 965 532 965 C530.16 967.09 528.44 969.17 526.75 971.38 C526.25 972.02 525.76 972.66 525.24 973.33 C517.48 983.51 512.55 994.1 508 1006 C507.54 1007.17 507.09 1008.34 506.62 1009.55 C503.86 1017.2 502.02 1024.92 500.38 1032.88 C500.28 1033.34 500.28 1033.34 499.79 1035.68 C498.28 1043.39 497.34 1051.15 496.42 1058.96 C496.36 1059.54 496.36 1059.54 496.01 1062.47 C495.67 1065.32 495.33 1068.16 495 1071 C464.94 1071.07 434.87 1071.12 404.81 1071.15 C401.25 1071.16 397.7 1071.16 394.14 1071.16 C393.79 1071.17 393.79 1071.17 391.99 1071.17 C380.56 1071.18 369.12 1071.2 357.69 1071.23 C345.94 1071.26 334.19 1071.28 322.44 1071.28 C315.85 1071.29 309.26 1071.3 302.66 1071.32 C296.45 1071.34 290.23 1071.34 284.02 1071.34 C281.75 1071.34 279.48 1071.35 277.2 1071.36 C259.73 1071.44 240.41 1071.46 226 1060 C218.17 1052.13 214.76 1043.47 214.73 1032.33 C214.72 1031.59 214.72 1030.85 214.71 1030.09 C214.7 1027.62 214.7 1025.16 214.7 1022.7 C214.69 1020.92 214.68 1019.15 214.67 1017.38 C214.65 1013.57 214.64 1009.76 214.63 1005.96 C214.62 999.94 214.6 993.92 214.57 987.91 C214.53 978.4 214.5 968.89 214.47 959.38 C214.42 942.33 214.35 925.28 214.28 908.24 C214.26 902.25 214.24 896.26 214.22 890.28 C214.21 886.56 214.2 882.85 214.18 879.14 C214.18 877.41 214.17 875.68 214.17 873.95 C214.17 871.6 214.16 869.26 214.14 866.91 C214.14 865.59 214.14 864.27 214.13 862.91 C214 860 214 860 213 859 C209.94 858.58 208.57 858.45 206.29 860.63 Z M874.36 762.55 C873.83 763.27 873.3 764 872.75 764.75 C872.14 765.59 871.52 766.42 870.89 767.29 C868.38 770.9 865.92 774.54 863.51 778.22 C859.57 784.2 855.5 790.09 851.46 795.99 C850.22 797.8 849 799.61 847.77 801.42 C846.61 803.11 845.42 804.78 844.2 806.43 C843.93 806.81 843.93 806.81 842.54 808.74 C842.05 809.39 841.56 810.05 841.05 810.73 C838.63 815.95 840.19 821.59 841.4 826.98 C843.04 834.7 843.93 842.39 844.62 850.25 C844.75 851.48 844.87 852.71 844.99 853.98 C846.92 874.98 847.14 896.11 847.26 917.18 C847.28 920.84 847.31 924.5 847.34 928.15 C847.4 935.96 847.45 943.76 847.5 951.56 C847.7 980.99 847.9 1010.42 848.47 1039.84 C848.49 1040.87 848.51 1041.9 848.53 1042.96 C849.11 1074.57 849.11 1074.57 851.69 1086.94 C851.86 1087.77 852.03 1088.61 852.21 1089.47 C856.37 1108.64 864.55 1126.87 881.14 1138.25 C885.59 1140.97 890.15 1143.1 895 1145 C895.75 1145.3 896.5 1145.59 897.27 1145.9 C908.28 1149.9 919.65 1150.36 931.25 1150.31 C931.59 1150.31 931.59 1150.31 933.32 1150.31 C959.6 1150.17 980.87 1143.42 1000 1125 C1000.53 1124.4 1001.05 1123.79 1001.59 1123.17 C1002.06 1122.79 1002.52 1122.4 1003 1122 C1006.34 1123.11 1006.97 1123.9 1009.12 1126.56 C1019.3 1138.46 1034.02 1148.85 1050.14 1150.18 C1070.07 1150.7 1087.73 1148.13 1102.88 1133.81 C1107.99 1128.4 1115 1120.82 1115 1113 C1118.2 1116 1120.82 1119.09 1123.44 1122.62 C1135.23 1137.46 1153.27 1147.46 1172 1150 C1184.73 1151.19 1195.88 1150.53 1206.62 1143 C1214.29 1136.6 1219.99 1128.08 1224 1119 C1224.56 1119.7 1225.11 1120.4 1225.69 1121.12 C1226.45 1122.07 1227.21 1123.02 1228 1124 C1228.74 1124.94 1229.47 1125.89 1230.23 1126.86 C1232.99 1130.17 1236.11 1132.61 1239.62 1135.06 C1240.24 1135.49 1240.85 1135.93 1241.49 1136.37 C1257.48 1147.36 1275.42 1150.36 1294.5 1150.31 C1295.11 1150.32 1295.11 1150.32 1298.22 1150.36 C1317.71 1150.37 1332.89 1143.68 1347.06 1130.5 C1356.27 1120.96 1362.33 1109.05 1367.62 1097.01 C1369 1094 1369 1094 1371 1091 C1371.38 1091.86 1371.76 1092.72 1372.14 1093.61 C1383.48 1117.95 1405.15 1134.74 1430 1144 C1434.29 1145.52 1438.59 1146.85 1443 1148 C1443.82 1148.23 1444.63 1148.45 1445.48 1148.68 C1460.16 1152.06 1478.09 1152.2 1491.07 1144.08 C1514.16 1127.75 1523.74 1101.8 1529 1075 C1529.09 1074.52 1529.09 1074.52 1529.57 1072.11 C1531.25 1062.58 1531.4 1053.15 1531.38 1043.5 C1531.38 1043.08 1531.38 1043.08 1531.38 1040.96 C1531.35 1027.94 1530.54 1015.6 1527 1003 C1526.71 1001.89 1526.42 1000.79 1526.12 999.64 C1521.16 982.87 1511.93 966.64 1497 957 C1483.94 950.45 1470.02 948.64 1455.94 952.94 C1442.29 957.49 1431.52 965.55 1421.41 975.6 C1420.15 976.85 1418.87 978.06 1417.58 979.27 C1410.96 985.58 1405.5 992.72 1400 1000 C1399.55 1000.59 1399.11 1001.17 1398.65 1001.77 C1392.88 1009.37 1387.53 1017.17 1382.38 1025.19 C1368.47 1046.8 1355 1062.62 1329 1068.45 C1303.95 1073.77 1265.87 1075.83 1243 1063 C1242.26 1062.71 1241.51 1062.42 1240.75 1062.12 C1236.81 1059.59 1235.81 1052.68 1234.64 1048.32 C1233.37 1041.72 1233.42 1035.01 1233.31 1028.31 C1233.28 1026.82 1233.24 1025.33 1233.21 1023.84 C1233.13 1020.23 1233.06 1016.61 1233 1013 C1230.69 1013 1228.38 1013 1226 1013 C1225.98 1013.8 1225.96 1014.6 1225.94 1015.42 C1224.58 1067.82 1224.58 1067.82 1217.26 1077.24 C1212.53 1080.92 1205.69 1079.64 1200 1079 C1179.28 1075.85 1147.57 1070.94 1131 1057 C1129.39 1052.04 1130.27 1047.19 1130.94 1042.12 C1131.98 1033.36 1132.22 1024.82 1132 1016 C1130.33 1015.96 1128.67 1015.96 1127 1016 C1124.95 1018.05 1125.13 1021.99 1124.69 1024.81 C1122.31 1038.88 1118.15 1055.16 1106 1064 C1092.87 1071.82 1081.28 1073.39 1066.12 1073.31 C1065.4 1073.31 1064.67 1073.31 1063.92 1073.31 C1055.06 1073.28 1046.28 1073.05 1037.5 1071.75 C1036.75 1071.64 1036 1071.53 1035.23 1071.42 C1029.91 1070.49 1024.6 1068.88 1020 1066 C1018.78 1062.34 1019.33 1060.64 1020.18 1056.9 C1020.31 1056.29 1020.31 1056.29 1021 1053.22 C1021.29 1051.95 1021.58 1050.68 1021.88 1049.38 C1026.2 1030.27 1026.2 1030.27 1026.06 1020.44 C1026.05 1019.59 1026.04 1018.74 1026.04 1017.87 C1026.03 1017.56 1026.03 1017.56 1026 1016 C1024.02 1016 1022.04 1016 1020 1016 C1019.78 1017.16 1019.56 1018.32 1019.34 1019.52 C1016.02 1036.2 1010.41 1049.73 995.94 1059.81 C978.39 1070.11 956.84 1071.23 937 1071.38 C935.82 1071.39 934.64 1071.4 933.43 1071.42 C919 1071.34 903.51 1068.75 892.48 1058.71 C878.65 1042.59 880.7 1019.96 880.68 1000.08 C880.67 997.47 880.66 994.86 880.65 992.25 C880.63 986.64 880.61 981.04 880.6 975.44 C880.59 967.34 880.56 959.25 880.54 951.15 C880.49 938.01 880.45 924.87 880.42 911.72 C880.39 898.97 880.36 886.21 880.32 873.45 C880.31 872.66 880.31 871.88 880.31 871.06 C880.3 867.11 880.29 863.16 880.27 859.2 C880.17 826.47 880.08 793.73 880 761 C876 761 876 761 874.36 762.55 Z M1364 1207 C1359.76 1211.12 1355.74 1215.36 1351.88 1219.83 C1349.78 1222.25 1347.65 1224.63 1345.5 1227 C1342.14 1230.72 1338.79 1234.45 1335.52 1238.25 C1334.19 1239.78 1332.82 1241.27 1331.44 1242.75 C1330.96 1243.49 1330.49 1244.23 1330 1245 C1331.27 1249.29 1334.9 1251.93 1338.12 1254.81 C1338.71 1255.34 1339.29 1255.87 1339.89 1256.41 C1341.06 1257.46 1342.22 1258.51 1343.39 1259.56 C1344.78 1260.8 1346.16 1262.05 1347.53 1263.3 C1352.61 1267.87 1352.61 1267.87 1356 1269 C1356 1269.66 1356 1270.32 1356 1271 C1357.66 1272.48 1359.38 1273.88 1361.12 1275.25 C1364.46 1277.89 1367.58 1280.48 1370.44 1283.62 C1373 1286 1373 1286 1374.89 1285.93 C1377.79 1284.65 1379.25 1282.83 1381.31 1280.44 C1382.1 1279.53 1382.89 1278.62 1383.71 1277.68 C1384.46 1276.8 1385.22 1275.91 1386 1275 C1387.17 1273.67 1388.33 1272.33 1389.5 1271 C1390.06 1270.36 1390.61 1269.72 1391.19 1269.06 C1393.27 1266.69 1395.38 1264.34 1397.5 1262 C1398.25 1261.16 1399 1260.33 1399.78 1259.46 C1401.22 1257.87 1402.67 1256.27 1404.13 1254.69 C1404.77 1253.99 1405.41 1253.29 1406.06 1252.56 C1406.63 1251.95 1407.2 1251.33 1407.79 1250.69 C1409 1249 1409 1249 1409 1246 C1407.67 1244.56 1407.67 1244.56 1405.75 1243 C1402.13 1239.97 1398.64 1236.84 1395.19 1233.62 C1390.42 1229.21 1385.48 1225.08 1380.42 1221.02 C1378.29 1219.24 1376.36 1217.43 1374.44 1215.44 C1373.63 1214.63 1372.83 1213.83 1372 1213 C1371.34 1213 1370.68 1213 1370 1213 C1370 1212.34 1370 1211.68 1370 1211 C1368.04 1209.61 1366.04 1208.27 1364 1207 Z M789 1229 C778.06 1239.52 774.12 1254.9 773.75 1269.69 C774.11 1280.56 777.51 1288.41 784.31 1296.88 C790.96 1302.13 797.19 1303.72 805.64 1303.46 C813.15 1302.43 819.62 1298.94 826 1295 C825.75 1297.88 825.75 1297.88 825 1301 C823.16 1302.03 823.16 1302.03 821 1303 C819.9 1303.85 818.82 1304.73 817.75 1305.62 C794.25 1323.46 763.31 1326.36 735 1329 C735.6 1332.63 735.92 1332.94 739.09 1335.36 C740.36 1336.17 741.65 1336.97 742.94 1337.75 C743.26 1337.96 743.26 1337.96 744.9 1339 C749.7 1342 749.7 1342 752 1342 C752 1342.66 752 1343.32 752 1344 C754.3 1345.25 754.3 1345.25 757.31 1346.56 C758.3 1347 759.28 1347.43 760.3 1347.88 C768.88 1351.44 781.02 1351.69 789.75 1348.19 C791.18 1347.49 792.6 1346.76 794 1346 C795.01 1345.57 796.02 1345.13 797.06 1344.69 C815.17 1334.28 827.96 1316.32 833.76 1296.44 C838.58 1278.27 838.62 1254.76 829.31 1237.95 C824.15 1229.68 819.58 1225.01 810.12 1222.5 C802.29 1221.22 795.05 1224.05 789 1229 Z M1466.7 1281.62 C1466.27 1282.55 1465.84 1283.48 1465.4 1284.44 C1464.91 1285.49 1464.43 1286.54 1463.93 1287.62 C1463.67 1288.18 1463.67 1288.18 1462.38 1291 C1462.11 1291.58 1462.11 1291.58 1460.77 1294.49 C1457.04 1302.62 1453.44 1310.8 1449.97 1319.04 C1447.69 1324.44 1445.28 1329.73 1442.58 1334.94 C1442 1337 1442 1337 1442.67 1339.01 C1444.15 1341.23 1445.74 1343.24 1447.5 1345.25 C1448.11 1345.96 1448.72 1346.66 1449.34 1347.39 C1451 1349 1451 1349 1453 1349 C1453.7 1350.31 1454.36 1351.65 1455 1353 C1455.85 1354.14 1456.74 1355.25 1457.65 1356.33 C1458.18 1356.96 1458.7 1357.58 1459.24 1358.23 C1459.8 1358.9 1460.36 1359.56 1460.94 1360.25 C1487.5 1392.41 1487.5 1392.41 1489.4 1407.07 C1489 1410 1489 1410 1487.08 1411.76 C1466.9 1421.51 1442.62 1422.32 1420.56 1422.26 C1418.89 1422.26 1417.22 1422.27 1415.55 1422.27 C1410.99 1422.28 1406.44 1422.28 1401.89 1422.28 C1396.92 1422.28 1391.96 1422.29 1386.99 1422.3 C1378.3 1422.31 1369.61 1422.31 1360.91 1422.32 C1347.99 1422.32 1335.06 1422.33 1322.14 1422.35 C1300.4 1422.37 1278.65 1422.39 1256.91 1422.4 C1235.38 1422.41 1213.86 1422.42 1192.34 1422.44 C1192 1422.44 1192 1422.44 1190.31 1422.44 C1184.2 1422.45 1178.08 1422.46 1171.97 1422.46 C1156.77 1422.48 1141.58 1422.49 1126.39 1422.5 C1126.04 1422.5 1126.04 1422.5 1124.29 1422.5 C1090.67 1422.53 1057.04 1422.56 1023.42 1422.58 C1011.76 1422.59 1000.09 1422.59 988.43 1422.6 C987.71 1422.6 986.98 1422.6 986.24 1422.6 C952.59 1422.62 918.94 1422.65 885.29 1422.68 C883.1 1422.68 880.92 1422.68 878.73 1422.69 C864.25 1422.7 849.76 1422.71 835.28 1422.72 C806.46 1422.75 777.65 1422.77 748.83 1422.8 C747.46 1422.8 746.08 1422.8 744.71 1422.8 C656.21 1422.87 567.71 1422.94 471 1423 C470.87 1421.77 470.73 1420.54 470.6 1419.28 C470.42 1417.64 470.24 1416.01 470.06 1414.38 C469.98 1413.57 469.89 1412.77 469.8 1411.93 C469.12 1405.72 468.18 1399.61 466.88 1393.5 C466.66 1392.51 466.45 1391.51 466.23 1390.49 C460.71 1365.64 452.75 1341.32 437 1321 C436.51 1320.33 436.03 1319.66 435.53 1318.98 C429.19 1310.81 419.74 1304.35 410 1301 C408.8 1300.59 407.61 1300.17 406.38 1299.75 C390.11 1296.15 374.93 1300.82 361 1309 C357.45 1311.45 354.2 1314.11 351 1317 C350.67 1317.28 350.67 1317.28 349 1318.72 C325.84 1340 312.3 1377.62 310.84 1408.39 C310.79 1412.24 310.75 1416.09 310.75 1419.94 C310.75 1420.63 310.75 1421.33 310.75 1422.04 C310.78 1445.84 315.93 1466.87 332.61 1484.71 C345.16 1496.75 361.35 1502.19 378.51 1502.11 C378.92 1502.11 378.92 1502.11 380.99 1502.11 C383.68 1502.11 386.37 1502.11 389.06 1502.1 C390.93 1502.1 392.81 1502.09 394.68 1502.09 C399.59 1502.09 404.51 1502.08 409.42 1502.07 C414.44 1502.06 419.46 1502.05 424.48 1502.05 C434.32 1502.04 444.16 1502.02 454 1502 C452.75 1503.73 451.51 1505.46 450.26 1507.19 C449.56 1508.15 448.87 1509.11 448.15 1510.11 C422.51 1544.58 375.58 1560.29 335 1568 C334.23 1568.15 333.46 1568.3 332.66 1568.46 C327.46 1569.45 322.25 1570.28 317 1571 C316.27 1571.1 315.54 1571.21 314.8 1571.32 C291.41 1574.53 265.89 1574.75 242.5 1571.44 C238.96 1571 235.56 1570.93 232 1571 C231.69 1573.94 231.47 1576.14 232 1579 C234.18 1581.12 235.71 1582.22 238.31 1583.62 C239.01 1584.03 239.71 1584.43 240.43 1584.85 C242.93 1586.28 245.46 1587.64 248 1589 C249.01 1589.54 250.02 1590.09 251.05 1590.65 C266.08 1598.73 281.33 1606.25 297 1613 C297.82 1613.36 298.64 1613.72 299.48 1614.08 C326.69 1625.87 355.64 1634.63 384.54 1623.74 C410.29 1613.33 429.18 1593.99 444 1571 C444.64 1570.03 445.27 1569.05 445.93 1568.05 C457.09 1550.02 469 1523.54 469 1502 C469.82 1502 470.65 1502 471.5 1502 C561.2 1502.03 650.9 1502.07 740.6 1502.08 C741.96 1502.08 743.31 1502.09 744.66 1502.09 C773.07 1502.09 801.48 1502.1 829.89 1502.1 C844.16 1502.1 858.44 1502.11 872.71 1502.11 C874.86 1502.11 877.01 1502.11 879.17 1502.11 C912.31 1502.12 945.45 1502.12 978.59 1502.14 C979.3 1502.14 980.02 1502.14 980.75 1502.14 C992.23 1502.14 1003.72 1502.15 1015.2 1502.15 C1048.29 1502.16 1081.38 1502.18 1114.47 1502.18 C1115.15 1502.18 1115.83 1502.18 1116.53 1502.18 C1131.47 1502.18 1146.42 1502.19 1161.36 1502.19 C1167.38 1502.19 1173.39 1502.19 1179.4 1502.19 C1180.72 1502.19 1182.04 1502.19 1183.39 1502.19 C1204.57 1502.19 1225.76 1502.2 1246.94 1502.21 C1268.23 1502.23 1289.52 1502.23 1310.82 1502.23 C1323.47 1502.23 1336.12 1502.23 1348.77 1502.24 C1357.23 1502.25 1365.68 1502.25 1374.13 1502.24 C1378.95 1502.24 1383.77 1502.24 1388.58 1502.25 C1392.97 1502.26 1397.36 1502.26 1401.75 1502.25 C1403.32 1502.25 1404.89 1502.25 1406.46 1502.25 C1434.53 1502.35 1460.39 1497.16 1481 1477 C1492.7 1464.98 1499.27 1449.11 1503 1433 C1503.08 1432.67 1503.08 1432.67 1503.49 1431.02 C1509.19 1407.35 1506.64 1380.77 1503 1357 C1502.83 1355.89 1502.67 1354.77 1502.5 1353.63 C1498.62 1328.31 1492.51 1303.42 1482 1280 C1481.51 1278.85 1481.02 1277.7 1480.52 1276.51 C1479 1274 1479 1274 1477.06 1273.24 C1476.38 1273.26 1475.7 1273.29 1475 1273.31 C1474.66 1273.31 1474.66 1273.31 1472.94 1273.3 C1469.43 1274.57 1468.29 1278.42 1466.7 1281.62 Z M198 1302 C194.73 1306.21 193.19 1311.48 191.38 1316.44 C191.21 1316.9 191.21 1316.9 190.36 1319.21 C189.27 1322.14 188.2 1325.07 187.12 1328 C186.06 1330.89 184.99 1333.79 183.92 1336.68 C183.23 1338.55 182.55 1340.42 181.86 1342.29 C180.41 1346.26 178.93 1350.22 177.31 1354.13 C176.83 1355.29 176.36 1356.44 175.87 1357.62 C175.45 1358.59 175.04 1359.55 174.61 1360.54 C174 1363 174 1363 174.71 1365.17 C176.78 1368.11 179.45 1370.38 182.12 1372.75 C183.31 1373.83 184.5 1374.9 185.68 1375.98 C186.25 1376.5 186.83 1377.02 187.42 1377.56 C193.42 1383.03 198.7 1388.88 203.78 1395.22 C205.18 1396.98 206.61 1398.72 208.07 1400.43 C218.88 1413.32 226.42 1426.81 225 1444 C221.67 1468.55 202.89 1489.66 183.91 1504.17 C177.9 1508.61 171.53 1512.38 165 1516 C164.16 1516.47 163.33 1516.94 162.47 1517.42 C151.09 1523.44 138.86 1527.8 126.38 1530.81 C125.58 1531.01 124.78 1531.2 123.96 1531.4 C108.64 1534.89 93.63 1535.27 78 1535.12 C76.05 1535.11 74.1 1535.11 72.15 1535.1 C67.43 1535.08 62.72 1535.04 58 1535 C57.96 1536.27 57.92 1537.53 57.88 1538.84 C57.86 1539.55 57.84 1540.26 57.82 1540.99 C58.23 1545.49 62.41 1547.74 65.62 1550.43 C90.77 1569.89 119.58 1585.31 152 1583 C174.21 1580.16 193.29 1565.32 207.1 1548.43 C208.85 1546.01 210.45 1543.55 212 1541 C212.64 1539.94 213.29 1538.89 213.95 1537.8 C225.62 1518.17 232.84 1497.43 237 1475 C237.15 1474.23 237.3 1473.46 237.46 1472.67 C242.95 1443.57 242.15 1410.9 236 1382 C235.81 1381.1 235.63 1380.21 235.43 1379.29 C230.51 1356.44 222.07 1319.07 205 1302 C201.62 1301.62 201.62 1301.62 198 1302 Z " fill="#FFFFFF" transform="translate(0,0)"/>
<path d="M0 0 C10.51 0.1 20.99 2.13 31.34 3.81 C33.13 4.09 34.91 4.38 36.7 4.66 C41.46 5.43 46.22 6.19 50.98 6.96 C55.95 7.76 60.91 8.55 65.87 9.35 C76.69 11.08 87.5 12.82 98.31 14.57 C101.66 15.11 105.02 15.65 108.37 16.19 C131.65 19.94 131.65 19.94 143.04 21.78 C153.26 23.44 163.49 25.09 173.72 26.65 C174.51 26.77 175.29 26.89 176.1 27.02 C179.52 27.54 182.93 28.05 186.35 28.56 C187.45 28.72 188.55 28.89 189.69 29.06 C190.61 29.2 191.53 29.33 192.48 29.47 C195.15 30.03 197.48 30.96 200 32 C198.5 43.27 196.6 54.46 194.67 65.66 C194.09 69 193.52 72.34 192.94 75.68 C191.91 81.71 190.87 87.74 189.83 93.76 C187.89 105.06 185.95 116.35 184.01 127.65 C183.9 128.27 183.9 128.27 183.36 131.44 C180.51 148.03 177.72 164.62 174.99 181.23 C174.69 183.06 174.39 184.89 174.09 186.73 C172.84 194.28 171.61 201.84 170.39 209.41 C169.9 212.43 169.41 215.45 168.91 218.47 C168.58 220.47 168.27 222.47 167.95 224.47 C166.24 234.85 163.75 245 159.12 254.5 C158.85 255.07 158.58 255.65 158.29 256.24 C157.21 258.5 156.1 260.75 155 263 C152.84 267.41 150.69 271.83 148.54 276.25 C147.57 278.23 146.6 280.21 145.62 282.19 C145.02 283.42 144.42 284.66 143.82 285.89 C143.27 286.99 142.73 288.1 142.17 289.24 C141 292 141 292 141 295 C143.29 296.22 143.29 296.22 146.55 297.43 C147.16 297.66 147.16 297.66 150.25 298.82 C151.6 299.32 152.96 299.82 154.31 300.31 C157.14 301.37 159.96 302.44 162.79 303.5 C163.53 303.78 164.27 304.06 165.03 304.35 C170.62 306.45 176.17 308.66 181.71 310.9 C182.51 311.22 183.3 311.55 184.12 311.88 C187.25 313.15 190.38 314.42 193.51 315.7 C195.68 316.59 197.86 317.48 200.04 318.36 C200.69 318.63 201.34 318.9 202 319.17 C205.3 320.5 207.37 321 211 321 C212.27 318.6 212.27 318.6 213.38 315.26 C213.8 314.05 214.22 312.85 214.65 311.6 C214.87 310.96 215.09 310.32 215.32 309.66 C219.45 297.75 223.3 289.28 234 282 C235.8 280.53 237.59 279.06 239.38 277.56 C240.27 276.84 241.16 276.12 242.09 275.38 C245.44 272.64 248.72 269.83 252 267 C256.1 263.46 260.23 259.97 264.44 256.56 C268.75 253.07 272.95 249.46 277.12 245.81 C283.2 240.51 289.38 235.36 295.63 230.26 C301.32 225.61 306.87 220.81 312.36 215.91 C316.79 212 316.79 212 319 212 C319 211.34 319 210.68 319 210 C320.73 208.44 320.73 208.44 323.19 206.56 C327.3 203.35 331.34 200.07 335.31 196.69 C335.86 196.22 336.4 195.76 336.97 195.28 C338.64 193.86 340.32 192.43 342 191 C344.21 189.12 346.42 187.25 348.62 185.38 C348.9 185.14 348.9 185.14 350.27 183.98 C353.61 181.16 356.98 178.38 360.38 175.62 C365.5 171.46 370.48 167.14 375.45 162.8 C379.94 158.9 384.5 155.12 389.12 151.38 C392.66 148.46 396.11 145.45 399.56 142.44 C404.43 138.2 409.34 134.06 414.43 130.09 C416.42 128.47 418.33 126.82 420.23 125.09 C432.04 114.44 443.28 107.51 459.72 107.73 C474.04 108.91 484.07 116.2 493.12 126.81 C495.11 129.19 497.06 131.59 499 134 C499.81 134.98 500.61 135.95 501.44 136.96 C503.64 139.63 505.82 142.31 508 145 C512.8 150.9 517.64 156.77 522.56 162.56 C525.97 166.58 529.36 170.61 532.69 174.69 C533.33 175.48 533.97 176.26 534.64 177.07 C536 179 536 179 536 181 C536.66 181 537.32 181 538 181 C539.45 182.59 539.45 182.59 541.25 184.94 C545.04 189.79 548.9 194.57 552.81 199.31 C553.42 200.05 554.02 200.78 554.64 201.53 C558.78 206.54 562.96 211.51 567.16 216.46 C570.76 220.7 574.3 224.99 577.8 229.3 C579.32 231.17 580.85 233.03 582.38 234.88 C586.45 239.81 590.38 244.74 594 250 C588.33 255.25 582.43 260.01 576.21 264.6 C572.89 267.07 569.63 269.62 566.38 272.19 C561.02 276.42 555.64 280.62 550.25 284.81 C549.5 285.4 548.74 285.98 547.97 286.59 C546.42 287.79 544.88 288.99 543.34 290.18 C540.99 292.01 538.65 293.83 536.31 295.65 C534.77 296.85 533.23 298.05 531.69 299.25 C531.31 299.54 531.31 299.54 529.41 301.03 C525.06 304.41 520.69 307.78 516.31 311.12 C511.72 314.65 507.19 318.24 502.69 321.88 C497.54 326.03 492.31 330.05 487 334 C481.14 338.36 475.4 342.84 469.72 347.43 C464.3 351.79 458.79 356.01 453.26 360.22 C448.26 364.02 443.3 367.88 438.37 371.77 C433.68 375.47 428.97 379.15 424.25 382.81 C423.5 383.4 422.74 383.99 421.96 384.59 C418.86 387 415.77 389.4 412.67 391.81 C410.36 393.6 408.06 395.4 405.75 397.19 C405 397.77 404.25 398.35 403.48 398.95 C398.87 402.54 394.27 406.14 389.69 409.75 C381.78 415.97 373.8 422.11 365.79 428.2 C358.74 433.57 351.75 438.98 344.93 444.63 C340.51 448.2 335.99 451.63 331.47 455.06 C326.41 458.92 321.39 462.81 316.4 466.75 C310.66 471.27 304.9 475.75 299.13 480.23 C298.4 480.79 297.68 481.35 296.93 481.93 C296.25 482.46 295.56 482.99 294.85 483.53 C293.28 484.78 291.77 486.12 290.29 487.47 C288 489 288 489 285.75 488.74 C282.66 487.91 279.76 486.86 276.79 485.7 C275.56 485.22 274.33 484.75 273.06 484.26 C271.73 483.73 270.4 483.21 269.06 482.69 C267.67 482.14 266.27 481.6 264.88 481.06 C254.37 476.96 243.9 472.78 233.43 468.58 C223.27 464.5 213.08 460.48 202.89 456.48 C193.41 452.76 183.95 448.99 174.55 445.07 C169.72 443.06 164.85 441.19 159.95 439.37 C148.52 435.12 137.21 430.57 125.88 426.06 C121.14 424.18 116.4 422.3 111.66 420.42 C111.07 420.19 111.07 420.19 108.11 419.01 C99.44 415.57 90.76 412.14 82.08 408.73 C74.72 405.83 67.36 402.92 60 400 C59.33 399.73 58.66 399.47 57.97 399.19 C53.58 397.45 49.19 395.7 44.81 393.94 C43.76 393.52 42.71 393.1 41.63 392.67 C8.25 379.15 -17.02 353.33 -31.05 320.34 C-40.66 296.54 -41.68 272.13 -37.95 247.01 C-37.72 245.49 -37.5 243.98 -37.28 242.46 C-36.66 238.22 -36.04 233.99 -35.41 229.75 C-34.99 226.93 -34.57 224.1 -34.15 221.27 C-32.08 207.27 -29.99 193.28 -27.9 179.3 C-27.37 175.77 -26.84 172.24 -26.31 168.7 C-21.47 136.34 -16.58 103.98 -11.61 71.63 C-11.19 68.88 -10.77 66.13 -10.35 63.39 C-10.25 62.73 -10.15 62.07 -10.04 61.4 C-8.6 52 -7.19 42.61 -5.81 33.21 C-5.72 32.64 -5.72 32.64 -5.3 29.75 C-4.53 24.54 -3.77 19.33 -3.02 14.12 C-2.76 12.37 -2.5 10.61 -2.24 8.85 C-2.13 8.05 -2.02 7.26 -1.9 6.44 C-1.11 1.11 -1.11 1.11 0 0 Z " fill="#3F8784" transform="translate(509,172)"/>
<path d="M0 0 C2.19 0.04 2.19 0.04 4.16 0.45 C6.23 2.99 6.23 2.99 7.72 6.64 C8 7.3 8.28 7.97 8.57 8.66 C9.48 10.91 10.33 13.17 11.16 15.45 C11.45 16.24 11.75 17.02 12.05 17.83 C20.54 41.04 25.51 65.06 29.16 89.45 C29.29 90.35 29.43 91.24 29.57 92.16 C32.64 113.8 33.44 138.17 28.16 159.45 C28 160.14 27.84 160.84 27.67 161.56 C22.49 183.5 10.67 203.21 -8.6 215.58 C-27.31 226.82 -48.6 228.61 -69.94 228.57 C-71.57 228.57 -73.21 228.57 -74.84 228.58 C-79.34 228.58 -83.83 228.58 -88.32 228.57 C-93.21 228.57 -98.1 228.57 -102.99 228.57 C-111.56 228.57 -120.13 228.57 -128.69 228.57 C-141.43 228.56 -154.17 228.56 -166.91 228.56 C-188.34 228.56 -209.77 228.56 -231.2 228.55 C-252.42 228.55 -273.65 228.55 -294.87 228.54 C-296.19 228.54 -297.5 228.54 -298.86 228.54 C-304.22 228.54 -309.57 228.54 -314.93 228.54 C-329.89 228.54 -344.86 228.54 -359.83 228.54 C-360.51 228.54 -361.19 228.54 -361.89 228.54 C-395.04 228.54 -428.19 228.53 -461.33 228.52 C-472.83 228.52 -484.34 228.52 -495.84 228.52 C-496.55 228.52 -497.26 228.52 -498 228.52 C-531.17 228.51 -564.33 228.51 -597.5 228.5 C-599.65 228.5 -601.8 228.5 -603.96 228.5 C-618.23 228.5 -632.5 228.5 -646.77 228.5 C-675.16 228.5 -703.56 228.49 -731.95 228.49 C-733.3 228.49 -734.66 228.49 -736.01 228.49 C-825.95 228.48 -915.9 228.47 -1005.84 228.45 C-1005.99 229.71 -1006.15 230.98 -1006.3 232.28 C-1006.68 235.42 -1007.22 238.42 -1008.04 241.48 C-1008.28 242.37 -1008.51 243.25 -1008.76 244.16 C-1009.01 245.08 -1009.26 246 -1009.53 246.95 C-1009.79 247.92 -1010.06 248.88 -1010.34 249.88 C-1020.95 287.46 -1042.43 323.67 -1076.84 343.76 C-1098.07 355.6 -1119.88 358.21 -1143.27 351.78 C-1174.15 342.92 -1204.45 328.76 -1232.11 312.45 C-1233.7 311.53 -1235.31 310.66 -1236.93 309.79 C-1237.76 309.3 -1238.6 308.82 -1239.46 308.32 C-1240.14 307.95 -1240.81 307.58 -1241.5 307.19 C-1243.77 304.23 -1243.04 301.08 -1242.84 297.45 C-1240.38 297.59 -1237.92 297.74 -1235.46 297.89 C-1235.13 297.91 -1235.13 297.91 -1233.41 298.01 C-1229.73 298.23 -1226.08 298.53 -1222.42 298.97 C-1214.61 299.77 -1206.75 299.69 -1198.9 299.7 C-1198.48 299.7 -1198.48 299.7 -1196.36 299.7 C-1139.75 299.63 -1073.8 285.48 -1032.46 244.07 C-1029.19 240.5 -1026.4 236.83 -1023.72 232.8 C-1023.18 231.98 -1022.64 231.17 -1022.09 230.33 C-1021.67 229.71 -1021.26 229.09 -1020.84 228.45 C-1021.86 228.46 -1022.88 228.46 -1023.93 228.47 C-1033.61 228.53 -1043.29 228.58 -1052.97 228.6 C-1057.95 228.62 -1062.92 228.64 -1067.9 228.68 C-1072.71 228.71 -1077.52 228.73 -1082.33 228.73 C-1084.15 228.74 -1085.98 228.75 -1087.8 228.77 C-1108.62 228.95 -1127.35 225.55 -1143.09 210.7 C-1147.44 206.1 -1150.69 200.91 -1153.84 195.45 C-1154.04 195.12 -1154.04 195.12 -1155.02 193.43 C-1162.65 179.36 -1164.24 163.28 -1164.21 147.57 C-1164.21 146.9 -1164.21 146.22 -1164.21 145.53 C-1164.08 110.68 -1152.3 74.66 -1128.84 48.45 C-1128.23 47.74 -1127.62 47.04 -1126.99 46.31 C-1115.98 34.39 -1100.48 26.38 -1084.33 25.19 C-1068.09 24.69 -1056.15 30.19 -1043.84 40.45 C-1027.61 56.16 -1018.76 79.15 -1012.84 100.45 C-1012.62 101.22 -1012.4 102 -1012.17 102.79 C-1007.98 117.56 -1003.84 134.06 -1003.84 149.45 C-914.72 149.41 -825.61 149.36 -728.28 149.29 C-726.91 149.29 -725.54 149.29 -724.16 149.29 C-695.33 149.27 -666.49 149.24 -637.65 149.22 C-623.17 149.21 -608.68 149.2 -594.2 149.19 C-592.01 149.19 -589.83 149.19 -587.64 149.18 C-554.01 149.16 -520.38 149.13 -486.75 149.12 C-486.39 149.12 -486.39 149.12 -484.56 149.12 C-472.91 149.11 -461.27 149.11 -449.62 149.1 C-416.05 149.09 -382.48 149.07 -348.91 149.04 C-348.22 149.04 -347.53 149.04 -346.82 149.04 C-331.64 149.03 -316.47 149.02 -301.3 149 C-295.19 149 -289.08 148.99 -282.98 148.99 C-282.64 148.99 -282.64 148.99 -280.95 148.98 C-258.79 148.96 -236.63 148.96 -214.47 148.95 C-192.86 148.95 -171.25 148.93 -149.64 148.9 C-136.81 148.89 -123.97 148.88 -111.14 148.89 C-102.56 148.89 -93.97 148.88 -85.39 148.86 C-80.5 148.85 -75.62 148.85 -70.74 148.86 C-51.22 148.89 -32.15 148.67 -12.84 145.45 C-11.33 145.21 -9.82 144.98 -8.3 144.74 C-0.44 143.46 7.94 141.7 14.16 136.45 C15.49 133.08 14.5 130.7 13.16 127.45 C5.27 110.17 -6.94 95.12 -19.12 80.69 C-20.84 78.45 -20.84 78.45 -21.84 75.45 C-22.5 75.45 -23.16 75.45 -23.84 75.45 C-25.5 73.84 -25.5 73.84 -27.34 71.7 C-27.95 71 -28.56 70.31 -29.18 69.59 C-29.73 68.88 -30.28 68.18 -30.84 67.45 C-31.27 66.91 -31.71 66.37 -32.15 65.82 C-33.28 61.93 -31.2 58.9 -29.52 55.43 C-28.76 53.81 -28 52.18 -27.24 50.56 C-26.85 49.72 -26.45 48.87 -26.04 48.01 C-24.11 43.9 -22.28 39.74 -20.45 35.59 C-19.71 33.94 -18.98 32.3 -18.24 30.65 C-17.12 28.15 -16.01 25.65 -14.89 23.15 C-13.78 20.67 -12.68 18.19 -11.57 15.71 C-11.24 14.97 -10.91 14.23 -10.57 13.46 C-4.79 0.56 -4.79 0.56 0 0 Z M-1141.84 118.45 C-1144.15 121.99 -1146.06 125.62 -1147.84 129.45 C-1148.17 130.11 -1148.5 130.77 -1148.84 131.45 C-1149.5 135.62 -1149.97 139.71 -1147.59 143.37 C-1140.7 149.8 -1131.33 149.75 -1122.36 149.77 C-1121.86 149.77 -1121.86 149.77 -1119.31 149.8 C-1116.02 149.83 -1112.72 149.85 -1109.43 149.86 C-1107.13 149.88 -1104.84 149.9 -1102.54 149.92 C-1096.52 149.97 -1090.5 150.01 -1084.47 150.05 C-1078.32 150.09 -1072.17 150.14 -1066.01 150.19 C-1053.96 150.29 -1041.9 150.37 -1029.84 150.45 C-1029.51 149.46 -1029.18 148.47 -1028.84 147.45 C-1030.26 145.09 -1031.69 142.96 -1033.34 140.76 C-1033.81 140.13 -1034.27 139.5 -1034.75 138.85 C-1036.1 137.04 -1037.47 135.24 -1038.84 133.45 C-1039.13 133.07 -1039.13 133.07 -1040.57 131.14 C-1053.12 115.62 -1073.69 103.89 -1093.36 100.7 C-1112.22 98.82 -1129.02 104.02 -1141.84 118.45 Z " fill="#3F8784" transform="translate(1474.83984375,1273.55078125)"/>
<path d="M0 0 C2.29 0.41 2.29 0.41 3.29 1.41 C3.39 3.71 3.42 6 3.43 8.3 C3.43 9.03 3.43 9.76 3.44 10.51 C3.44 12.97 3.45 15.43 3.45 17.89 C3.45 19.65 3.46 21.41 3.46 23.16 C3.47 26.96 3.48 30.75 3.49 34.55 C3.5 40.55 3.52 46.56 3.54 52.57 C3.6 69.65 3.66 86.73 3.69 103.81 C3.71 113.24 3.74 122.66 3.78 132.09 C3.8 137.08 3.81 142.06 3.82 147.05 C3.82 151.75 3.84 156.45 3.86 161.15 C3.87 162.87 3.87 164.59 3.87 166.31 C3.85 178.99 4.35 189.65 13.29 199.41 C24.85 210.47 40.74 212.58 56.17 212.53 C57.14 212.54 58.12 212.54 59.13 212.54 C62.4 212.54 65.66 212.53 68.93 212.53 C71.28 212.53 73.62 212.53 75.97 212.53 C82.33 212.53 88.69 212.52 95.06 212.52 C101.04 212.51 107.01 212.51 112.99 212.51 C124.83 212.51 136.66 212.5 148.5 212.49 C160 212.48 171.49 212.47 182.99 212.47 C183.34 212.47 183.34 212.47 185.14 212.47 C188.7 212.47 192.25 212.47 195.81 212.46 C225.3 212.45 254.8 212.44 284.29 212.41 C284.4 211.55 284.5 210.68 284.61 209.79 C285.02 206.5 285.43 203.21 285.84 199.93 C286.02 198.52 286.2 197.11 286.37 195.7 C288.84 175.56 292.94 156 301.29 137.41 C301.77 136.32 302.25 135.23 302.75 134.11 C307.48 124.07 313.88 114.67 321.29 106.41 C321.95 106.41 322.61 106.41 323.29 106.41 C323.62 105.42 323.95 104.43 324.29 103.41 C341.83 88.72 361.32 84.81 383.65 86.6 C407.96 89.16 430.87 98.19 453.29 107.41 C456.84 108.87 460.38 110.32 463.93 111.76 C466.1 112.65 468.27 113.55 470.44 114.45 C487.13 121.32 504.01 127.07 521.35 132.04 C522.33 132.32 523.31 132.6 524.32 132.9 C540.5 137.55 556.74 141.86 573.51 143.78 C581.73 144.84 581.73 144.84 584.59 147.77 C584.92 148.7 585.26 149.64 585.6 150.6 C585.97 151.52 586.34 152.44 586.71 153.39 C587.98 160.02 585.65 165.51 582.94 171.41 C582.6 172.16 582.26 172.91 581.92 173.69 C580.84 176.08 579.75 178.47 578.66 180.85 C577.6 183.2 576.55 185.55 575.49 187.89 C574.79 189.44 574.09 190.99 573.38 192.53 C571.63 196.36 569.96 200.18 568.45 204.11 C568.3 204.48 568.3 204.48 567.56 206.35 C567 207.75 566.47 209.16 565.97 210.58 C565.21 212.47 565.21 212.47 563.29 215.41 C559.93 216.32 559.93 216.32 556.29 216.41 C555.35 216.49 554.41 216.56 553.44 216.63 C552.98 216.66 552.98 216.66 550.65 216.77 C502.44 219.55 460.63 235.97 418.06 257.51 C388.25 272.59 358.54 284.41 325.29 289.41 C324.19 289.58 323.1 289.75 321.97 289.92 C308.68 291.73 295.48 291.7 282.09 291.69 C279.48 291.69 276.87 291.7 274.26 291.7 C267.95 291.72 261.64 291.72 255.33 291.72 C250.2 291.71 245.06 291.72 239.93 291.72 C239.56 291.72 239.56 291.72 237.7 291.72 C236.21 291.72 234.72 291.72 233.22 291.73 C219.28 291.74 205.33 291.73 191.38 291.73 C178.65 291.72 165.92 291.73 153.18 291.75 C140.07 291.77 126.96 291.78 113.84 291.78 C106.49 291.78 99.15 291.78 91.8 291.79 C84.9 291.81 77.99 291.8 71.08 291.79 C68.56 291.79 66.03 291.79 63.51 291.8 C39.04 291.87 14.75 289.55 -3.96 271.73 C-19.42 255.26 -25.12 234.89 -27.34 212.85 C-27.58 210.56 -27.82 208.27 -28.06 205.97 C-28.11 205.47 -28.11 205.47 -28.37 202.95 C-28.71 200.41 -28.71 200.41 -29.71 197.41 C-29.98 198.14 -30.25 198.87 -30.52 199.62 C-37.23 216.82 -48.58 231.66 -65.71 239.41 C-85.31 246.99 -110.25 249.29 -129.91 240.64 C-145.56 233.32 -158.25 223.18 -164.43 206.46 C-171.94 184.7 -172.67 161.04 -163.84 139.54 C-163.15 138.15 -162.44 136.78 -161.71 135.41 C-161.29 134.62 -160.87 133.82 -160.44 133 C-156.69 126.32 -151.99 120.94 -146.71 115.41 C-146.1 114.71 -145.5 114 -144.87 113.28 C-125.9 92.29 -95.1 80.29 -69.71 69.41 C-68.79 69.02 -67.86 68.62 -66.91 68.21 C-39.62 56.42 -39.62 56.42 -31.26 54.7 C-30.42 54.28 -29.58 53.85 -28.71 53.41 C-28.48 50.83 -28.56 48.72 -28.77 46.16 C-28.96 34.24 -21.53 26.04 -14.62 16.96 C-12.89 14.65 -11.26 12.31 -9.67 9.9 C-9.45 9.57 -9.45 9.57 -8.33 7.9 C-7.52 6.69 -6.73 5.49 -5.95 4.27 C-4.1 1.61 -3.27 0.5 0 0 Z M-40.89 101.74 C-41.69 102 -42.49 102.25 -43.32 102.52 C-45.93 103.37 -48.54 104.23 -51.15 105.1 C-51.59 105.25 -51.59 105.25 -53.85 105.99 C-70.44 111.45 -86.64 117.59 -102.71 124.41 C-103.59 124.78 -104.48 125.15 -105.38 125.53 C-147.15 143.08 -147.15 143.08 -154.71 154.41 C-154.71 157.97 -153.85 159.26 -151.46 161.91 C-128.65 179.19 -84.56 176.76 -57.62 173.4 C-36.22 170.29 -36.22 170.29 -29.06 162.65 C-27.31 159.75 -27.35 157.83 -27.37 154.45 C-27.37 153.25 -27.37 152.05 -27.37 150.81 C-27.39 149.52 -27.4 148.23 -27.42 146.9 C-27.42 145.56 -27.43 144.22 -27.43 142.88 C-27.44 139.36 -27.47 135.84 -27.5 132.33 C-27.54 128.73 -27.55 125.14 -27.56 121.55 C-27.6 114.5 -27.65 107.46 -27.71 100.41 C-32.67 99.2 -36.15 100.16 -40.89 101.74 Z M311.29 174.41 C310.62 175.07 309.96 175.73 309.27 176.4 C300.26 185.88 292.12 200.2 292.29 213.41 C303.66 213.61 314.89 213.05 326.23 212.16 C327.1 212.1 327.97 212.03 328.86 211.96 C379.72 208.03 429.26 198.32 478.29 184.41 C478.29 183.75 478.29 183.09 478.29 182.41 C467.19 178.69 456.07 174.99 444.96 171.3 C442.3 170.42 439.65 169.53 437 168.65 C346.34 138.46 346.34 138.46 311.29 174.41 Z " fill="#3F8784" transform="translate(210.7109375,858.5859375)"/>
<path d="M0 0 C1.32 0 2.64 0 4 0 C4 0.28 4 0.28 4 1.68 C4.08 34.64 4.18 67.6 4.28 100.56 C4.29 104.53 4.31 108.49 4.32 112.45 C4.32 113.24 4.32 114.03 4.32 114.84 C4.36 127.59 4.4 140.35 4.43 153.1 C4.46 166.2 4.5 179.29 4.54 192.39 C4.57 200.46 4.59 208.54 4.61 216.61 C4.62 222.81 4.64 229.02 4.67 235.22 C4.68 237.76 4.68 240.29 4.68 242.83 C4.72 283.63 4.72 283.63 16.74 297.96 C28.7 308.74 45.6 310.56 61 310.38 C62.25 310.37 63.51 310.36 64.8 310.35 C87.36 309.99 111.51 307.67 128.81 291.69 C138.32 281.45 141.98 268.53 144 255 C145.98 255 147.96 255 150 255 C150.16 261.61 149.79 267.91 148.75 274.44 C148.62 275.28 148.49 276.13 148.36 277.01 C147.66 281.52 146.81 285.97 145.77 290.41 C145.57 291.28 145.37 292.14 145.16 293.03 C144.77 294.69 144.35 296.35 143.92 298 C143.38 300.25 143.38 300.25 143 304 C149.26 311.38 164.02 311.23 173 312 C177.88 312.29 182.76 312.33 187.65 312.32 C189.76 312.31 191.88 312.34 194 312.36 C208.24 312.43 222.63 309.75 233.75 300.12 C243.74 288.99 247.57 273.49 249.54 259.07 C250 256 250 256 251 255 C252.67 254.96 254.33 254.96 256 255 C256.19 262.4 256.19 269.67 255.41 277.04 C255.31 278.07 255.2 279.1 255.09 280.16 C254.87 282.2 254.62 284.24 254.36 286.28 C253.59 293.34 253.59 293.34 255.54 296.46 C277.53 310.23 313.26 320.97 339 318 C343.67 315.59 344.79 310.14 346.32 305.44 C347.39 301.59 347.8 297.78 348.12 293.81 C348.16 293.38 348.16 293.38 348.36 291.18 C349.43 278.16 349.68 265.06 350 252 C352.31 252 354.62 252 357 252 C357.01 252.46 357.01 252.46 357.04 254.76 C357.11 258.2 357.18 261.63 357.26 265.07 C357.3 266.54 357.32 268.02 357.35 269.5 C357.52 280.24 358.54 290.07 363 300 C364.92 301.19 364.92 301.19 367 302 C368.07 302.64 369.14 303.28 370.25 303.94 C384.34 310.98 403.19 310.23 418.5 310.25 C419.2 310.25 419.9 310.25 420.62 310.25 C444.56 310.23 468.22 307.38 486.52 290.54 C486.93 290.12 486.93 290.12 489 288 C489.49 287.5 489.97 287.01 490.47 286.5 C496.85 279.63 501.71 271.63 506.81 263.81 C513.51 253.55 520.35 243.58 528 234 C528.53 233.33 529.06 232.67 529.6 231.98 C544.51 213.49 563.37 193.83 588 190 C602.93 188.75 615.99 191.48 628 201 C644.08 215.62 650.07 236.33 654 257 C654.18 257.91 654.35 258.81 654.53 259.75 C655.08 263.54 655.2 267.27 655.24 271.09 C655.25 271.86 655.26 272.64 655.27 273.43 C655.62 308.36 651.48 347.25 626.21 373.94 C615.45 384.8 604.57 389.34 589.38 389.5 C559.43 389.24 531.4 375.64 510.47 354.55 C503.59 347.29 498.64 339.3 495 330 C493.42 332.37 492.29 334.42 491.15 336.99 C481.84 357.59 469.63 376.93 447.46 385.34 C429.22 391.11 407.4 391.45 389 386 C387.95 385.71 386.91 385.42 385.83 385.12 C369.85 380.28 358.2 371.86 349 358 C346.83 360.78 345.04 363.61 343.31 366.69 C337.28 376.75 329.99 384.2 318.75 388.14 C299.74 392.51 281.16 387 264.89 377.2 C256.86 372.12 250.76 365.98 244.97 358.48 C243.11 356.14 241.15 354.07 239 352 C238.9 352.72 238.79 353.44 238.68 354.18 C236.32 363.96 227.51 373.84 219.18 379.16 C203.34 388.34 186.24 391.66 168.11 388.27 C164.96 387.36 162.01 386.29 159 385 C158.12 384.64 157.25 384.28 156.34 383.9 C145.83 379.11 135.43 370.65 129 361 C125.75 362.41 123.81 364.08 121.44 366.69 C106.48 382.01 84.39 388.78 63.48 389.3 C60.86 389.32 58.24 389.32 55.62 389.31 C54.33 389.33 53.04 389.34 51.7 389.36 C31.87 389.37 12.27 384.21 -3 371 C-26 345.09 -26.93 311.73 -27.53 278.84 C-27.55 277.77 -27.57 276.7 -27.59 275.6 C-28.16 245.95 -28.33 216.3 -28.53 186.64 C-28.58 178.88 -28.63 171.13 -28.69 163.37 C-28.72 159.84 -28.74 156.3 -28.76 152.77 C-28.91 131.57 -29.3 110.35 -31.38 89.25 C-31.49 87.97 -31.6 86.69 -31.72 85.38 C-32.46 77.57 -33.68 70.06 -35.4 62.43 C-36.54 55.93 -36.55 51.93 -32.75 46.42 C-32.06 45.4 -31.37 44.39 -30.65 43.34 C-30.29 42.82 -30.29 42.82 -28.44 40.19 C-27.73 39.16 -27.03 38.13 -26.3 37.07 C-24.22 34.03 -22.11 31.01 -20 28 C-19.38 27.11 -18.76 26.22 -18.11 25.31 C-16.95 23.65 -15.79 21.99 -14.63 20.33 C-11.63 16.04 -8.69 11.71 -5.74 7.38 C-5.29 6.7 -4.83 6.03 -4.36 5.34 C-3.95 4.75 -3.54 4.15 -3.13 3.54 C-2 2 -2 2 0 0 Z M519.53 278.18 C518 280 518 280 517.87 281.96 C519.58 285.04 522.25 286.53 525.19 288.31 C525.82 288.7 526.45 289.1 527.09 289.5 C533.52 293.43 540.15 296.88 547 300 C547.31 300.14 547.31 300.14 548.88 300.87 C567.65 309.37 587.73 314.56 608 318 C609.12 318.19 610.24 318.38 611.4 318.58 C616.13 319.13 620.8 319.26 625.56 319.31 C626.02 319.33 626.02 319.33 628.35 319.4 C634.15 319.45 637.71 319.08 642 315 C644.33 306.36 637.61 291.3 633.25 283.69 C632.2 282.1 631.12 280.54 630 279 C629.33 278.07 628.66 277.15 627.97 276.2 C619.52 265.22 607.61 256.86 593.76 254.28 C566.16 251.47 541.15 261.46 519.53 278.18 Z " fill="#3F8784" transform="translate(876,761)"/>
<path d="M0 0 C1.88 0.03 3.76 0.04 5.64 0.05 C42.52 1.22 82.77 20.31 108.09 47.04 C108.09 47.7 108.09 48.36 108.09 49.04 C109.08 49.37 110.07 49.7 111.09 50.04 C136.93 73.07 151.25 113.65 153.94 147.08 C154.25 153.07 154.22 159.04 154.09 165.04 C154.08 166.26 154.06 167.48 154.04 168.74 C153.17 192.96 145.48 215.86 134.09 237.04 C133.61 237.97 133.14 238.89 132.65 239.85 C131.4 242.1 131.4 242.1 129.09 245.04 C126.78 245.13 126.78 245.13 124.09 244.04 C122.11 241.86 120.43 239.78 118.72 237.41 C117.74 236.12 116.77 234.84 115.79 233.56 C115.32 232.94 114.86 232.33 114.38 231.7 C102.76 216.71 84.51 208.68 66.09 206.04 C45.3 203.92 26.3 210.19 10.09 223.04 C8.52 224.24 6.94 225.45 5.36 226.65 C3.14 228.35 0.94 230.06 -1.27 231.77 C-3.87 233.78 -6.49 235.78 -9.1 237.79 C-14.38 241.85 -19.65 245.94 -24.91 250.04 C-33.53 256.75 -42.17 263.42 -50.85 270.05 C-52.27 271.13 -53.68 272.21 -55.1 273.29 C-55.8 273.82 -56.5 274.36 -57.23 274.92 C-63.55 279.75 -69.84 284.64 -76.11 289.54 C-76.82 290.1 -77.54 290.66 -78.28 291.24 C-78.91 291.73 -79.54 292.22 -80.19 292.73 C-84.57 296.05 -84.57 296.05 -87.18 295.95 C-90.79 294.74 -93.58 292.72 -96.6 290.47 C-97.2 290.03 -97.81 289.58 -98.44 289.12 C-110.51 280.23 -110.51 280.23 -113.91 277.04 C-113.91 276.38 -113.91 275.72 -113.91 275.04 C-114.19 274.9 -114.19 274.9 -115.61 274.22 C-118.63 272.66 -120.4 270.57 -122.66 268.04 C-123.46 267.15 -124.26 266.26 -125.08 265.35 C-126.91 263.04 -126.91 263.04 -126.91 261.04 C-127.57 261.04 -128.23 261.04 -128.91 261.04 C-130.13 259.67 -130.13 259.67 -131.48 257.74 C-131.73 257.39 -131.73 257.39 -133 255.6 C-133.52 254.84 -134.05 254.07 -134.6 253.29 C-135.14 252.51 -135.68 251.72 -136.24 250.92 C-161.31 214.48 -169.88 171.41 -161.91 128.04 C-161.84 127.67 -161.84 127.67 -161.5 125.79 C-158.49 109.75 -152.45 93.94 -143.91 80.04 C-143.24 78.94 -142.58 77.85 -141.89 76.72 C-138.02 70.5 -133.9 64.5 -129.47 58.66 C-129.05 58.1 -128.62 57.53 -128.18 56.95 C-127.14 55.6 -126.03 54.31 -124.91 53.04 C-124.25 53.04 -123.59 53.04 -122.91 53.04 C-122.23 51.71 -121.56 50.38 -120.91 49.04 C-96.34 20.28 -56.96 4.42 -20.22 0.29 C-13.49 -0.16 -6.74 -0.13 0 0 Z " fill="#FFDC4E" transform="translate(909.908203125,39.962890625)"/>
<path d="M0 0 C4.16 1.06 4.46 1.41 6.62 4.88 C7.68 6.88 8.7 8.9 9.69 10.94 C9.98 11.52 10.28 12.11 10.58 12.71 C28.9 49.05 39.15 87.91 39.06 128.62 C39.06 129.56 39.06 130.5 39.06 131.47 C39 155.68 36.16 178.8 28.69 201.94 C28.57 202.3 28.57 202.3 27.99 204.12 C18.43 233.43 0.58 259.94 -27 274.62 C-43.07 282.49 -62.2 285.43 -79.56 279.94 C-82.18 279.02 -84.75 278 -87.31 276.94 C-88.02 276.65 -88.73 276.37 -89.47 276.08 C-105.71 269.52 -120.67 260.93 -134.31 249.94 C-135.21 249.26 -136.12 248.58 -137.05 247.88 C-137.46 247.55 -137.46 247.55 -139.56 245.88 C-140.29 245.31 -141.02 244.74 -141.77 244.15 C-144.1 240.81 -143.41 237.97 -143.31 233.94 C-142.16 233.95 -141 233.97 -139.81 233.99 C-92.18 234.57 -49.12 229.55 -11.31 197.94 C-10.8 197.51 -10.3 197.09 -9.77 196.65 C6.61 182.84 20 164.48 23.69 142.94 C25.18 124.49 16.29 110.58 4.69 96.94 C3.78 95.85 2.87 94.75 1.97 93.66 C-3.17 87.52 -8.47 81.61 -14.12 75.94 C-14.67 75.39 -15.21 74.84 -15.77 74.28 C-18.63 71.44 -21.49 69.04 -24.81 66.75 C-25.64 65.82 -26.46 64.89 -27.31 63.94 C-27.05 61.87 -27.05 61.87 -26.23 59.47 C-25.93 58.58 -25.63 57.68 -25.32 56.76 C-25.16 56.3 -25.16 56.3 -24.31 53.94 C-24 53.04 -23.68 52.15 -23.36 51.23 C-22.32 48.35 -21.26 45.49 -20.19 42.64 C-19.8 41.6 -19.41 40.56 -19.01 39.49 C-18.2 37.31 -17.38 35.13 -16.56 32.95 C-15.31 29.62 -14.07 26.29 -12.83 22.95 C-12.03 20.83 -11.23 18.7 -10.44 16.57 C-10.07 15.58 -9.7 14.59 -9.32 13.57 C-4.7 1.33 -4.7 1.33 0 0 Z " fill="#3F8784" transform="translate(201.3125,1301.0625)"/>
<path d="M0 0 C-0.42 7.46 -1.12 15.03 -4 22 C-7.3 24.2 -9.38 24.6 -13.26 25.28 C-13.9 25.39 -14.53 25.5 -15.19 25.62 C-17.3 25.99 -19.42 26.36 -21.54 26.72 C-23.04 26.99 -24.53 27.25 -26.03 27.51 C-29.23 28.08 -32.42 28.64 -35.62 29.19 C-40.65 30.07 -45.68 30.95 -50.71 31.84 C-51.55 31.98 -52.38 32.13 -53.24 32.28 C-54.93 32.58 -56.61 32.88 -58.29 33.17 C-60.82 33.62 -63.34 34.06 -65.87 34.51 C-79.11 36.83 -92.34 39.24 -105.56 41.69 C-122.43 44.81 -139.3 47.86 -156.19 50.88 C-157.35 51.08 -158.5 51.29 -159.7 51.5 C-173.29 53.92 -186.88 56.33 -200.47 58.73 C-205.71 59.65 -210.95 60.57 -216.19 61.5 C-217.48 61.73 -218.77 61.96 -220.1 62.19 C-239.69 65.65 -259.23 69.28 -278.76 73.01 C-298.45 76.76 -318.15 80.23 -338 83 C-337.74 77.17 -336.83 71.64 -335.31 66 C-335.02 64.91 -334.73 63.81 -334.43 62.69 C-333 60 -333 60 -330.51 58.95 C-326.16 57.78 -321.81 56.96 -317.38 56.19 C-316.42 56.02 -315.47 55.85 -314.48 55.67 C-312.41 55.31 -310.34 54.94 -308.27 54.57 C-302.62 53.58 -296.97 52.57 -291.33 51.57 C-290.15 51.36 -288.97 51.15 -287.76 50.93 C-276.21 48.87 -264.67 46.72 -253.14 44.57 C-234.4 41.07 -215.65 37.68 -196.86 34.45 C-182.18 31.93 -167.52 29.28 -152.88 26.56 C-134.86 23.22 -116.81 20.04 -98.75 16.94 C-80.41 13.8 -62.1 10.49 -43.8 7.09 C-33.98 5.27 -24.16 3.47 -14.33 1.74 C-13.84 1.65 -13.84 1.65 -11.37 1.21 C-10.47 1.05 -9.56 0.89 -8.62 0.73 C-7.83 0.59 -7.03 0.45 -6.21 0.3 C-4 0 -4 0 0 0 Z " fill="#FFDC4E" transform="translate(1344,809)"/>
<path d="M0 0 C12.15 4.21 24.37 8.18 36.65 12.02 C36.65 12.68 36.65 13.34 36.65 14.02 C-23.46 31.22 -86.58 43.61 -149.35 43.02 C-148.75 25.61 -137.45 10.17 -125.3 -1.48 C-87.58 -33.5 -40.89 -14.18 0 0 Z " fill="#FFFFFF" transform="translate(652.3480377197266,1028.9846954345703)"/>
<path d="M0 0 C0.12 7.72 0.2 15.44 0.26 23.16 C0.29 26.74 0.32 30.33 0.38 33.91 C0.43 37.38 0.46 40.84 0.47 44.3 C0.49 46.26 0.53 48.21 0.57 50.17 C0.57 60.11 0.57 60.11 -2.4 63.77 C-19.84 78.71 -55.29 75.11 -76.75 73.77 C-113.65 70.69 -113.65 70.69 -125.69 59.5 C-127 57 -127 57 -126.81 54.55 C-124.1 46.05 -110.53 40.91 -103 37 C-98.17 34.6 -93.29 32.32 -88.38 30.09 C-86.62 29.29 -84.88 28.47 -83.13 27.64 C-74.66 23.65 -66.06 20.14 -57.31 16.81 C-56.59 16.54 -55.87 16.26 -55.13 15.98 C-43.58 11.58 -31.93 7.49 -20.19 3.62 C-19.82 3.5 -19.82 3.5 -17.97 2.88 C-15.89 2.19 -13.81 1.52 -11.73 0.85 C-10.55 0.47 -9.37 0.08 -8.15 -0.31 C-4.91 -1.02 -3.17 -0.75 0 0 Z " fill="#FFFFFF" transform="translate(183,959)"/>
<path d="M0 0 C12.87 12.14 19.36 28.48 22.2 45.63 C21.69 47.75 21.69 47.75 19.27 50 C14.72 52.23 11.25 52.36 6.25 52.25 C5.33 52.24 4.42 52.23 3.48 52.21 C-14.62 51.71 -32.15 47.24 -49.31 41.75 C-50.17 41.48 -51.03 41.21 -51.91 40.93 C-68.65 35.54 -89.49 28.21 -102.31 15.75 C-102.41 13.73 -102.41 13.73 -101.31 11.75 C-74.99 -12.98 -29.79 -24.25 0 0 Z " fill="#FFFFFF" transform="translate(1496.3125,1028.25)"/>
<path d="M0 0 C3.85 1.57 6.13 4.03 9 7 C11.25 9.15 13.53 11.26 15.81 13.38 C16.12 13.66 16.12 13.66 17.69 15.12 C21.5 18.63 25.32 22.13 29.26 25.5 C30.5 26.56 31.71 27.66 32.89 28.79 C33.51 29.35 34.12 29.92 34.75 30.5 C35.02 30.75 35.02 30.75 36.36 32.03 C38 33 38 33 39.87 33 C43.04 31.51 45.05 29.04 47.31 26.44 C47.56 26.17 47.56 26.17 48.78 24.79 C50.2 23.2 51.6 21.6 53 20 C53.33 19.62 53.33 19.62 55.03 17.71 C57.35 15.07 59.65 12.44 61.84 9.7 C62.45 8.95 63.06 8.21 63.69 7.44 C64.23 6.76 64.77 6.07 65.32 5.37 C67 4 67 4 68.98 4.1 C71.26 5.12 72.73 6.25 74.56 7.94 C74.91 8.25 74.91 8.25 76.66 9.84 C77.43 10.55 78.2 11.27 79 12 C80.83 13.67 82.67 15.33 84.5 17 C85.44 17.86 86.38 18.71 87.34 19.59 C89.54 21.59 91.76 23.55 94 25.5 C94.62 26.04 95.23 26.59 95.87 27.15 C97.56 28.62 99.28 30.05 101.01 31.48 C102.05 32.36 103.09 33.24 104.12 34.12 C104.61 34.53 104.61 34.53 107.07 36.57 C107.71 37.37 108.34 38.17 109 39 C108.29 42.88 106.27 45.06 103.44 47.69 C100.08 50.83 100.08 50.83 99 53 C98.34 53 97.68 53 97 53 C96.31 54.32 95.65 55.66 95 57 C93.99 58.23 92.94 59.41 91.85 60.57 C91.24 61.22 90.62 61.87 89.99 62.54 C89.36 63.21 88.72 63.87 88.06 64.56 C87.43 65.23 86.8 65.91 86.14 66.6 C83.46 69.44 80.77 72.25 78 75 C71.75 70.63 66.27 65.65 60.75 60.41 C60.16 59.85 59.58 59.3 58.98 58.73 C58.45 58.23 57.93 57.73 57.39 57.21 C56 56 56 56 54 55 C54 54.34 54 53.68 54 53 C53.44 52.72 52.89 52.45 52.32 52.16 C48.4 50.2 45.51 46.98 42.34 44 C40 42 40 42 37 41 C36.73 41.59 36.46 42.18 36.19 42.79 C34.99 45.02 33.73 46.56 31.99 48.39 C31.4 49.01 30.81 49.64 30.2 50.28 C29.58 50.93 28.95 51.58 28.31 52.25 C27.04 53.59 25.76 54.94 24.49 56.29 C23.88 56.93 23.28 57.57 22.65 58.23 C20.19 60.87 17.84 63.61 15.53 66.39 C13.53 68.5 11.3 70.22 9 72 C8.62 71.66 8.62 71.66 6.73 69.91 C-1.74 62.13 -10.24 54.39 -18.91 46.84 C-22.97 43.27 -26.98 39.63 -31 36 C-29.34 31.85 -26.34 28.93 -23.31 25.75 C-22.22 24.58 -21.12 23.41 -20.03 22.24 C-19.5 21.68 -18.98 21.12 -18.43 20.54 C-16.16 18.1 -13.98 15.58 -11.8 13.05 C-7.93 8.64 -3.96 4.33 0 0 Z " fill="#3F8784" transform="translate(75,808)"/>
<path d="M0 0 C10.37 9.98 13.96 23.73 14.41 37.64 C14.87 63.37 9.42 84.38 -8.31 103.81 C-18.18 113.96 -29.33 121.98 -43.97 122.43 C-52.97 122.56 -59.77 121.48 -67.83 117.09 C-68.49 116.76 -69.15 116.43 -69.83 116.09 C-69.83 115.43 -69.83 114.77 -69.83 114.09 C-70.7 113.84 -71.57 113.59 -72.46 113.34 C-76.03 112.02 -78.64 110.38 -81.7 108.15 C-82.67 107.46 -83.64 106.77 -84.63 106.06 C-85.36 105.41 -86.08 104.76 -86.83 104.09 C-86.83 103.1 -86.83 102.11 -86.83 101.09 C-86.46 101.06 -86.46 101.06 -84.62 100.89 C-20.2 95 -20.2 95 1.17 73.09 C1.83 73.09 2.49 73.09 3.17 73.09 C3.5 71.11 3.83 69.13 4.17 67.09 C3.2 67.58 2.22 68.08 1.21 68.59 C-0.07 69.23 -1.36 69.88 -2.64 70.53 C-2.96 70.69 -2.96 70.69 -4.59 71.51 C-12.68 75.58 -20.25 76.71 -29.11 74.14 C-38.03 70.22 -42.18 64.22 -45.97 55.45 C-50.63 42.63 -47.38 25.47 -41.99 13.27 C-37.33 4.52 -31.24 -1.49 -21.83 -4.91 C-13.96 -6.91 -6.5 -4.71 0 0 Z M-39.83 28.09 C-42.62 31.38 -43.71 33.26 -44.33 37.53 C-43.73 41.79 -42.77 44.95 -39.83 48.09 C-29.61 54.77 -19.02 55.32 -7.27 52.96 C-1.25 51.42 4.63 49.5 9.17 45.09 C9.75 39.79 7.37 35.26 4.17 31.09 C-2.23 24.22 -9.05 20.84 -18.41 20.1 C-27.03 20.07 -33.63 21.97 -39.83 28.09 Z " fill="#FFDC4E" transform="translate(821.828125,1227.91015625)"/>
<path d="M0 0 C2.55 1.99 5.03 4.05 7.5 6.14 C8.38 6.82 9.26 7.51 10.17 8.23 C16.08 13.06 20.51 19.33 25 25.45 C25.46 26.06 25.92 26.67 26.39 27.3 C27.51 28.85 28.52 30.49 29.5 32.14 C29.17 33.13 28.84 34.12 28.5 35.14 C15.26 35.07 2.03 35 -11.21 34.9 C-17.36 34.85 -23.51 34.82 -29.66 34.79 C-35.6 34.76 -41.54 34.72 -47.48 34.67 C-49.74 34.66 -52 34.64 -54.26 34.64 C-57.44 34.63 -60.61 34.6 -63.79 34.57 C-64.72 34.57 -65.64 34.57 -66.59 34.57 C-74.36 34.46 -82.07 33.35 -88.68 29.07 C-91.38 24.7 -91.38 21.14 -90.5 16.14 C-86.97 5.26 -78.71 -3.28 -68.84 -8.69 C-46.55 -19.89 -19.67 -14.72 0 0 Z " fill="#FFFFFF" transform="translate(416.495361328125,1388.86474609375)"/>
<path d="M0 0 C-0.24 1.65 -0.48 3.31 -0.73 4.96 C-0.99 6.91 -1.17 8.87 -1.34 10.82 C-1.97 14.89 -2.63 18.59 -5 22 C-7.8 23.18 -9.74 23.72 -12.68 24.17 C-13.47 24.31 -14.26 24.46 -15.07 24.61 C-16.8 24.93 -18.53 25.24 -20.26 25.53 C-23.04 26.01 -25.8 26.53 -28.57 27.08 C-34.79 28.3 -41.02 29.46 -47.25 30.62 C-49.58 31.06 -51.91 31.5 -54.24 31.94 C-72.71 35.4 -91.18 38.83 -109.66 42.23 C-121.4 44.39 -133.14 46.59 -144.86 48.85 C-147.31 49.32 -149.75 49.79 -152.2 50.26 C-156.84 51.15 -161.47 52.05 -166.11 52.95 C-168.22 53.36 -170.32 53.76 -172.43 54.16 C-172.9 54.26 -172.9 54.26 -175.28 54.73 C-180.95 55.81 -186.22 56.17 -192 56 C-190.45 37.45 -190.45 37.45 -186 33 C-183.02 32.28 -180.08 31.67 -177.07 31.12 C-176.15 30.94 -175.23 30.77 -174.28 30.59 C-171.23 30.01 -168.18 29.44 -165.12 28.88 C-162.98 28.47 -160.83 28.07 -158.69 27.66 C-143.14 24.74 -127.57 21.9 -112 19.09 C-98.5 16.66 -85.02 14.14 -71.54 11.58 C-68.16 10.94 -64.77 10.3 -61.39 9.67 C-51.97 7.89 -42.55 6.11 -33.14 4.31 C-29.56 3.63 -25.99 2.95 -22.42 2.28 C-20.78 1.97 -19.14 1.66 -17.51 1.34 C-15.29 0.92 -13.06 0.5 -10.84 0.08 C-9.61 -0.15 -8.37 -0.39 -7.1 -0.63 C-4.3 -0.96 -2.62 -0.95 0 0 Z " fill="#FFDC4E" transform="translate(500,817)"/>
<path d="M0 0 C2.04 1.27 4.04 2.61 6 4 C6 4.66 6 5.32 6 6 C6.53 6.25 7.06 6.51 7.61 6.77 C10.99 8.51 13.52 11.09 16.25 13.69 C17.42 14.78 18.59 15.88 19.76 16.98 C20.32 17.5 20.88 18.03 21.46 18.57 C23.88 20.82 26.38 22.98 28.89 25.14 C32.3 28.15 35.63 31.25 38.97 34.36 C42.78 37.89 42.78 37.89 45 39 C44.42 42.17 43.53 43.86 41.3 46.17 C40.76 46.75 40.21 47.33 39.65 47.92 C39.06 48.53 38.48 49.13 37.88 49.75 C36.68 51.01 35.48 52.27 34.29 53.53 C33.72 54.13 33.14 54.74 32.55 55.36 C30.19 57.86 27.94 60.45 25.69 63.06 C22.85 66.32 19.93 69.51 17.02 72.7 C15 75 15 75 13.48 77.36 C12.99 77.9 12.5 78.44 12 79 C8.69 78.62 6.97 77.36 4.62 75.09 C4.01 74.51 3.4 73.94 2.77 73.34 C2.14 72.73 1.52 72.13 0.88 71.5 C-0.38 70.3 -1.63 69.1 -2.88 67.91 C-3.43 67.37 -3.98 66.84 -4.55 66.29 C-6 65 -6 65 -8 64 C-8 63.34 -8 62.68 -8 62 C-9.32 61.3 -10.65 60.64 -12 60 C-13.61 58.69 -13.61 58.69 -15.17 57.21 C-15.75 56.66 -16.33 56.12 -16.93 55.56 C-17.53 54.98 -18.13 54.41 -18.75 53.81 C-20 52.64 -21.24 51.46 -22.49 50.29 C-23.09 49.72 -23.69 49.16 -24.31 48.58 C-27.47 45.63 -30.72 42.8 -34 40 C-32.72 36.25 -31.35 34.04 -28.44 31.38 C-25.16 28.24 -22.27 24.98 -19.44 21.44 C-16.37 17.62 -13.22 14.1 -9.7 10.7 C-7.12 8.12 -4.76 5.36 -2.38 2.6 C-1.61 1.71 -0.83 0.83 0 0 Z " fill="#3F8784" transform="translate(1364,1207)"/>
<path d="M0 0 C4.49 4.03 6.57 8.17 8.75 13.81 C8.38 17.25 8.38 17.25 6.66 18.92 C-2.73 25.09 -14.5 27.49 -25.62 26.25 C-32.66 24.77 -38.65 23.03 -42.94 17 C-44.85 13.24 -45.37 10.49 -44.62 6.25 C-41.32 0.23 -36.9 -4.42 -30.22 -6.5 C-19.23 -9.02 -8.85 -7.01 0 0 Z " fill="#FFFFFF" transform="translate(822.625,1255.75)"/>
</svg>
