<svg xmlns="http://www.w3.org/2000/svg" viewBox="0 0 1571 1669" fill-rule="evenodd">
<path fill="#3f8784" d="M509 172L471 421L469 441L470 459L473 477L478 492L485 507L495 522L507 536L519 546L534 557L549 564L782 656L797 661L1103 422L1048 355L1047 353L1045 353L1044 349L998 294L990 287L981 283L971 280L962 280L949 284L936 292L829 381L828 382L828 384L824 386L738 458L729 470L720 493L712 492L652 468L650 467L650 463L670 423L675 405L709 204L701 201L530 174L509 172Z"/>
<path fill="#3f8784" d="M1472 1274L1467 1280L1443 1333L1442 1338L1450 1348L1453 1349L1455 1353L1479 1385L1488 1402L1490 1407L1489 1410L1482 1414L1471 1418L1448 1421L1424 1422L471 1423L468 1398L460 1366L451 1344L440 1325L429 1313L412 1302L397 1299L381 1300L364 1307L349 1318L334 1338L322 1360L315 1383L311 1409L311 1438L316 1458L323 1473L332 1484L344 1493L357 1499L368 1501L381 1502L454 1502L442 1518L423 1534L400 1548L374 1558L342 1567L308 1572L267 1573L232 1571L232 1578L233 1581L277 1604L301 1615L326 1624L340 1627L354 1629L368 1628L381 1625L398 1617L412 1608L425 1596L438 1580L449 1563L458 1543L466 1517L469 1502L1407 1502L1427 1501L1443 1498L1455 1495L1466 1489L1476 1482L1486 1471L1492 1461L1498 1449L1503 1435L1506 1419L1507 1401L1506 1380L1503 1355L1497 1327L1490 1301L1481 1277L1479 1274L1472 1274ZM413 1387L428 1398L434 1404L446 1421L445 1424L346 1423L332 1420L328 1418L326 1415L326 1405L332 1394L342 1384L355 1377L369 1374L385 1375L399 1379L413 1387Z"/>
<path fill="#3f8784" d="M208 859L185 891L182 900L182 912L166 917L123 936L91 952L70 968L57 982L50 992L44 1006L41 1022L41 1037L43 1053L47 1067L53 1078L61 1087L73 1095L88 1102L105 1105L123 1104L143 1099L156 1092L166 1082L174 1071L181 1056L187 1093L192 1107L197 1117L205 1129L213 1136L224 1142L236 1147L252 1149L270 1150L501 1150L526 1149L556 1144L585 1135L611 1125L664 1100L700 1087L735 1078L774 1074L797 1022L797 1012L795 1006L792 1004L760 998L720 987L693 978L641 957L620 950L594 945L576 945L558 949L544 956L535 962L534 965L532 965L521 980L511 998L504 1019L499 1040L495 1071L265 1071L243 1068L232 1064L224 1058L218 1049L215 1040L214 860L211 859L208 859ZM616 1017L689 1041L689 1043L638 1056L591 1065L545 1071L503 1072L504 1064L507 1054L512 1045L520 1035L527 1028L536 1021L554 1013L573 1010L592 1011L616 1017ZM175 959L183 959L183 1017L181 1023L173 1028L160 1032L143 1034L92 1032L70 1028L63 1024L57 1017L57 1012L62 1006L89 992L115 980L145 969L175 959Z"/>
<path fill="#3f8784" d="M876 761L843 807L840 817L844 844L847 879L849 1044L851 1079L855 1100L862 1117L873 1132L885 1140L898 1146L913 1149L928 1150L952 1149L966 1146L979 1141L990 1134L1005 1122L1017 1135L1032 1145L1046 1150L1067 1150L1084 1146L1098 1138L1110 1126L1114 1119L1115 1113L1129 1129L1139 1137L1153 1145L1169 1149L1187 1150L1195 1149L1201 1147L1213 1136L1225 1119L1239 1134L1256 1144L1279 1150L1304 1150L1325 1146L1335 1141L1343 1135L1357 1118L1371 1091L1378 1104L1385 1114L1397 1125L1410 1134L1424 1142L1438 1146L1453 1150L1468 1150L1482 1148L1494 1142L1505 1132L1515 1117L1525 1095L1530 1069L1531 1029L1528 1008L1520 985L1515 974L1508 966L1502 961L1493 955L1476 951L1464 951L1454 953L1443 958L1431 966L1419 978L1406 993L1373 1039L1363 1052L1347 1062L1327 1069L1305 1071L1270 1071L1254 1068L1240 1062L1237 1057L1234 1045L1233 1013L1226 1013L1223 1062L1220 1074L1215 1079L1196 1079L1173 1075L1151 1067L1132 1057L1130 1053L1132 1032L1132 1016L1126 1017L1121 1042L1117 1051L1111 1060L1101 1067L1086 1072L1072 1073L1041 1072L1028 1070L1020 1066L1019 1065L1019 1063L1025 1033L1026 1016L1020 1016L1015 1036L1006 1051L997 1059L984 1065L963 1070L933 1071L915 1070L899 1064L893 1059L885 1049L882 1042L881 1034L880 761L876 761ZM1495 1027L1507 1041L1515 1058L1519 1074L1516 1078L1512 1080L1504 1081L1485 1079L1453 1072L1416 1058L1403 1051L1394 1044L1394 1041L1396 1039L1413 1027L1428 1020L1443 1016L1457 1015L1471 1016L1484 1021L1495 1027Z"/>
<path fill="#ffdc4e" d="M908 40L884 41L857 47L832 57L810 70L793 85L787 93L785 93L775 106L760 131L751 154L746 180L745 208L749 234L756 259L766 279L780 300L783 301L785 305L791 312L796 315L796 317L799 320L817 333L823 336L828 334L923 261L941 251L954 247L968 246L980 247L993 250L1004 255L1013 260L1022 269L1034 284L1039 285L1050 264L1059 241L1062 225L1064 211L1064 187L1062 172L1057 152L1051 135L1043 118L1034 104L1025 94L1021 90L1018 89L1018 87L1007 76L994 67L978 57L961 50L943 44L925 41L908 40Z"/>
<path fill="#3f8784" d="M200 1302L197 1304L195 1308L174 1365L190 1380L207 1400L217 1413L222 1424L225 1433L225 1444L221 1458L214 1472L203 1487L188 1500L171 1512L152 1522L131 1529L110 1533L86 1535L58 1535L58 1542L60 1545L75 1557L97 1570L124 1582L140 1584L157 1582L174 1576L190 1566L204 1551L216 1535L226 1515L233 1493L238 1469L240 1443L240 1413L237 1388L230 1359L220 1330L207 1304L204 1302L200 1302Z"/>
<path fill="#ffdc4e" d="M1344 809L1015 868L1012 869L1010 872L1006 892L1335 834L1340 831L1341 829L1344 815L1344 809Z"/>
<path fill="#3f8784" d="M75 808L48 837L44 844L84 880L108 856L112 849L129 861L129 863L153 883L183 850L184 847L182 845L144 812L140 813L120 837L114 841L111 840L79 810L75 808Z"/>
<path fill="#ffdc4e" d="M818 1226L808 1222L800 1223L792 1227L786 1232L780 1241L776 1251L774 1263L774 1274L776 1283L780 1291L785 1297L791 1301L799 1303L807 1303L826 1295L825 1301L823 1301L807 1316L796 1321L776 1325L735 1329L735 1332L737 1334L746 1340L752 1342L752 1344L762 1348L771 1350L782 1350L792 1347L801 1343L811 1335L819 1325L826 1315L831 1304L834 1290L836 1276L836 1261L834 1249L830 1240L825 1231L818 1226ZM819 1253L827 1260L831 1270L830 1274L824 1278L812 1282L797 1282L786 1278L779 1271L778 1262L783 1255L790 1250L804 1248L812 1250L819 1253Z"/>
<path fill="#ffdc4e" d="M500 817L493 816L314 850L310 856L308 873L325 872L491 840L495 839L497 835L500 817Z"/>
<path fill="#3f8784" d="M1364 1207L1334 1240L1330 1247L1351 1266L1356 1269L1356 1271L1370 1284L1376 1286L1406 1252L1409 1246L1376 1217L1370 1213L1370 1211L1364 1207Z"/>
</svg>