<?xml version="1.0" encoding="UTF-8"?>
<!-- Generator: visioncortex VTracer 0.6.12 -->
<svg version="1.1" xmlns="http://www.w3.org/2000/svg" width="1571" height="1669">
<path d="M0 0 C10.51 0.1 20.99 2.13 31.34 3.81 C33.13 4.09 34.91 4.38 36.7 4.66 C41.46 5.43 46.22 6.19 50.98 6.96 C55.95 7.76 60.91 8.55 65.87 9.35 C76.69 11.08 87.5 12.82 98.31 14.57 C101.66 15.11 105.02 15.65 108.37 16.19 C131.65 19.94 131.65 19.94 143.04 21.78 C153.26 23.44 163.49 25.09 173.72 26.65 C174.51 26.77 175.29 26.89 176.1 27.02 C179.52 27.54 182.93 28.05 186.35 28.56 C187.45 28.72 188.55 28.89 189.69 29.06 C190.61 29.2 191.53 29.33 192.48 29.47 C195.15 30.03 197.48 30.96 200 32 C198.5 43.27 196.6 54.46 194.67 65.66 C194.09 69 193.52 72.34 192.94 75.68 C191.91 81.71 190.87 87.74 189.83 93.76 C187.89 105.06 185.95 116.35 184.01 127.65 C183.9 128.27 183.9 128.27 183.36 131.44 C180.51 148.03 177.72 164.62 174.99 181.23 C174.69 183.06 174.39 184.89 174.09 186.73 C172.84 194.28 171.61 201.84 170.39 209.41 C169.9 212.43 169.41 215.45 168.91 218.47 C168.58 220.47 168.27 222.47 167.95 224.47 C166.24 234.85 163.75 245 159.12 254.5 C158.85 255.07 158.58 255.65 158.29 256.24 C157.21 258.5 156.1 260.75 155 263 C152.84 267.41 150.69 271.83 148.54 276.25 C147.57 278.23 146.6 280.21 145.62 282.19 C145.02 283.42 144.42 284.66 143.82 285.89 C143.27 286.99 142.73 288.1 142.17 289.24 C141 292 141 292 141 295 C143.29 296.22 143.29 296.22 146.55 297.43 C147.16 297.66 147.16 297.66 150.25 298.82 C151.6 299.32 152.96 299.82 154.31 300.31 C157.14 301.37 159.96 302.44 162.79 303.5 C163.53 303.78 164.27 304.06 165.03 304.35 C170.62 306.45 176.17 308.66 181.71 310.9 C182.51 311.22 183.3 311.55 184.12 311.88 C187.25 313.15 190.38 314.42 193.51 315.7 C195.68 316.59 197.86 317.48 200.04 318.36 C200.69 318.63 201.34 318.9 202 319.17 C205.3 320.5 207.37 321 211 321 C212.27 318.6 212.27 318.6 213.38 315.26 C213.8 314.05 214.22 312.85 214.65 311.6 C214.87 310.96 215.09 310.32 215.32 309.66 C219.45 297.75 223.3 289.28 234 282 C235.8 280.53 237.59 279.06 239.38 277.56 C240.27 276.84 241.16 276.12 242.09 275.38 C245.44 272.64 248.72 269.83 252 267 C256.1 263.46 260.23 259.97 264.44 256.56 C268.75 253.07 272.95 249.46 277.12 245.81 C283.2 240.51 289.38 235.36 295.63 230.26 C301.32 225.61 306.87 220.81 312.36 215.91 C316.79 212 316.79 212 319 212 C319 211.34 319 210.68 319 210 C320.73 208.44 320.73 208.44 323.19 206.56 C327.3 203.35 331.34 200.07 335.31 196.69 C335.86 196.22 336.4 195.76 336.97 195.28 C338.64 193.86 340.32 192.43 342 191 C344.21 189.12 346.42 187.25 348.62 185.38 C348.9 185.14 348.9 185.14 350.27 183.98 C353.61 181.16 356.98 178.38 360.38 175.62 C365.5 171.46 370.48 167.14 375.45 162.8 C379.94 158.9 384.5 155.12 389.12 151.38 C392.66 148.46 396.11 145.45 399.56 142.44 C404.43 138.2 409.34 134.06 414.43 130.09 C416.42 128.47 418.33 126.82 420.23 125.09 C432.04 114.44 443.28 107.51 459.72 107.73 C474.04 108.91 484.07 116.2 493.12 126.81 C495.11 129.19 497.06 131.59 499 134 C499.81 134.98 500.61 135.95 501.44 136.96 C503.64 139.63 505.82 142.31 508 145 C512.8 150.9 517.64 156.77 522.56 162.56 C525.97 166.58 529.36 170.61 532.69 174.69 C533.33 175.48 533.97 176.26 534.64 177.07 C536 179 536 179 536 181 C536.66 181 537.32 181 538 181 C539.45 182.59 539.45 182.59 541.25 184.94 C545.04 189.79 548.9 194.57 552.81 199.31 C553.42 200.05 554.02 200.78 554.64 201.53 C558.78 206.54 562.96 211.51 567.16 216.46 C570.76 220.7 574.3 224.99 577.8 229.3 C579.32 231.17 580.85 233.03 582.38 234.88 C586.45 239.81 590.38 244.74 594 250 C588.33 255.25 582.43 260.01 576.21 264.6 C572.89 267.07 569.63 269.62 566.38 272.19 C561.02 276.42 555.64 280.62 550.25 284.81 C549.5 285.4 548.74 285.98 547.97 286.59 C546.42 287.79 544.88 288.99 543.34 290.18 C540.99 292.01 538.65 293.83 536.31 295.65 C534.77 296.85 533.23 298.05 531.69 299.25 C531.31 299.54 531.31 299.54 529.41 301.03 C525.06 304.41 520.69 307.78 516.31 311.12 C511.72 314.65 507.19 318.24 502.69 321.88 C497.54 326.03 492.31 330.05 487 334 C481.14 338.36 475.4 342.84 469.72 347.43 C464.3 351.79 458.79 356.01 453.26 360.22 C448.26 364.02 443.3 367.88 438.37 371.77 C433.68 375.47 428.97 379.15 424.25 382.81 C423.5 383.4 422.74 383.99 421.96 384.59 C418.86 387 415.77 389.4 412.67 391.81 C410.36 393.6 408.06 395.4 405.75 397.19 C405 397.77 404.25 398.35 403.48 398.95 C398.87 402.54 394.27 406.14 389.69 409.75 C381.78 415.97 373.8 422.11 365.79 428.2 C358.74 433.57 351.75 438.98 344.93 444.63 C340.51 448.2 335.99 451.63 331.47 455.06 C326.41 458.92 321.39 462.81 316.4 466.75 C310.66 471.27 304.9 475.75 299.13 480.23 C298.4 480.79 297.68 481.35 296.93 481.93 C296.25 482.46 295.56 482.99 294.85 483.53 C293.28 484.78 291.77 486.12 290.29 487.47 C288 489 288 489 285.75 488.74 C282.66 487.91 279.76 486.86 276.79 485.7 C275.56 485.22 274.33 484.75 273.06 484.26 C271.73 483.73 270.4 483.21 269.06 482.69 C267.67 482.14 266.27 481.6 264.88 481.06 C254.37 476.96 243.9 472.78 233.43 468.58 C223.27 464.5 213.08 460.48 202.89 456.48 C193.41 452.76 183.95 448.99 174.55 445.07 C169.72 443.06 164.85 441.19 159.95 439.37 C148.52 435.12 137.21 430.57 125.88 426.06 C121.14 424.18 116.4 422.3 111.66 420.42 C111.07 420.19 111.07 420.19 108.11 419.01 C99.44 415.57 90.76 412.14 82.08 408.73 C74.72 405.83 67.36 402.92 60 400 C59.33 399.73 58.66 399.47 57.97 399.19 C53.58 397.45 49.19 395.7 44.81 393.94 C43.76 393.52 42.71 393.1 41.63 392.67 C8.25 379.15 -17.02 353.33 -31.05 320.34 C-40.66 296.54 -41.68 272.13 -37.95 247.01 C-37.72 245.49 -37.5 243.98 -37.28 242.46 C-36.66 238.22 -36.04 233.99 -35.41 229.75 C-34.99 226.93 -34.57 224.1 -34.15 221.27 C-32.08 207.27 -29.99 193.28 -27.9 179.3 C-27.37 175.77 -26.84 172.24 -26.31 168.7 C-21.47 136.34 -16.58 103.98 -11.61 71.63 C-11.19 68.88 -10.77 66.13 -10.35 63.39 C-10.25 62.73 -10.15 62.07 -10.04 61.4 C-8.6 52 -7.19 42.61 -5.81 33.21 C-5.72 32.64 -5.72 32.64 -5.3 29.75 C-4.53 24.54 -3.77 19.33 -3.02 14.12 C-2.76 12.37 -2.5 10.61 -2.24 8.85 C-2.13 8.05 -2.02 7.26 -1.9 6.44 C-1.11 1.11 -1.11 1.11 0 0 Z " fill="#3F8784" transform="translate(509,172)"/>
<path d="M0 0 C2.19 0.04 2.19 0.04 4.16 0.45 C6.23 2.99 6.23 2.99 7.72 6.64 C8 7.3 8.28 7.97 8.57 8.66 C9.48 10.91 10.33 13.17 11.16 15.45 C11.45 16.24 11.75 17.02 12.05 17.83 C20.54 41.04 25.51 65.06 29.16 89.45 C29.29 90.35 29.43 91.24 29.57 92.16 C32.64 113.8 33.44 138.17 28.16 159.45 C28 160.14 27.84 160.84 27.67 161.56 C22.49 183.5 10.67 203.21 -8.6 215.58 C-27.31 226.82 -48.6 228.61 -69.94 228.57 C-71.57 228.57 -73.21 228.57 -74.84 228.58 C-79.34 228.58 -83.83 228.58 -88.32 228.57 C-93.21 228.57 -98.1 228.57 -102.99 228.57 C-111.56 228.57 -120.13 228.57 -128.69 228.57 C-141.43 228.56 -154.17 228.56 -166.91 228.56 C-188.34 228.56 -209.77 228.56 -231.2 228.55 C-252.42 228.55 -273.65 228.55 -294.87 228.54 C-296.19 228.54 -297.5 228.54 -298.86 228.54 C-304.22 228.54 -309.57 228.54 -314.93 228.54 C-329.89 228.54 -344.86 228.54 -359.83 228.54 C-360.51 228.54 -361.19 228.54 -361.89 228.54 C-395.04 228.54 -428.19 228.53 -461.33 228.52 C-472.83 228.52 -484.34 228.52 -495.84 228.52 C-496.55 228.52 -497.26 228.52 -498 228.52 C-531.17 228.51 -564.33 228.51 -597.5 228.5 C-599.65 228.5 -601.8 228.5 -603.96 228.5 C-618.23 228.5 -632.5 228.5 -646.77 228.5 C-675.16 228.5 -703.56 228.49 -731.95 228.49 C-733.3 228.49 -734.66 228.49 -736.01 228.49 C-825.95 228.48 -915.9 228.47 -1005.84 228.45 C-1005.99 229.71 -1006.15 230.98 -1006.3 232.28 C-1006.68 235.42 -1007.22 238.42 -1008.04 241.48 C-1008.28 242.37 -1008.51 243.25 -1008.76 244.16 C-1009.01 245.08 -1009.26 246 -1009.53 246.95 C-1009.79 247.92 -1010.06 248.88 -1010.34 249.88 C-1020.95 287.46 -1042.43 323.67 -1076.84 343.76 C-1098.07 355.6 -1119.88 358.21 -1143.27 351.78 C-1174.15 342.92 -1204.45 328.76 -1232.11 312.45 C-1233.7 311.53 -1235.31 310.66 -1236.93 309.79 C-1237.76 309.3 -1238.6 308.82 -1239.46 308.32 C-1240.14 307.95 -1240.81 307.58 -1241.5 307.19 C-1243.77 304.23 -1243.04 301.08 -1242.84 297.45 C-1240.38 297.59 -1237.92 297.74 -1235.46 297.89 C-1235.13 297.91 -1235.13 297.91 -1233.41 298.01 C-1229.73 298.23 -1226.08 298.53 -1222.42 298.97 C-1214.61 299.77 -1206.75 299.69 -1198.9 299.7 C-1198.48 299.7 -1198.48 299.7 -1196.36 299.7 C-1139.75 299.63 -1073.8 285.48 -1032.46 244.07 C-1029.19 240.5 -1026.4 236.83 -1023.72 232.8 C-1023.18 231.98 -1022.64 231.17 -1022.09 230.33 C-1021.67 229.71 -1021.26 229.09 -1020.84 228.45 C-1021.86 228.46 -1022.88 228.46 -1023.93 228.47 C-1033.61 228.53 -1043.29 228.58 -1052.97 228.6 C-1057.95 228.62 -1062.92 228.64 -1067.9 228.68 C-1072.71 228.71 -1077.52 228.73 -1082.33 228.73 C-1084.15 228.74 -1085.98 228.75 -1087.8 228.77 C-1108.62 228.95 -1127.35 225.55 -1143.09 210.7 C-1147.44 206.1 -1150.69 200.91 -1153.84 195.45 C-1154.04 195.12 -1154.04 195.12 -1155.02 193.43 C-1162.65 179.36 -1164.24 163.28 -1164.21 147.57 C-1164.21 146.9 -1164.21 146.22 -1164.21 145.53 C-1164.08 110.68 -1152.3 74.66 -1128.84 48.45 C-1128.23 47.74 -1127.62 47.04 -1126.99 46.31 C-1115.98 34.39 -1100.48 26.38 -1084.33 25.19 C-1068.09 24.69 -1056.15 30.19 -1043.84 40.45 C-1027.61 56.16 -1018.76 79.15 -1012.84 100.45 C-1012.62 101.22 -1012.4 102 -1012.17 102.79 C-1007.98 117.56 -1003.84 134.06 -1003.84 149.45 C-914.72 149.41 -825.61 149.36 -728.28 149.29 C-726.91 149.29 -725.54 149.29 -724.16 149.29 C-695.33 149.27 -666.49 149.24 -637.65 149.22 C-623.17 149.21 -608.68 149.2 -594.2 149.19 C-592.01 149.19 -589.83 149.19 -587.64 149.18 C-554.01 149.16 -520.38 149.13 -486.75 149.12 C-486.39 149.12 -486.39 149.12 -484.56 149.12 C-472.91 149.11 -461.27 149.11 -449.62 149.1 C-416.05 149.09 -382.48 149.07 -348.91 149.04 C-348.22 149.04 -347.53 149.04 -346.82 149.04 C-331.64 149.03 -316.47 149.02 -301.3 149 C-295.19 149 -289.08 148.99 -282.98 148.99 C-282.64 148.99 -282.64 148.99 -280.95 148.98 C-258.79 148.96 -236.63 148.96 -214.47 148.95 C-192.86 148.95 -171.25 148.93 -149.64 148.9 C-136.81 148.89 -123.97 148.88 -111.14 148.89 C-102.56 148.89 -93.97 148.88 -85.39 148.86 C-80.5 148.85 -75.62 148.85 -70.74 148.86 C-51.22 148.89 -32.15 148.67 -12.84 145.45 C-11.33 145.21 -9.82 144.98 -8.3 144.74 C-0.44 143.46 7.94 141.7 14.16 136.45 C15.49 133.08 14.5 130.7 13.16 127.45 C5.27 110.17 -6.94 95.12 -19.12 80.69 C-20.84 78.45 -20.84 78.45 -21.84 75.45 C-22.5 75.45 -23.16 75.45 -23.84 75.45 C-25.5 73.84 -25.5 73.84 -27.34 71.7 C-27.95 71 -28.56 70.31 -29.18 69.59 C-29.73 68.88 -30.28 68.18 -30.84 67.45 C-31.27 66.91 -31.71 66.37 -32.15 65.82 C-33.28 61.93 -31.2 58.9 -29.52 55.43 C-28.76 53.81 -28 52.18 -27.24 50.56 C-26.85 49.72 -26.45 48.87 -26.04 48.01 C-24.11 43.9 -22.28 39.74 -20.45 35.59 C-19.71 33.94 -18.98 32.3 -18.24 30.65 C-17.12 28.15 -16.01 25.65 -14.89 23.15 C-13.78 20.67 -12.68 18.19 -11.57 15.71 C-11.24 14.97 -10.91 14.23 -10.57 13.46 C-4.79 0.56 -4.79 0.56 0 0 Z " fill="#3F8784" transform="translate(1474.83984375,1273.55078125)"/>
<path d="M0 0 C2.29 0.41 2.29 0.41 3.29 1.41 C3.39 3.71 3.42 6 3.43 8.3 C3.43 9.03 3.43 9.76 3.44 10.51 C3.44 12.97 3.45 15.43 3.45 17.89 C3.45 19.65 3.46 21.41 3.46 23.16 C3.47 26.96 3.48 30.75 3.49 34.55 C3.5 40.55 3.52 46.56 3.54 52.57 C3.6 69.65 3.66 86.73 3.69 103.81 C3.71 113.24 3.74 122.66 3.78 132.09 C3.8 137.08 3.81 142.06 3.82 147.05 C3.82 151.75 3.84 156.45 3.86 161.15 C3.87 162.87 3.87 164.59 3.87 166.31 C3.85 178.99 4.35 189.65 13.29 199.41 C24.85 210.47 40.74 212.58 56.17 212.53 C57.14 212.54 58.12 212.54 59.13 212.54 C62.4 212.54 65.66 212.53 68.93 212.53 C71.28 212.53 73.62 212.53 75.97 212.53 C82.33 212.53 88.69 212.52 95.06 212.52 C101.04 212.51 107.01 212.51 112.99 212.51 C124.83 212.51 136.66 212.5 148.5 212.49 C160 212.48 171.49 212.47 182.99 212.47 C183.34 212.47 183.34 212.47 185.14 212.47 C188.7 212.47 192.25 212.47 195.81 212.46 C225.3 212.45 254.8 212.44 284.29 212.41 C284.4 211.55 284.5 210.68 284.61 209.79 C285.02 206.5 285.43 203.21 285.84 199.93 C286.02 198.52 286.2 197.11 286.37 195.7 C288.84 175.56 292.94 156 301.29 137.41 C301.77 136.32 302.25 135.23 302.75 134.11 C307.48 124.07 313.88 114.67 321.29 106.41 C321.95 106.41 322.61 106.41 323.29 106.41 C323.62 105.42 323.95 104.43 324.29 103.41 C341.83 88.72 361.32 84.81 383.65 86.6 C407.96 89.16 430.87 98.19 453.29 107.41 C456.84 108.87 460.38 110.32 463.93 111.76 C466.1 112.65 468.27 113.55 470.44 114.45 C487.13 121.32 504.01 127.07 521.35 132.04 C522.33 132.32 523.31 132.6 524.32 132.9 C540.5 137.55 556.74 141.86 573.51 143.78 C581.73 144.84 581.73 144.84 584.59 147.77 C584.92 148.7 585.26 149.64 585.6 150.6 C585.97 151.52 586.34 152.44 586.71 153.39 C587.98 160.02 585.65 165.51 582.94 171.41 C582.6 172.16 582.26 172.91 581.92 173.69 C580.84 176.08 579.75 178.47 578.66 180.85 C577.6 183.2 576.55 185.55 575.49 187.89 C574.79 189.44 574.09 190.99 573.38 192.53 C571.63 196.36 569.96 200.18 568.45 204.11 C568.3 204.48 568.3 204.48 567.56 206.35 C567 207.75 566.47 209.16 565.97 210.58 C565.21 212.47 565.21 212.47 563.29 215.41 C559.93 216.32 559.93 216.32 556.29 216.41 C555.35 216.49 554.41 216.56 553.44 216.63 C552.98 216.66 552.98 216.66 550.65 216.77 C502.44 219.55 460.63 235.97 418.06 257.51 C388.25 272.59 358.54 284.41 325.29 289.41 C324.19 289.58 323.1 289.75 321.97 289.92 C308.68 291.73 295.48 291.7 282.09 291.69 C279.48 291.69 276.87 291.7 274.26 291.7 C267.95 291.72 261.64 291.72 255.33 291.72 C250.2 291.71 245.06 291.72 239.93 291.72 C239.56 291.72 239.56 291.72 237.7 291.72 C236.21 291.72 234.72 291.72 233.22 291.73 C219.28 291.74 205.33 291.73 191.38 291.73 C178.65 291.72 165.92 291.73 153.18 291.75 C140.07 291.77 126.96 291.78 113.84 291.78 C106.49 291.78 99.15 291.78 91.8 291.79 C84.9 291.81 77.99 291.8 71.08 291.79 C68.56 291.79 66.03 291.79 63.51 291.8 C39.04 291.87 14.75 289.55 -3.96 271.73 C-19.42 255.26 -25.12 234.89 -27.34 212.85 C-27.58 210.56 -27.82 208.27 -28.06 205.97 C-28.11 205.47 -28.11 205.47 -28.37 202.95 C-28.71 200.41 -28.71 200.41 -29.71 197.41 C-29.98 198.14 -30.25 198.87 -30.52 199.62 C-37.23 216.82 -48.58 231.66 -65.71 239.41 C-85.31 246.99 -110.25 249.29 -129.91 240.64 C-145.56 233.32 -158.25 223.18 -164.43 206.46 C-171.94 184.7 -172.67 161.04 -163.84 139.54 C-163.15 138.15 -162.44 136.78 -161.71 135.41 C-161.29 134.62 -160.87 133.82 -160.44 133 C-156.69 126.32 -151.99 120.94 -146.71 115.41 C-146.1 114.71 -145.5 114 -144.87 113.28 C-125.9 92.29 -95.1 80.29 -69.71 69.41 C-68.79 69.02 -67.86 68.62 -66.91 68.21 C-39.62 56.42 -39.62 56.42 -31.26 54.7 C-30.42 54.28 -29.58 53.85 -28.71 53.41 C-28.48 50.83 -28.56 48.72 -28.77 46.16 C-28.96 34.24 -21.53 26.04 -14.62 16.96 C-12.89 14.65 -11.26 12.31 -9.67 9.9 C-9.45 9.57 -9.45 9.57 -8.33 7.9 C-7.52 6.69 -6.73 5.49 -5.95 4.27 C-4.1 1.61 -3.27 0.5 0 0 Z " fill="#3F8784" transform="translate(210.7109375,858.5859375)"/>
<path d="M0 0 C1.32 0 2.64 0 4 0 C4 0.28 4 0.28 4 1.68 C4.08 34.64 4.18 67.6 4.28 100.56 C4.29 104.53 4.31 108.49 4.32 112.45 C4.32 113.24 4.32 114.03 4.32 114.84 C4.36 127.59 4.4 140.35 4.43 153.1 C4.46 166.2 4.5 179.29 4.54 192.39 C4.57 200.46 4.59 208.54 4.61 216.61 C4.62 222.81 4.64 229.02 4.67 235.22 C4.68 237.76 4.68 240.29 4.68 242.83 C4.72 283.63 4.72 283.63 16.74 297.96 C28.7 308.74 45.6 310.56 61 310.38 C62.25 310.37 63.51 310.36 64.8 310.35 C87.36 309.99 111.51 307.67 128.81 291.69 C138.32 281.45 141.98 268.53 144 255 C145.98 255 147.96 255 150 255 C150.16 261.61 149.79 267.91 148.75 274.44 C148.62 275.28 148.49 276.13 148.36 277.01 C147.66 281.52 146.81 285.97 145.77 290.41 C145.57 291.28 145.37 292.14 145.16 293.03 C144.77 294.69 144.35 296.35 143.92 298 C143.38 300.25 143.38 300.25 143 304 C149.26 311.38 164.02 311.23 173 312 C177.88 312.29 182.76 312.33 187.65 312.32 C189.76 312.31 191.88 312.34 194 312.36 C208.24 312.43 222.63 309.75 233.75 300.12 C243.74 288.99 247.57 273.49 249.54 259.07 C250 256 250 256 251 255 C252.67 254.96 254.33 254.96 256 255 C256.19 262.4 256.19 269.67 255.41 277.04 C255.31 278.07 255.2 279.1 255.09 280.16 C254.87 282.2 254.62 284.24 254.36 286.28 C253.59 293.34 253.59 293.34 255.54 296.46 C277.53 310.23 313.26 320.97 339 318 C343.67 315.59 344.79 310.14 346.32 305.44 C347.39 301.59 347.8 297.78 348.12 293.81 C348.16 293.38 348.16 293.38 348.36 291.18 C349.43 278.16 349.68 265.06 350 252 C352.31 252 354.62 252 357 252 C357.01 252.46 357.01 252.46 357.04 254.76 C357.11 258.2 357.18 261.63 357.26 265.07 C357.3 266.54 357.32 268.02 357.35 269.5 C357.52 280.24 358.54 290.07 363 300 C364.92 301.19 364.92 301.19 367 302 C368.07 302.64 369.14 303.28 370.25 303.94 C384.34 310.98 403.19 310.23 418.5 310.25 C419.2 310.25 419.9 310.25 420.62 310.25 C444.56 310.23 468.22 307.38 486.52 290.54 C486.93 290.12 486.93 290.12 489 288 C489.49 287.5 489.97 287.01 490.47 286.5 C496.85 279.63 501.71 271.63 506.81 263.81 C513.51 253.55 520.35 243.58 528 234 C528.53 233.33 529.06 232.67 529.6 231.98 C544.51 213.49 563.37 193.83 588 190 C602.93 188.75 615.99 191.48 628 201 C644.08 215.62 650.07 236.33 654 257 C654.18 257.91 654.35 258.81 654.53 259.75 C655.08 263.54 655.2 267.27 655.24 271.09 C655.25 271.86 655.26 272.64 655.27 273.43 C655.62 308.36 651.48 347.25 626.21 373.94 C615.45 384.8 604.57 389.34 589.38 389.5 C559.43 389.24 531.4 375.64 510.47 354.55 C503.59 347.29 498.64 339.3 495 330 C493.42 332.37 492.29 334.42 491.15 336.99 C481.84 357.59 469.63 376.93 447.46 385.34 C429.22 391.11 407.4 391.45 389 386 C387.95 385.71 386.91 385.42 385.83 385.12 C369.85 380.28 358.2 371.86 349 358 C346.83 360.78 345.04 363.61 343.31 366.69 C337.28 376.75 329.99 384.2 318.75 388.14 C299.74 392.51 281.16 387 264.89 377.2 C256.86 372.12 250.76 365.98 244.97 358.48 C243.11 356.14 241.15 354.07 239 352 C238.9 352.72 238.79 353.44 238.68 354.18 C236.32 363.96 227.51 373.84 219.18 379.16 C203.34 388.34 186.24 391.66 168.11 388.27 C164.96 387.36 162.01 386.29 159 385 C158.12 384.64 157.25 384.28 156.34 383.9 C145.83 379.11 135.43 370.65 129 361 C125.75 362.41 123.81 364.08 121.44 366.69 C106.48 382.01 84.39 388.78 63.48 389.3 C60.86 389.32 58.24 389.32 55.62 389.31 C54.33 389.33 53.04 389.34 51.7 389.36 C31.87 389.37 12.27 384.21 -3 371 C-26 345.09 -26.93 311.73 -27.53 278.84 C-27.55 277.77 -27.57 276.7 -27.59 275.6 C-28.16 245.95 -28.33 216.3 -28.53 186.64 C-28.58 178.88 -28.63 171.13 -28.69 163.37 C-28.72 159.84 -28.74 156.3 -28.76 152.77 C-28.91 131.57 -29.3 110.35 -31.38 89.25 C-31.49 87.97 -31.6 86.69 -31.72 85.38 C-32.46 77.57 -33.68 70.06 -35.4 62.43 C-36.54 55.93 -36.55 51.93 -32.75 46.42 C-32.06 45.4 -31.37 44.39 -30.65 43.34 C-30.29 42.82 -30.29 42.82 -28.44 40.19 C-27.73 39.16 -27.03 38.13 -26.3 37.07 C-24.22 34.03 -22.11 31.01 -20 28 C-19.38 27.11 -18.76 26.22 -18.11 25.31 C-16.95 23.65 -15.79 21.99 -14.63 20.33 C-11.63 16.04 -8.69 11.71 -5.74 7.38 C-5.29 6.7 -4.83 6.03 -4.36 5.34 C-3.95 4.75 -3.54 4.15 -3.13 3.54 C-2 2 -2 2 0 0 Z " fill="#3F8784" transform="translate(876,761)"/>
<path d="M0 0 C1.88 0.03 3.76 0.04 5.64 0.05 C42.52 1.22 82.77 20.31 108.09 47.04 C108.09 47.7 108.09 48.36 108.09 49.04 C109.08 49.37 110.07 49.7 111.09 50.04 C136.93 73.07 151.25 113.65 153.94 147.08 C154.25 153.07 154.22 159.04 154.09 165.04 C154.08 166.26 154.06 167.48 154.04 168.74 C153.17 192.96 145.48 215.86 134.09 237.04 C133.61 237.97 133.14 238.89 132.65 239.85 C131.4 242.1 131.4 242.1 129.09 245.04 C126.78 245.13 126.78 245.13 124.09 244.04 C122.11 241.86 120.43 239.78 118.72 237.41 C117.74 236.12 116.77 234.84 115.79 233.56 C115.32 232.94 114.86 232.33 114.38 231.7 C102.76 216.71 84.51 208.68 66.09 206.04 C45.3 203.92 26.3 210.19 10.09 223.04 C8.52 224.24 6.94 225.45 5.36 226.65 C3.14 228.35 0.94 230.06 -1.27 231.77 C-3.87 233.78 -6.49 235.78 -9.1 237.79 C-14.38 241.85 -19.65 245.94 -24.91 250.04 C-33.53 256.75 -42.17 263.42 -50.85 270.05 C-52.27 271.13 -53.68 272.21 -55.1 273.29 C-55.8 273.82 -56.5 274.36 -57.23 274.92 C-63.55 279.75 -69.84 284.64 -76.11 289.54 C-76.82 290.1 -77.54 290.66 -78.28 291.24 C-78.91 291.73 -79.54 292.22 -80.19 292.73 C-84.57 296.05 -84.57 296.05 -87.18 295.95 C-90.79 294.74 -93.58 292.72 -96.6 290.47 C-97.2 290.03 -97.81 289.58 -98.44 289.12 C-110.51 280.23 -110.51 280.23 -113.91 277.04 C-113.91 276.38 -113.91 275.72 -113.91 275.04 C-114.19 274.9 -114.19 274.9 -115.61 274.22 C-118.63 272.66 -120.4 270.57 -122.66 268.04 C-123.46 267.15 -124.26 266.26 -125.08 265.35 C-126.91 263.04 -126.91 263.04 -126.91 261.04 C-127.57 261.04 -128.23 261.04 -128.91 261.04 C-130.13 259.67 -130.13 259.67 -131.48 257.74 C-131.73 257.39 -131.73 257.39 -133 255.6 C-133.52 254.84 -134.05 254.07 -134.6 253.29 C-135.14 252.51 -135.68 251.72 -136.24 250.92 C-161.31 214.48 -169.88 171.41 -161.91 128.04 C-161.84 127.67 -161.84 127.67 -161.5 125.79 C-158.49 109.75 -152.45 93.94 -143.91 80.04 C-143.24 78.94 -142.58 77.85 -141.89 76.72 C-138.02 70.5 -133.9 64.5 -129.47 58.66 C-129.05 58.1 -128.62 57.53 -128.18 56.95 C-127.14 55.6 -126.03 54.31 -124.91 53.04 C-124.25 53.04 -123.59 53.04 -122.91 53.04 C-122.23 51.71 -121.56 50.38 -120.91 49.04 C-96.34 20.28 -56.96 4.42 -20.22 0.29 C-13.49 -0.16 -6.74 -0.13 0 0 Z " fill="#FFDC4E" transform="translate(909.908203125,39.962890625)"/>
<path d="M0 0 C4.16 1.06 4.46 1.41 6.62 4.88 C7.68 6.88 8.7 8.9 9.69 10.94 C9.98 11.52 10.28 12.11 10.58 12.71 C28.9 49.05 39.15 87.91 39.06 128.62 C39.06 129.56 39.06 130.5 39.06 131.47 C39 155.68 36.16 178.8 28.69 201.94 C28.57 202.3 28.57 202.3 27.99 204.12 C18.43 233.43 0.58 259.94 -27 274.62 C-43.07 282.49 -62.2 285.43 -79.56 279.94 C-82.18 279.02 -84.75 278 -87.31 276.94 C-88.02 276.65 -88.73 276.37 -89.47 276.08 C-105.71 269.52 -120.67 260.93 -134.31 249.94 C-135.21 249.26 -136.12 248.58 -137.05 247.88 C-137.46 247.55 -137.46 247.55 -139.56 245.88 C-140.29 245.31 -141.02 244.74 -141.77 244.15 C-144.1 240.81 -143.41 237.97 -143.31 233.94 C-142.16 233.95 -141 233.97 -139.81 233.99 C-92.18 234.57 -49.12 229.55 -11.31 197.94 C-10.8 197.51 -10.3 197.09 -9.77 196.65 C6.61 182.84 20 164.48 23.69 142.94 C25.18 124.49 16.29 110.58 4.69 96.94 C3.78 95.85 2.87 94.75 1.97 93.66 C-3.17 87.52 -8.47 81.61 -14.12 75.94 C-14.67 75.39 -15.21 74.84 -15.77 74.28 C-18.63 71.44 -21.49 69.04 -24.81 66.75 C-25.64 65.82 -26.46 64.89 -27.31 63.94 C-27.05 61.87 -27.05 61.87 -26.23 59.47 C-25.93 58.58 -25.63 57.68 -25.32 56.76 C-25.16 56.3 -25.16 56.3 -24.31 53.94 C-24 53.04 -23.68 52.15 -23.36 51.23 C-22.32 48.35 -21.26 45.49 -20.19 42.64 C-19.8 41.6 -19.41 40.56 -19.01 39.49 C-18.2 37.31 -17.38 35.13 -16.56 32.95 C-15.31 29.62 -14.07 26.29 -12.83 22.95 C-12.03 20.83 -11.23 18.7 -10.44 16.57 C-10.07 15.58 -9.7 14.59 -9.32 13.57 C-4.7 1.33 -4.7 1.33 0 0 Z " fill="#3F8784" transform="translate(201.3125,1301.0625)"/>
<path d="M0 0 C-0.42 7.46 -1.12 15.03 -4 22 C-7.3 24.2 -9.38 24.6 -13.26 25.28 C-13.9 25.39 -14.53 25.5 -15.19 25.62 C-17.3 25.99 -19.42 26.36 -21.54 26.72 C-23.04 26.99 -24.53 27.25 -26.03 27.51 C-29.23 28.08 -32.42 28.64 -35.62 29.19 C-40.65 30.07 -45.68 30.95 -50.71 31.84 C-51.55 31.98 -52.38 32.13 -53.24 32.28 C-54.93 32.58 -56.61 32.88 -58.29 33.17 C-60.82 33.62 -63.34 34.06 -65.87 34.51 C-79.11 36.83 -92.34 39.24 -105.56 41.69 C-122.43 44.81 -139.3 47.86 -156.19 50.88 C-157.35 51.08 -158.5 51.29 -159.7 51.5 C-173.29 53.92 -186.88 56.33 -200.47 58.73 C-205.71 59.65 -210.95 60.57 -216.19 61.5 C-217.48 61.73 -218.77 61.96 -220.1 62.19 C-239.69 65.65 -259.23 69.28 -278.76 73.01 C-298.45 76.76 -318.15 80.23 -338 83 C-337.74 77.17 -336.83 71.64 -335.31 66 C-335.02 64.91 -334.73 63.81 -334.43 62.69 C-333 60 -333 60 -330.51 58.95 C-326.16 57.78 -321.81 56.96 -317.38 56.19 C-316.42 56.02 -315.47 55.85 -314.48 55.67 C-312.41 55.31 -310.34 54.94 -308.27 54.57 C-302.62 53.58 -296.97 52.57 -291.33 51.57 C-290.15 51.36 -288.97 51.15 -287.76 50.93 C-276.21 48.87 -264.67 46.72 -253.14 44.57 C-234.4 41.07 -215.65 37.68 -196.86 34.45 C-182.18 31.93 -167.52 29.28 -152.88 26.56 C-134.86 23.22 -116.81 20.04 -98.75 16.94 C-80.41 13.8 -62.1 10.49 -43.8 7.09 C-33.98 5.27 -24.16 3.47 -14.33 1.74 C-13.84 1.65 -13.84 1.65 -11.37 1.21 C-10.47 1.05 -9.56 0.89 -8.62 0.73 C-7.83 0.59 -7.03 0.45 -6.21 0.3 C-4 0 -4 0 0 0 Z " fill="#FFDC4E" transform="translate(1344,809)"/>
<path d="M0 0 C10.37 9.98 13.96 23.73 14.41 37.64 C14.87 63.37 9.42 84.38 -8.31 103.81 C-18.18 113.96 -29.33 121.98 -43.97 122.43 C-52.97 122.56 -59.77 121.48 -67.83 117.09 C-68.49 116.76 -69.15 116.43 -69.83 116.09 C-69.83 115.43 -69.83 114.77 -69.83 114.09 C-70.7 113.84 -71.57 113.59 -72.46 113.34 C-76.03 112.02 -78.64 110.38 -81.7 108.15 C-82.67 107.46 -83.64 106.77 -84.63 106.06 C-85.36 105.41 -86.08 104.76 -86.83 104.09 C-86.83 103.1 -86.83 102.11 -86.83 101.09 C-86.46 101.06 -86.46 101.06 -84.62 100.89 C-20.2 95 -20.2 95 1.17 73.09 C1.83 73.09 2.49 73.09 3.17 73.09 C3.5 71.11 3.83 69.13 4.17 67.09 C3.2 67.58 2.22 68.08 1.21 68.59 C-0.07 69.23 -1.36 69.88 -2.64 70.53 C-2.96 70.69 -2.96 70.69 -4.59 71.51 C-12.68 75.58 -20.25 76.71 -29.11 74.14 C-38.03 70.22 -42.18 64.22 -45.97 55.45 C-50.63 42.63 -47.38 25.47 -41.99 13.27 C-37.33 4.52 -31.24 -1.49 -21.83 -4.91 C-13.96 -6.91 -6.5 -4.71 0 0 Z " fill="#FFDC4E" transform="translate(821.828125,1227.91015625)"/>
<path d="M0 0 C3.85 1.57 6.13 4.03 9 7 C11.25 9.15 13.53 11.26 15.81 13.38 C16.12 13.66 16.12 13.66 17.69 15.12 C21.5 18.63 25.32 22.13 29.26 25.5 C30.5 26.56 31.71 27.66 32.89 28.79 C33.51 29.35 34.12 29.92 34.75 30.5 C35.02 30.75 35.02 30.75 36.36 32.03 C38 33 38 33 39.87 33 C43.04 31.51 45.05 29.04 47.31 26.44 C47.56 26.17 47.56 26.17 48.78 24.79 C50.2 23.2 51.6 21.6 53 20 C53.33 19.62 53.33 19.62 55.03 17.71 C57.35 15.07 59.65 12.44 61.84 9.7 C62.45 8.95 63.06 8.21 63.69 7.44 C64.23 6.76 64.77 6.07 65.32 5.37 C67 4 67 4 68.98 4.1 C71.26 5.12 72.73 6.25 74.56 7.94 C74.91 8.25 74.91 8.25 76.66 9.84 C77.43 10.55 78.2 11.27 79 12 C80.83 13.67 82.67 15.33 84.5 17 C85.44 17.86 86.38 18.71 87.34 19.59 C89.54 21.59 91.76 23.55 94 25.5 C94.62 26.04 95.23 26.59 95.87 27.15 C97.56 28.62 99.28 30.05 101.01 31.48 C102.05 32.36 103.09 33.24 104.12 34.12 C104.61 34.53 104.61 34.53 107.07 36.57 C107.71 37.37 108.34 38.17 109 39 C108.29 42.88 106.27 45.06 103.44 47.69 C100.08 50.83 100.08 50.83 99 53 C98.34 53 97.68 53 97 53 C96.31 54.32 95.65 55.66 95 57 C93.99 58.23 92.94 59.41 91.85 60.57 C91.24 61.22 90.62 61.87 89.99 62.54 C89.36 63.21 88.72 63.87 88.06 64.56 C87.43 65.23 86.8 65.91 86.14 66.6 C83.46 69.44 80.77 72.25 78 75 C71.75 70.63 66.27 65.65 60.75 60.41 C60.16 59.85 59.58 59.3 58.98 58.73 C58.45 58.23 57.93 57.73 57.39 57.21 C56 56 56 56 54 55 C54 54.34 54 53.68 54 53 C53.44 52.72 52.89 52.45 52.32 52.16 C48.4 50.2 45.51 46.98 42.34 44 C40 42 40 42 37 41 C36.73 41.59 36.46 42.18 36.19 42.79 C34.99 45.02 33.73 46.56 31.99 48.39 C31.4 49.01 30.81 49.64 30.2 50.28 C29.58 50.93 28.95 51.58 28.31 52.25 C27.04 53.59 25.76 54.94 24.49 56.29 C23.88 56.93 23.28 57.57 22.65 58.23 C20.19 60.87 17.84 63.61 15.53 66.39 C13.53 68.5 11.3 70.22 9 72 C8.62 71.66 8.62 71.66 6.73 69.91 C-1.74 62.13 -10.24 54.39 -18.91 46.84 C-22.97 43.27 -26.98 39.63 -31 36 C-29.34 31.85 -26.34 28.93 -23.31 25.75 C-22.22 24.58 -21.12 23.41 -20.03 22.24 C-19.5 21.68 -18.98 21.12 -18.43 20.54 C-16.16 18.1 -13.98 15.58 -11.8 13.05 C-7.93 8.64 -3.96 4.33 0 0 Z " fill="#3F8784" transform="translate(75,808)"/>
<path d="M0 0 C-0.24 1.65 -0.48 3.31 -0.73 4.96 C-0.99 6.91 -1.17 8.87 -1.34 10.82 C-1.97 14.89 -2.63 18.59 -5 22 C-7.8 23.18 -9.74 23.72 -12.68 24.17 C-13.47 24.31 -14.26 24.46 -15.07 24.61 C-16.8 24.93 -18.53 25.24 -20.26 25.53 C-23.04 26.01 -25.8 26.53 -28.57 27.08 C-34.79 28.3 -41.02 29.46 -47.25 30.62 C-49.58 31.06 -51.91 31.5 -54.24 31.94 C-72.71 35.4 -91.18 38.83 -109.66 42.23 C-121.4 44.39 -133.14 46.59 -144.86 48.85 C-147.31 49.32 -149.75 49.79 -152.2 50.26 C-156.84 51.15 -161.47 52.05 -166.11 52.95 C-168.22 53.36 -170.32 53.76 -172.43 54.16 C-172.9 54.26 -172.9 54.26 -175.28 54.73 C-180.95 55.81 -186.22 56.17 -192 56 C-190.45 37.45 -190.45 37.45 -186 33 C-183.02 32.28 -180.08 31.67 -177.07 31.12 C-176.15 30.94 -175.23 30.77 -174.28 30.59 C-171.23 30.01 -168.18 29.44 -165.12 28.88 C-162.98 28.47 -160.83 28.07 -158.69 27.66 C-143.14 24.74 -127.57 21.9 -112 19.09 C-98.5 16.66 -85.02 14.14 -71.54 11.58 C-68.16 10.94 -64.77 10.3 -61.39 9.67 C-51.97 7.89 -42.55 6.11 -33.14 4.31 C-29.56 3.63 -25.99 2.95 -22.42 2.28 C-20.78 1.97 -19.14 1.66 -17.51 1.34 C-15.29 0.92 -13.06 0.5 -10.84 0.08 C-9.61 -0.15 -8.37 -0.39 -7.1 -0.63 C-4.3 -0.96 -2.62 -0.95 0 0 Z " fill="#FFDC4E" transform="translate(500,817)"/>
<path d="M0 0 C2.04 1.27 4.04 2.61 6 4 C6 4.66 6 5.32 6 6 C6.53 6.25 7.06 6.51 7.61 6.77 C10.99 8.51 13.52 11.09 16.25 13.69 C17.42 14.78 18.59 15.88 19.76 16.98 C20.32 17.5 20.88 18.03 21.46 18.57 C23.88 20.82 26.38 22.98 28.89 25.14 C32.3 28.15 35.63 31.25 38.97 34.36 C42.78 37.89 42.78 37.89 45 39 C44.42 42.17 43.53 43.86 41.3 46.17 C40.76 46.75 40.21 47.33 39.65 47.92 C39.06 48.53 38.48 49.13 37.88 49.75 C36.68 51.01 35.48 52.27 34.29 53.53 C33.72 54.13 33.14 54.74 32.55 55.36 C30.19 57.86 27.94 60.45 25.69 63.06 C22.85 66.32 19.93 69.51 17.02 72.7 C15 75 15 75 13.48 77.36 C12.99 77.9 12.5 78.44 12 79 C8.69 78.62 6.97 77.36 4.62 75.09 C4.01 74.51 3.4 73.94 2.77 73.34 C2.14 72.73 1.52 72.13 0.88 71.5 C-0.38 70.3 -1.63 69.1 -2.88 67.91 C-3.43 67.37 -3.98 66.84 -4.55 66.29 C-6 65 -6 65 -8 64 C-8 63.34 -8 62.68 -8 62 C-9.32 61.3 -10.65 60.64 -12 60 C-13.61 58.69 -13.61 58.69 -15.17 57.21 C-15.75 56.66 -16.33 56.12 -16.93 55.56 C-17.53 54.98 -18.13 54.41 -18.75 53.81 C-20 52.64 -21.24 51.46 -22.49 50.29 C-23.09 49.72 -23.69 49.16 -24.31 48.58 C-27.47 45.63 -30.72 42.8 -34 40 C-32.72 36.25 -31.35 34.04 -28.44 31.38 C-25.16 28.24 -22.27 24.98 -19.44 21.44 C-16.37 17.62 -13.22 14.1 -9.7 10.7 C-7.12 8.12 -4.76 5.36 -2.38 2.6 C-1.61 1.71 -0.83 0.83 0 0 Z " fill="#3F8784" transform="translate(1364,1207)"/>
</svg>
