<svg xmlns="http://www.w3.org/2000/svg" viewBox="0 0 1571 1003" fill-rule="evenodd">
<path fill="#3f8784" d="M1472 608L1467 614L1443 667L1442 672L1450 682L1453 683L1455 687L1479 719L1488 736L1490 741L1489 744L1482 748L1471 752L1448 755L1424 756L471 757L468 732L460 700L451 678L440 659L429 647L412 636L397 633L381 634L364 641L349 652L334 672L322 694L315 717L311 743L311 772L316 792L323 807L332 818L344 827L357 833L368 835L381 836L454 836L442 852L423 868L400 882L374 892L342 901L308 906L267 907L232 905L232 912L233 915L277 938L301 949L326 958L340 961L354 963L368 962L381 959L398 951L412 942L425 930L438 914L449 897L458 877L466 851L469 836L1407 836L1427 835L1443 832L1455 829L1466 823L1476 816L1486 805L1492 795L1498 783L1503 769L1506 753L1507 735L1506 714L1503 689L1497 661L1490 635L1481 611L1479 608L1472 608ZM413 721L428 732L434 738L446 755L445 758L346 757L332 754L328 752L326 749L326 739L332 728L342 718L355 711L369 708L385 709L399 713L413 721Z"/>
<path fill="#3f8784" d="M208 193L185 225L182 234L182 246L166 251L123 270L91 286L70 302L57 316L50 326L44 340L41 356L41 371L43 387L47 401L53 412L61 421L73 429L88 436L105 439L123 438L143 433L156 426L166 416L174 405L181 390L187 427L192 441L197 451L205 463L213 470L224 476L236 481L252 483L270 484L501 484L526 483L556 478L585 469L611 459L664 434L700 421L735 412L774 408L797 356L797 346L795 340L792 338L760 332L720 321L693 312L641 291L620 284L594 279L576 279L558 283L544 290L535 296L534 299L532 299L521 314L511 332L504 353L499 374L495 405L265 405L243 402L232 398L224 392L218 383L215 374L214 194L211 193L208 193ZM616 351L689 375L689 377L638 390L591 399L545 405L503 406L504 398L507 388L512 379L520 369L527 362L536 355L554 347L573 344L592 345L616 351ZM175 293L183 293L183 351L181 357L173 362L160 366L143 368L92 366L70 362L63 358L57 351L57 346L62 340L89 326L115 314L145 303L175 293Z"/>
<path fill="#3f8784" d="M876 95L843 141L840 151L844 178L847 213L849 378L851 413L855 434L862 451L873 466L885 474L898 480L913 483L928 484L952 483L966 480L979 475L990 468L1005 456L1017 469L1032 479L1046 484L1067 484L1084 480L1098 472L1110 460L1114 453L1115 447L1129 463L1139 471L1153 479L1169 483L1187 484L1195 483L1201 481L1213 470L1225 453L1239 468L1256 478L1279 484L1304 484L1325 480L1335 475L1343 469L1357 452L1371 425L1378 438L1385 448L1397 459L1410 468L1424 476L1438 480L1453 484L1468 484L1482 482L1494 476L1505 466L1515 451L1525 429L1530 403L1531 363L1528 342L1520 319L1515 308L1508 300L1502 295L1493 289L1476 285L1464 285L1454 287L1443 292L1431 300L1419 312L1406 327L1373 373L1363 386L1347 396L1327 403L1305 405L1270 405L1254 402L1240 396L1237 391L1234 379L1233 347L1226 347L1223 396L1220 408L1215 413L1196 413L1173 409L1151 401L1132 391L1130 387L1132 366L1132 350L1126 351L1121 376L1117 385L1111 394L1101 401L1086 406L1072 407L1041 406L1028 404L1020 400L1019 399L1019 397L1025 367L1026 350L1020 350L1015 370L1006 385L997 393L984 399L963 404L933 405L915 404L899 398L893 393L885 383L882 376L881 368L880 95L876 95ZM1495 361L1507 375L1515 392L1519 408L1516 412L1512 414L1504 415L1485 413L1453 406L1416 392L1403 385L1394 378L1394 375L1396 373L1413 361L1428 354L1443 350L1457 349L1471 350L1484 355L1495 361Z"/>
<path fill="#3f8784" d="M200 636L197 638L195 642L174 699L190 714L207 734L217 747L222 758L225 767L225 778L221 792L214 806L203 821L188 834L171 846L152 856L131 863L110 867L86 869L58 869L58 876L60 879L75 891L97 904L124 916L140 918L157 916L174 910L190 900L204 885L216 869L226 849L233 827L238 803L240 777L240 747L237 722L230 693L220 664L207 638L204 636L200 636Z"/>
<path fill="#ffdc4e" d="M1344 143L1015 202L1012 203L1010 206L1006 226L1335 168L1340 165L1341 163L1344 149L1344 143Z"/>
<path fill="#3f8784" d="M75 142L48 171L44 178L84 214L108 190L112 183L129 195L129 197L153 217L183 184L184 181L182 179L144 146L140 147L120 171L114 175L111 174L79 144L75 142Z"/>
<path fill="#ffdc4e" d="M818 560L808 556L800 557L792 561L786 566L780 575L776 585L774 597L774 608L776 617L780 625L785 631L791 635L799 637L807 637L826 629L825 635L823 635L807 650L796 655L776 659L735 663L735 666L737 668L746 674L752 676L752 678L762 682L771 684L782 684L792 681L801 677L811 669L819 659L826 649L831 638L834 624L836 610L836 595L834 583L830 574L825 565L818 560ZM819 587L827 594L831 604L830 608L824 612L812 616L797 616L786 612L779 605L778 596L783 589L790 584L804 582L812 584L819 587Z"/>
<path fill="#ffdc4e" d="M500 151L493 150L314 184L310 190L308 207L325 206L491 174L495 173L497 169L500 151Z"/>
<path fill="#3f8784" d="M1364 541L1334 574L1330 581L1351 600L1356 603L1356 605L1370 618L1376 620L1406 586L1409 580L1376 551L1370 547L1370 545L1364 541Z"/>
</svg>