<?xml version="1.0" encoding="UTF-8"?>
<!-- Generator: visioncortex VTracer 0.6.12 -->
<svg version="1.1" xmlns="http://www.w3.org/2000/svg" viewBox="0 0 1571 1003" width="1571" height="1003">
<path d="M0 0 C518.43 0 1036.86 0 1571 0 C1571 330.99 1571 661.98 1571 1003 C1052.57 1003 534.14 1003 0 1003 C0 672.01 0 341.02 0 0 Z M73.53 143.43 C72.91 144.09 72.29 144.76 71.65 145.44 C70.96 146.17 70.27 146.9 69.57 147.65 C69.2 148.04 69.2 148.04 67.38 150 C66.68 150.74 65.98 151.49 65.25 152.25 C61.27 156.51 57.37 160.83 53.55 165.24 C50.91 168.23 48.1 171.07 45.31 173.92 C44 176 44 176 44.43 177.92 C46.58 180.77 49.1 183.12 51.75 185.5 C52.32 186.02 52.89 186.54 53.48 187.07 C58.29 191.43 63.22 195.64 68.17 199.83 C71.8 202.92 75.25 206.08 78.47 209.6 C80.46 211.42 82.66 212.67 85 214 C90.25 208.84 95.42 203.68 100.2 198.08 C103.11 194.71 106.15 191.47 109.18 188.2 C111 186 111 186 112 183 C116.93 185.74 120.7 189.29 124.79 193.14 C127 195 127 195 129 195 C129 195.66 129 196.32 129 197 C130.4 198.41 130.4 198.41 132.38 200.06 C135.69 202.87 138.92 205.75 142.12 208.69 C145.6 211.83 149 214.58 153 217 C154.15 215.85 155.3 214.7 156.45 213.55 C157.51 212.49 158.57 211.44 159.64 210.39 C168.36 201.81 168.36 201.81 172 197 C172 196.34 172 195.68 172 195 C172.66 195 173.32 195 174 195 C175.62 193.39 175.62 193.39 177.44 191.25 C177.74 190.9 177.74 190.9 179.25 189.14 C179.82 188.43 180.4 187.73 181 187 C181.61 186.33 182.22 185.67 182.85 184.98 C183.04 184.66 183.04 184.66 184 183 C182.84 179.93 181.2 177.99 178.8 175.79 C178.18 175.21 177.55 174.63 176.9 174.03 C176.23 173.42 175.56 172.81 174.88 172.19 C174.19 171.56 173.51 170.93 172.81 170.28 C168.89 166.69 164.94 163.12 160.9 159.65 C157.65 156.83 154.48 153.92 151.3 151.02 C150.92 150.68 150.92 150.68 149 149 C148.32 148.4 147.65 147.79 146.95 147.17 C145 146 145 146 143.05 146.26 C139.61 147.5 137.55 150.38 135.19 153.06 C134.66 153.65 134.12 154.24 133.58 154.85 C132.04 156.56 130.52 158.28 129 160 C128.3 160.79 127.59 161.58 126.87 162.39 C124.65 164.91 122.45 167.42 120.39 170.07 C119.87 170.73 119.35 171.39 118.81 172.06 C118.37 172.65 117.92 173.24 117.46 173.85 C116 175 116 175 114.18 175 C111.02 173.55 108.73 171.26 106.25 168.88 C105.18 167.86 104.1 166.85 103.02 165.84 C102.5 165.35 101.98 164.86 101.45 164.36 C99.63 162.65 97.76 161.01 95.88 159.38 C92.84 156.75 89.85 154.07 86.88 151.38 C75.71 141.31 75.71 141.31 73.53 143.43 Z M1335.84 143.66 C1335.03 143.8 1334.22 143.94 1333.38 144.09 C1332.5 144.25 1331.62 144.41 1330.71 144.57 C1329.79 144.74 1328.86 144.91 1327.9 145.08 C1324.91 145.61 1321.92 146.15 1318.94 146.69 C1317.02 147.03 1315.1 147.37 1313.17 147.72 C1303.94 149.37 1294.72 151.05 1285.5 152.77 C1269.53 155.75 1253.54 158.57 1237.54 161.36 C1229.38 162.79 1221.21 164.22 1213.05 165.65 C1212.23 165.8 1211.42 165.94 1210.58 166.09 C1187.44 170.15 1164.32 174.28 1141.2 178.43 C1138.02 179 1134.84 179.57 1131.65 180.14 C1108.53 184.29 1085.4 188.46 1062.29 192.66 C1059.93 193.09 1057.58 193.51 1055.23 193.94 C1054.11 194.14 1053 194.34 1051.86 194.55 C1050.77 194.75 1049.68 194.95 1048.55 195.15 C1046.43 195.54 1044.3 195.93 1042.17 196.33 C1037.07 197.27 1031.97 198.17 1026.84 198.97 C1025.87 199.13 1024.89 199.29 1023.89 199.46 C1022.07 199.75 1020.25 200.03 1018.42 200.29 C1016.13 200.68 1014.13 201.07 1012 202 C1009.45 205.74 1008.39 209.62 1007.31 214 C1007.06 214.99 1006.81 215.98 1006.55 217 C1005.99 220.07 1005.96 222.89 1006 226 C1016.61 224.58 1027.13 222.78 1037.66 220.86 C1039.37 220.55 1041.07 220.25 1042.78 219.94 C1046.37 219.29 1049.95 218.64 1053.54 217.99 C1061.56 216.53 1069.59 215.09 1077.62 213.65 C1082.15 212.84 1086.69 212.02 1091.23 211.2 C1093.08 210.87 1094.93 210.54 1096.78 210.21 C1099.64 209.69 1102.5 209.18 1105.35 208.66 C1129.73 204.28 1154.11 199.9 1178.5 195.56 C1190.78 193.38 1203.06 191.18 1215.33 188.92 C1216.26 188.75 1217.2 188.58 1218.16 188.4 C1222.92 187.52 1227.68 186.64 1232.43 185.76 C1245.51 183.33 1258.6 181.02 1271.71 178.74 C1277.5 177.74 1283.29 176.72 1289.08 175.71 C1294.87 174.7 1300.66 173.7 1306.46 172.71 C1310.1 172.09 1313.73 171.45 1317.37 170.81 C1319.08 170.51 1320.8 170.21 1322.51 169.93 C1324.88 169.53 1327.25 169.11 1329.61 168.69 C1329.96 168.63 1329.96 168.63 1331.72 168.35 C1335.99 167.56 1338.35 166.47 1341 163 C1342.05 159.76 1342.05 159.76 1342.75 156.12 C1342.99 154.93 1343.23 153.74 1343.48 152.51 C1343.96 149.27 1344.1 146.26 1344 143 C1341.03 143 1338.71 143.14 1335.84 143.66 Z M492.03 150.68 C491.23 150.83 490.42 150.99 489.59 151.14 C488.71 151.31 487.84 151.48 486.93 151.65 C486 151.83 485.07 152 484.12 152.18 C482.1 152.57 480.08 152.95 478.06 153.33 C472.62 154.37 467.17 155.39 461.73 156.42 C460.6 156.63 459.47 156.84 458.3 157.06 C446.29 159.33 434.27 161.54 422.25 163.75 C421.22 163.94 420.18 164.13 419.12 164.33 C407.25 166.5 395.38 168.65 383.5 170.75 C374.23 172.39 364.99 174.16 355.76 176.05 C349.65 177.29 343.53 178.46 337.39 179.58 C336.66 179.71 335.93 179.85 335.17 179.98 C329.26 181.06 329.26 181.06 326.4 181.57 C324.37 181.93 322.34 182.3 320.32 182.67 C319.15 182.88 317.97 183.09 316.77 183.3 C314 184 314 184 312 186 C311.21 188.42 310.51 190.79 309.88 193.25 C309.69 193.91 309.51 194.56 309.32 195.24 C308.26 199.25 307.81 202.86 308 207 C315.23 207.25 321.77 206.32 328.84 204.91 C329.98 204.69 331.13 204.47 332.3 204.24 C334.76 203.77 337.21 203.29 339.66 202.81 C343.56 202.05 347.46 201.3 351.37 200.55 C351.69 200.48 351.69 200.48 353.36 200.16 C354.69 199.91 356.02 199.65 357.35 199.39 C359.36 199.01 361.37 198.62 363.38 198.23 C374.53 196.08 385.69 194.01 396.86 191.97 C414.24 188.81 431.6 185.6 448.95 182.34 C451.23 181.91 453.52 181.49 455.8 181.06 C460.99 180.09 466.17 179.11 471.35 178.09 C475.02 177.36 478.7 176.72 482.4 176.13 C493.83 174.2 493.83 174.2 496.87 171.08 C497.96 168.68 498.39 166.68 498.69 164.06 C498.85 163.26 499.02 162.47 499.19 161.64 C499.97 157.54 500.22 154.07 499 150 C496.48 150 494.48 150.22 492.03 150.68 Z M206.29 194.63 C206.01 195.04 206.01 195.04 204.62 197.12 C203.95 198.11 203.28 199.09 202.59 200.1 C202.2 200.69 201.81 201.28 201.41 201.89 C199.7 204.45 197.96 206.99 196.22 209.52 C182.92 228.92 182.92 228.92 183.39 234.95 C183.58 238.84 183.59 242.39 182 246 C177.77 249.78 171.76 250.94 166.4 252.35 C162.98 253.28 159.75 254.49 156.44 255.75 C155.81 255.98 155.18 256.22 154.53 256.46 C138.28 262.57 122.35 269.88 107 278 C106.65 278.18 106.65 278.18 104.86 279.12 C83.5 290.34 61.69 304.11 50 326 C49.62 326.65 49.24 327.29 48.84 327.96 C38.82 345.96 38.07 371.07 43.3 390.63 C48.18 407.3 57.34 420.77 72.65 429.27 C92.3 439.73 115.67 440.96 137 435 C145.77 432.01 153.14 428.24 160 422 C160.37 421.68 160.37 421.68 162.23 420.08 C171.16 411.89 177.01 401.34 181 390 C181.97 392.92 182.31 395.36 182.61 398.42 C185.33 424.86 190.28 451.12 212 469 C227.56 479.62 244.61 484.33 263.38 484.27 C263.92 484.27 263.92 484.27 266.66 484.28 C270.24 484.29 273.83 484.29 277.41 484.29 C280 484.3 282.58 484.3 285.17 484.31 C291.44 484.33 297.72 484.33 304 484.33 C309.11 484.34 314.23 484.34 319.34 484.35 C333.9 484.36 348.46 484.37 363.01 484.37 C363.41 484.37 363.41 484.37 365.39 484.37 C366.17 484.37 366.96 484.37 367.76 484.37 C380.43 484.37 393.09 484.39 405.75 484.42 C418.81 484.45 431.87 484.46 444.93 484.46 C452.24 484.46 459.54 484.46 466.85 484.48 C473.75 484.5 480.64 484.5 487.53 484.49 C490.04 484.49 492.54 484.49 495.05 484.5 C542.18 484.72 583.82 472.38 625.76 451.6 C631.77 448.63 637.82 445.77 643.86 442.89 C648.19 440.83 652.51 438.75 656.81 436.63 C690.87 419.93 726.3 411.33 764.08 409.23 C765.04 409.16 766.01 409.08 767 409 C767.6 408.99 767.6 408.99 770.62 408.93 C774 408 774 408 776.14 404.87 C776.75 403.48 777.34 402.07 777.9 400.66 C778.23 399.91 778.55 399.15 778.89 398.37 C779.93 395.95 780.94 393.51 781.94 391.06 C782.61 389.48 783.28 387.91 783.95 386.33 C784.96 383.96 785.97 381.59 786.95 379.21 C788.66 375.11 790.42 371.05 792.32 367.04 C792.51 366.64 792.51 366.64 793.46 364.6 C794.18 363.08 794.91 361.56 795.65 360.05 C797.88 355.27 798.27 352.28 797 347 C796.83 346.16 796.66 345.31 796.49 344.44 C795.62 341.83 794.8 340.09 793 338 C788.77 336.26 784.46 335.87 779.94 335.38 C777.29 335 774.64 334.62 771.99 334.23 C771.32 334.13 770.65 334.03 769.95 333.93 C758.75 332.29 747.88 329.07 737 326 C735.83 325.68 734.66 325.35 733.45 325.02 C707.27 317.71 682.17 307.94 657.15 297.4 C628.4 285.31 590.14 270.66 559 282 C550.18 285.68 540.74 290.07 534 297 C534 297.66 534 298.32 534 299 C533.34 299 532.68 299 532 299 C530.16 301.09 528.44 303.17 526.75 305.38 C526.25 306.02 525.76 306.66 525.24 307.33 C517.48 317.51 512.55 328.1 508 340 C507.54 341.17 507.09 342.34 506.62 343.55 C503.86 351.2 502.02 358.92 500.38 366.88 C500.28 367.34 500.28 367.34 499.79 369.68 C498.28 377.39 497.34 385.15 496.42 392.96 C496.36 393.54 496.36 393.54 496.01 396.47 C495.67 399.32 495.33 402.16 495 405 C464.94 405.07 434.87 405.12 404.81 405.15 C401.25 405.16 397.7 405.16 394.14 405.16 C393.79 405.17 393.79 405.17 391.99 405.17 C380.56 405.18 369.12 405.2 357.69 405.23 C345.94 405.26 334.19 405.28 322.44 405.28 C315.85 405.29 309.26 405.3 302.66 405.32 C296.45 405.34 290.23 405.34 284.02 405.34 C281.75 405.34 279.48 405.35 277.2 405.36 C259.73 405.44 240.41 405.46 226 394 C218.17 386.13 214.76 377.47 214.73 366.33 C214.72 365.59 214.72 364.85 214.71 364.09 C214.7 361.62 214.7 359.16 214.7 356.7 C214.69 354.92 214.68 353.15 214.67 351.38 C214.65 347.57 214.64 343.76 214.63 339.96 C214.62 333.94 214.6 327.92 214.57 321.91 C214.53 312.4 214.5 302.89 214.47 293.38 C214.42 276.33 214.35 259.28 214.28 242.24 C214.26 236.25 214.24 230.26 214.22 224.28 C214.21 220.56 214.2 216.85 214.18 213.14 C214.18 211.41 214.17 209.68 214.17 207.95 C214.17 205.6 214.16 203.26 214.14 200.91 C214.14 199.59 214.14 198.27 214.13 196.91 C214 194 214 194 213 193 C209.94 192.58 208.57 192.45 206.29 194.63 Z M874.36 96.55 C873.83 97.27 873.3 98 872.75 98.75 C872.14 99.59 871.52 100.42 870.89 101.29 C868.38 104.9 865.92 108.54 863.51 112.22 C859.57 118.2 855.5 124.09 851.46 129.99 C850.22 131.8 849 133.61 847.77 135.42 C846.61 137.11 845.42 138.78 844.2 140.43 C843.93 140.81 843.93 140.81 842.54 142.74 C842.05 143.39 841.56 144.05 841.05 144.73 C838.63 149.95 840.19 155.59 841.4 160.98 C843.04 168.7 843.93 176.39 844.62 184.25 C844.75 185.48 844.87 186.71 844.99 187.98 C846.92 208.98 847.14 230.11 847.26 251.18 C847.28 254.84 847.31 258.5 847.34 262.15 C847.4 269.96 847.45 277.76 847.5 285.56 C847.7 314.99 847.9 344.42 848.47 373.84 C848.49 374.87 848.51 375.9 848.53 376.96 C849.11 408.57 849.11 408.57 851.69 420.94 C851.86 421.77 852.03 422.61 852.21 423.47 C856.37 442.64 864.55 460.87 881.14 472.25 C885.59 474.97 890.15 477.1 895 479 C895.75 479.3 896.5 479.59 897.27 479.9 C908.28 483.9 919.65 484.36 931.25 484.31 C931.59 484.31 931.59 484.31 933.32 484.31 C959.6 484.17 980.87 477.42 1000 459 C1000.53 458.4 1001.05 457.79 1001.59 457.17 C1002.06 456.79 1002.52 456.4 1003 456 C1006.34 457.11 1006.97 457.9 1009.12 460.56 C1019.3 472.46 1034.02 482.85 1050.14 484.18 C1070.07 484.7 1087.73 482.13 1102.88 467.81 C1107.99 462.4 1115 454.82 1115 447 C1118.2 450 1120.82 453.09 1123.44 456.62 C1135.23 471.46 1153.27 481.46 1172 484 C1184.73 485.19 1195.88 484.53 1206.62 477 C1214.29 470.6 1219.99 462.08 1224 453 C1224.56 453.7 1225.11 454.4 1225.69 455.12 C1226.45 456.07 1227.21 457.02 1228 458 C1228.74 458.94 1229.47 459.89 1230.23 460.86 C1232.99 464.17 1236.11 466.61 1239.62 469.06 C1240.24 469.49 1240.85 469.93 1241.49 470.37 C1257.48 481.36 1275.42 484.36 1294.5 484.31 C1295.11 484.32 1295.11 484.32 1298.22 484.36 C1317.71 484.37 1332.89 477.68 1347.06 464.5 C1356.27 454.96 1362.33 443.05 1367.62 431.01 C1369 428 1369 428 1371 425 C1371.38 425.86 1371.76 426.72 1372.14 427.61 C1383.48 451.95 1405.15 468.74 1430 478 C1434.29 479.52 1438.59 480.85 1443 482 C1443.82 482.23 1444.63 482.45 1445.48 482.68 C1460.16 486.06 1478.09 486.2 1491.07 478.08 C1514.16 461.75 1523.74 435.8 1529 409 C1529.09 408.52 1529.09 408.52 1529.57 406.11 C1531.25 396.58 1531.4 387.15 1531.38 377.5 C1531.38 377.08 1531.38 377.08 1531.38 374.96 C1531.35 361.94 1530.54 349.6 1527 337 C1526.71 335.89 1526.42 334.79 1526.12 333.64 C1521.16 316.87 1511.93 300.64 1497 291 C1483.94 284.45 1470.02 282.64 1455.94 286.94 C1442.29 291.49 1431.52 299.55 1421.41 309.6 C1420.15 310.85 1418.87 312.06 1417.58 313.27 C1410.96 319.58 1405.5 326.72 1400 334 C1399.55 334.59 1399.11 335.17 1398.65 335.77 C1392.88 343.37 1387.53 351.17 1382.38 359.19 C1368.47 380.8 1355 396.62 1329 402.45 C1303.95 407.77 1265.87 409.83 1243 397 C1242.26 396.71 1241.51 396.42 1240.75 396.12 C1236.81 393.59 1235.81 386.68 1234.64 382.32 C1233.37 375.72 1233.42 369.01 1233.31 362.31 C1233.28 360.82 1233.24 359.33 1233.21 357.84 C1233.13 354.23 1233.06 350.61 1233 347 C1230.69 347 1228.38 347 1226 347 C1225.98 347.8 1225.96 348.6 1225.94 349.42 C1224.58 401.82 1224.58 401.82 1217.26 411.24 C1212.53 414.92 1205.69 413.64 1200 413 C1179.28 409.85 1147.57 404.94 1131 391 C1129.39 386.04 1130.27 381.19 1130.94 376.12 C1131.98 367.36 1132.22 358.82 1132 350 C1130.33 349.96 1128.67 349.96 1127 350 C1124.95 352.05 1125.13 355.99 1124.69 358.81 C1122.31 372.88 1118.15 389.16 1106 398 C1092.87 405.82 1081.28 407.39 1066.12 407.31 C1065.4 407.31 1064.67 407.31 1063.92 407.31 C1055.06 407.28 1046.28 407.05 1037.5 405.75 C1036.75 405.64 1036 405.53 1035.23 405.42 C1029.91 404.49 1024.6 402.88 1020 400 C1018.78 396.34 1019.33 394.64 1020.18 390.9 C1020.31 390.29 1020.31 390.29 1021 387.22 C1021.29 385.95 1021.58 384.68 1021.88 383.38 C1026.2 364.27 1026.2 364.27 1026.06 354.44 C1026.05 353.59 1026.04 352.74 1026.04 351.87 C1026.03 351.56 1026.03 351.56 1026 350 C1024.02 350 1022.04 350 1020 350 C1019.78 351.16 1019.56 352.32 1019.34 353.52 C1016.02 370.2 1010.41 383.73 995.94 393.81 C978.39 404.11 956.84 405.23 937 405.38 C935.82 405.39 934.64 405.4 933.43 405.42 C919 405.34 903.51 402.75 892.48 392.71 C878.65 376.59 880.7 353.96 880.68 334.08 C880.67 331.47 880.66 328.86 880.65 326.25 C880.63 320.64 880.61 315.04 880.6 309.44 C880.59 301.34 880.56 293.25 880.54 285.15 C880.49 272.01 880.45 258.87 880.42 245.72 C880.39 232.97 880.36 220.21 880.32 207.45 C880.31 206.66 880.31 205.88 880.31 205.06 C880.3 201.11 880.29 197.16 880.27 193.2 C880.17 160.47 880.08 127.73 880 95 C876 95 876 95 874.36 96.55 Z M1364 541 C1359.76 545.12 1355.74 549.36 1351.88 553.83 C1349.78 556.25 1347.65 558.63 1345.5 561 C1342.14 564.72 1338.79 568.45 1335.52 572.25 C1334.19 573.78 1332.82 575.27 1331.44 576.75 C1330.96 577.49 1330.49 578.24 1330 579 C1331.27 583.29 1334.9 585.93 1338.12 588.81 C1338.71 589.34 1339.29 589.87 1339.89 590.41 C1341.06 591.46 1342.22 592.51 1343.39 593.56 C1344.78 594.8 1346.16 596.05 1347.53 597.3 C1352.61 601.87 1352.61 601.87 1356 603 C1356 603.66 1356 604.32 1356 605 C1357.66 606.48 1359.38 607.88 1361.12 609.25 C1364.46 611.89 1367.58 614.48 1370.44 617.62 C1373 620 1373 620 1374.89 619.93 C1377.79 618.65 1379.25 616.83 1381.31 614.44 C1382.1 613.53 1382.89 612.62 1383.71 611.68 C1384.46 610.8 1385.22 609.91 1386 609 C1387.17 607.67 1388.33 606.33 1389.5 605 C1390.06 604.36 1390.61 603.72 1391.19 603.06 C1393.27 600.69 1395.38 598.34 1397.5 596 C1398.25 595.16 1399 594.33 1399.78 593.46 C1401.22 591.87 1402.67 590.27 1404.13 588.69 C1404.77 587.99 1405.41 587.29 1406.06 586.56 C1406.63 585.95 1407.2 585.33 1407.79 584.69 C1409 583 1409 583 1409 580 C1407.67 578.56 1407.67 578.56 1405.75 577 C1402.13 573.97 1398.64 570.84 1395.19 567.62 C1390.42 563.21 1385.48 559.08 1380.42 555.02 C1378.29 553.24 1376.36 551.43 1374.44 549.44 C1373.63 548.63 1372.83 547.83 1372 547 C1371.34 547 1370.68 547 1370 547 C1370 546.34 1370 545.68 1370 545 C1368.04 543.61 1366.04 542.27 1364 541 Z M789 563 C778.06 573.52 774.12 588.9 773.75 603.69 C774.11 614.56 777.51 622.41 784.31 630.88 C790.96 636.13 797.19 637.72 805.64 637.46 C813.15 636.43 819.62 632.94 826 629 C825.75 631.88 825.75 631.88 825 635 C823.16 636.03 823.16 636.03 821 637 C819.9 637.85 818.82 638.73 817.75 639.62 C794.25 657.46 763.31 660.36 735 663 C735.6 666.63 735.92 666.94 739.09 669.36 C740.36 670.17 741.65 670.97 742.94 671.75 C743.26 671.96 743.26 671.96 744.9 673 C749.7 676 749.7 676 752 676 C752 676.66 752 677.32 752 678 C754.3 679.25 754.3 679.25 757.31 680.56 C758.3 681 759.28 681.43 760.3 681.88 C768.88 685.44 781.02 685.69 789.75 682.19 C791.18 681.49 792.6 680.76 794 680 C795.01 679.57 796.02 679.13 797.06 678.69 C815.17 668.28 827.96 650.32 833.76 630.44 C838.58 612.27 838.62 588.76 829.31 571.95 C824.15 563.68 819.58 559.01 810.12 556.5 C802.29 555.22 795.05 558.05 789 563 Z M1466.7 615.62 C1466.27 616.55 1465.84 617.48 1465.4 618.44 C1464.91 619.49 1464.43 620.54 1463.93 621.62 C1463.67 622.18 1463.67 622.18 1462.38 625 C1462.11 625.58 1462.11 625.58 1460.77 628.49 C1457.04 636.62 1453.44 644.8 1449.97 653.04 C1447.69 658.44 1445.28 663.73 1442.58 668.94 C1442 671 1442 671 1442.67 673.01 C1444.15 675.23 1445.74 677.24 1447.5 679.25 C1448.11 679.96 1448.72 680.66 1449.34 681.39 C1451 683 1451 683 1453 683 C1453.7 684.31 1454.36 685.65 1455 687 C1455.85 688.14 1456.74 689.25 1457.65 690.33 C1458.18 690.96 1458.7 691.58 1459.24 692.23 C1459.8 692.9 1460.36 693.56 1460.94 694.25 C1487.5 726.41 1487.5 726.41 1489.4 741.07 C1489 744 1489 744 1487.08 745.76 C1466.9 755.51 1442.62 756.32 1420.56 756.26 C1418.89 756.26 1417.22 756.27 1415.55 756.27 C1410.99 756.28 1406.44 756.28 1401.89 756.28 C1396.92 756.28 1391.96 756.29 1386.99 756.3 C1378.3 756.31 1369.61 756.31 1360.91 756.32 C1347.99 756.32 1335.06 756.33 1322.14 756.35 C1300.4 756.37 1278.65 756.39 1256.91 756.4 C1235.38 756.41 1213.86 756.42 1192.34 756.44 C1192 756.44 1192 756.44 1190.31 756.44 C1184.2 756.45 1178.08 756.46 1171.97 756.46 C1156.77 756.48 1141.58 756.49 1126.39 756.5 C1126.04 756.5 1126.04 756.5 1124.29 756.5 C1090.67 756.53 1057.04 756.56 1023.42 756.58 C1011.76 756.59 1000.09 756.59 988.43 756.6 C987.71 756.6 986.98 756.6 986.24 756.6 C952.59 756.62 918.94 756.65 885.29 756.68 C883.1 756.68 880.92 756.68 878.73 756.69 C864.25 756.7 849.76 756.71 835.28 756.72 C806.46 756.75 777.65 756.77 748.83 756.8 C747.46 756.8 746.08 756.8 744.71 756.8 C656.21 756.87 567.71 756.94 471 757 C470.87 755.77 470.73 754.54 470.6 753.28 C470.42 751.64 470.24 750.01 470.06 748.38 C469.98 747.57 469.89 746.77 469.8 745.93 C469.12 739.72 468.18 733.61 466.88 727.5 C466.66 726.51 466.45 725.51 466.23 724.49 C460.71 699.64 452.75 675.32 437 655 C436.51 654.33 436.03 653.66 435.53 652.98 C429.19 644.81 419.74 638.35 410 635 C408.8 634.59 407.61 634.17 406.38 633.75 C390.11 630.15 374.93 634.82 361 643 C357.45 645.45 354.2 648.11 351 651 C350.67 651.28 350.67 651.28 349 652.72 C325.84 674 312.3 711.62 310.84 742.39 C310.79 746.24 310.75 750.09 310.75 753.94 C310.75 754.63 310.75 755.33 310.75 756.04 C310.78 779.84 315.93 800.87 332.61 818.71 C345.16 830.75 361.35 836.19 378.51 836.11 C378.92 836.11 378.92 836.11 380.99 836.11 C383.68 836.11 386.37 836.11 389.06 836.1 C390.93 836.1 392.81 836.09 394.68 836.09 C399.59 836.09 404.51 836.08 409.42 836.07 C414.44 836.06 419.46 836.05 424.48 836.05 C434.32 836.04 444.16 836.02 454 836 C452.75 837.73 451.51 839.46 450.26 841.19 C449.56 842.15 448.87 843.11 448.15 844.11 C422.51 878.58 375.58 894.29 335 902 C334.23 902.15 333.46 902.3 332.66 902.46 C327.46 903.45 322.25 904.28 317 905 C316.27 905.1 315.54 905.21 314.8 905.32 C291.41 908.53 265.89 908.75 242.5 905.44 C238.96 905 235.56 904.93 232 905 C231.69 907.94 231.47 910.14 232 913 C234.18 915.12 235.71 916.22 238.31 917.62 C239.01 918.03 239.71 918.43 240.43 918.85 C242.93 920.28 245.46 921.64 248 923 C249.01 923.54 250.02 924.09 251.05 924.65 C266.08 932.73 281.33 940.25 297 947 C297.82 947.36 298.64 947.72 299.48 948.08 C326.69 959.87 355.64 968.63 384.54 957.74 C410.29 947.33 429.18 927.99 444 905 C444.64 904.03 445.27 903.05 445.93 902.05 C457.09 884.02 469 857.54 469 836 C469.82 836 470.65 836 471.5 836 C561.2 836.03 650.9 836.07 740.6 836.08 C741.96 836.08 743.31 836.09 744.66 836.09 C773.07 836.09 801.48 836.1 829.89 836.1 C844.16 836.1 858.44 836.11 872.71 836.11 C874.86 836.11 877.01 836.11 879.17 836.11 C912.31 836.12 945.45 836.12 978.59 836.14 C979.3 836.14 980.02 836.14 980.75 836.14 C992.23 836.14 1003.72 836.15 1015.2 836.15 C1048.29 836.16 1081.38 836.18 1114.47 836.18 C1115.15 836.18 1115.83 836.18 1116.53 836.18 C1131.47 836.18 1146.42 836.19 1161.36 836.19 C1167.38 836.19 1173.39 836.19 1179.4 836.19 C1180.72 836.19 1182.04 836.19 1183.39 836.19 C1204.57 836.19 1225.76 836.2 1246.94 836.21 C1268.23 836.23 1289.52 836.23 1310.82 836.23 C1323.47 836.23 1336.12 836.23 1348.77 836.24 C1357.23 836.25 1365.68 836.25 1374.13 836.24 C1378.95 836.24 1383.77 836.24 1388.58 836.25 C1392.97 836.26 1397.36 836.26 1401.75 836.25 C1403.32 836.25 1404.89 836.25 1406.46 836.25 C1434.53 836.35 1460.39 831.16 1481 811 C1492.7 798.98 1499.27 783.11 1503 767 C1503.08 766.67 1503.08 766.67 1503.49 765.02 C1509.19 741.35 1506.64 714.77 1503 691 C1502.83 689.89 1502.67 688.77 1502.5 687.63 C1498.62 662.31 1492.51 637.42 1482 614 C1481.51 612.85 1481.02 611.7 1480.52 610.51 C1479 608 1479 608 1477.06 607.24 C1476.38 607.26 1475.7 607.29 1475 607.31 C1474.66 607.31 1474.66 607.31 1472.94 607.3 C1469.43 608.57 1468.29 612.42 1466.7 615.62 Z M198 636 C194.73 640.21 193.19 645.48 191.38 650.44 C191.21 650.9 191.21 650.9 190.36 653.21 C189.27 656.14 188.2 659.07 187.12 662 C186.06 664.89 184.99 667.79 183.92 670.68 C183.23 672.55 182.55 674.42 181.86 676.29 C180.41 680.26 178.93 684.22 177.31 688.13 C176.83 689.29 176.36 690.44 175.87 691.62 C175.45 692.59 175.04 693.55 174.61 694.54 C174 697 174 697 174.71 699.17 C176.78 702.11 179.45 704.38 182.12 706.75 C183.31 707.83 184.5 708.9 185.68 709.98 C186.25 710.5 186.83 711.02 187.42 711.56 C193.42 717.03 198.7 722.88 203.78 729.22 C205.18 730.98 206.61 732.72 208.07 734.43 C218.88 747.32 226.42 760.81 225 778 C221.67 802.55 202.89 823.66 183.91 838.17 C177.9 842.61 171.53 846.38 165 850 C164.16 850.47 163.33 850.94 162.47 851.42 C151.09 857.44 138.86 861.8 126.38 864.81 C125.58 865.01 124.78 865.2 123.96 865.4 C108.64 868.89 93.63 869.27 78 869.12 C76.05 869.11 74.1 869.11 72.15 869.1 C67.43 869.08 62.72 869.04 58 869 C57.96 870.27 57.92 871.53 57.88 872.84 C57.86 873.55 57.84 874.26 57.82 874.99 C58.23 879.49 62.41 881.74 65.62 884.43 C90.77 903.89 119.58 919.31 152 917 C174.21 914.16 193.29 899.32 207.1 882.43 C208.85 880.01 210.45 877.55 212 875 C212.64 873.94 213.29 872.89 213.95 871.8 C225.62 852.17 232.84 831.43 237 809 C237.15 808.23 237.3 807.46 237.46 806.67 C242.95 777.57 242.15 744.9 236 716 C235.81 715.1 235.63 714.21 235.43 713.29 C230.51 690.44 222.07 653.07 205 636 C201.62 635.62 201.62 635.62 198 636 Z " fill="#FFFFFF" transform="translate(0,0)"/>
<path d="M0 0 C2.19 0.04 2.19 0.04 4.16 0.45 C6.23 2.99 6.23 2.99 7.72 6.64 C8 7.3 8.28 7.97 8.57 8.66 C9.48 10.91 10.33 13.17 11.16 15.45 C11.45 16.24 11.75 17.02 12.05 17.83 C20.54 41.04 25.51 65.06 29.16 89.45 C29.29 90.35 29.43 91.24 29.57 92.16 C32.64 113.8 33.44 138.17 28.16 159.45 C28 160.14 27.84 160.84 27.67 161.56 C22.49 183.5 10.67 203.21 -8.6 215.58 C-27.31 226.82 -48.6 228.61 -69.94 228.57 C-71.57 228.57 -73.21 228.57 -74.84 228.58 C-79.34 228.58 -83.83 228.58 -88.32 228.57 C-93.21 228.57 -98.1 228.57 -102.99 228.57 C-111.56 228.57 -120.13 228.57 -128.69 228.57 C-141.43 228.56 -154.17 228.56 -166.91 228.56 C-188.34 228.56 -209.77 228.56 -231.2 228.55 C-252.42 228.55 -273.65 228.55 -294.87 228.54 C-296.19 228.54 -297.5 228.54 -298.86 228.54 C-304.22 228.54 -309.57 228.54 -314.93 228.54 C-329.89 228.54 -344.86 228.54 -359.83 228.54 C-360.51 228.54 -361.19 228.54 -361.89 228.54 C-395.04 228.54 -428.19 228.53 -461.33 228.52 C-472.83 228.52 -484.34 228.52 -495.84 228.52 C-496.55 228.52 -497.26 228.52 -498 228.52 C-531.17 228.51 -564.33 228.51 -597.5 228.5 C-599.65 228.5 -601.8 228.5 -603.96 228.5 C-618.23 228.5 -632.5 228.5 -646.77 228.5 C-675.16 228.5 -703.56 228.49 -731.95 228.49 C-733.3 228.49 -734.66 228.49 -736.01 228.49 C-825.95 228.48 -915.9 228.47 -1005.84 228.45 C-1005.99 229.71 -1006.15 230.98 -1006.3 232.28 C-1006.68 235.42 -1007.22 238.42 -1008.04 241.48 C-1008.28 242.37 -1008.51 243.25 -1008.76 244.16 C-1009.01 245.08 -1009.26 246 -1009.53 246.95 C-1009.79 247.92 -1010.06 248.88 -1010.34 249.88 C-1020.95 287.46 -1042.43 323.67 -1076.84 343.76 C-1098.07 355.6 -1119.88 358.21 -1143.27 351.78 C-1174.15 342.92 -1204.45 328.76 -1232.11 312.45 C-1233.7 311.53 -1235.31 310.66 -1236.93 309.79 C-1237.76 309.3 -1238.6 308.82 -1239.46 308.32 C-1240.14 307.95 -1240.81 307.58 -1241.5 307.19 C-1243.77 304.23 -1243.04 301.08 -1242.84 297.45 C-1240.38 297.59 -1237.92 297.74 -1235.46 297.89 C-1235.13 297.91 -1235.13 297.91 -1233.41 298.01 C-1229.73 298.23 -1226.08 298.53 -1222.42 298.97 C-1214.61 299.77 -1206.75 299.69 -1198.9 299.7 C-1198.48 299.7 -1198.48 299.7 -1196.36 299.7 C-1139.75 299.63 -1073.8 285.48 -1032.46 244.07 C-1029.19 240.5 -1026.4 236.83 -1023.72 232.8 C-1023.18 231.98 -1022.64 231.17 -1022.09 230.33 C-1021.67 229.71 -1021.26 229.09 -1020.84 228.45 C-1021.86 228.46 -1022.88 228.46 -1023.93 228.47 C-1033.61 228.53 -1043.29 228.58 -1052.97 228.6 C-1057.95 228.62 -1062.92 228.64 -1067.9 228.68 C-1072.71 228.71 -1077.52 228.73 -1082.33 228.73 C-1084.15 228.74 -1085.98 228.75 -1087.8 228.77 C-1108.62 228.95 -1127.35 225.55 -1143.09 210.7 C-1147.44 206.1 -1150.69 200.91 -1153.84 195.45 C-1154.04 195.12 -1154.04 195.12 -1155.02 193.43 C-1162.65 179.36 -1164.24 163.28 -1164.21 147.57 C-1164.21 146.9 -1164.21 146.22 -1164.21 145.53 C-1164.08 110.68 -1152.3 74.66 -1128.84 48.45 C-1128.23 47.74 -1127.62 47.04 -1126.99 46.31 C-1115.98 34.39 -1100.48 26.38 -1084.33 25.19 C-1068.09 24.69 -1056.15 30.19 -1043.84 40.45 C-1027.61 56.16 -1018.76 79.15 -1012.84 100.45 C-1012.62 101.22 -1012.4 102 -1012.17 102.79 C-1007.98 117.56 -1003.84 134.06 -1003.84 149.45 C-914.72 149.41 -825.61 149.36 -728.28 149.29 C-726.91 149.29 -725.54 149.29 -724.16 149.29 C-695.33 149.27 -666.49 149.24 -637.65 149.22 C-623.17 149.21 -608.68 149.2 -594.2 149.19 C-592.01 149.19 -589.83 149.19 -587.64 149.18 C-554.01 149.16 -520.38 149.13 -486.75 149.12 C-486.39 149.12 -486.39 149.12 -484.56 149.12 C-472.91 149.11 -461.27 149.11 -449.62 149.1 C-416.05 149.09 -382.48 149.07 -348.91 149.04 C-348.22 149.04 -347.53 149.04 -346.82 149.04 C-331.64 149.03 -316.47 149.02 -301.3 149 C-295.19 149 -289.08 148.99 -282.98 148.99 C-282.64 148.99 -282.64 148.99 -280.95 148.98 C-258.79 148.96 -236.63 148.96 -214.47 148.95 C-192.86 148.95 -171.25 148.93 -149.64 148.9 C-136.81 148.89 -123.97 148.88 -111.14 148.89 C-102.56 148.89 -93.97 148.88 -85.39 148.86 C-80.5 148.85 -75.62 148.85 -70.74 148.86 C-51.22 148.89 -32.15 148.67 -12.84 145.45 C-11.33 145.21 -9.82 144.98 -8.3 144.74 C-0.44 143.46 7.94 141.7 14.16 136.45 C15.49 133.08 14.5 130.7 13.16 127.45 C5.27 110.17 -6.94 95.12 -19.12 80.69 C-20.84 78.45 -20.84 78.45 -21.84 75.45 C-22.5 75.45 -23.16 75.45 -23.84 75.45 C-25.5 73.84 -25.5 73.84 -27.34 71.7 C-27.95 71 -28.56 70.31 -29.18 69.59 C-29.73 68.88 -30.28 68.18 -30.84 67.45 C-31.27 66.91 -31.71 66.37 -32.15 65.82 C-33.28 61.93 -31.2 58.9 -29.52 55.43 C-28.76 53.81 -28 52.18 -27.24 50.56 C-26.85 49.72 -26.45 48.87 -26.04 48.01 C-24.11 43.9 -22.28 39.74 -20.45 35.59 C-19.71 33.94 -18.98 32.3 -18.24 30.65 C-17.12 28.15 -16.01 25.65 -14.89 23.15 C-13.78 20.67 -12.68 18.19 -11.57 15.71 C-11.24 14.97 -10.91 14.23 -10.57 13.46 C-4.79 0.56 -4.79 0.56 0 0 Z M-1141.84 118.45 C-1144.15 121.99 -1146.06 125.62 -1147.84 129.45 C-1148.17 130.11 -1148.5 130.77 -1148.84 131.45 C-1149.5 135.62 -1149.97 139.71 -1147.59 143.37 C-1140.7 149.8 -1131.33 149.75 -1122.36 149.77 C-1121.86 149.77 -1121.86 149.77 -1119.31 149.8 C-1116.02 149.83 -1112.72 149.85 -1109.43 149.86 C-1107.13 149.88 -1104.84 149.9 -1102.54 149.92 C-1096.52 149.97 -1090.5 150.01 -1084.47 150.05 C-1078.32 150.09 -1072.17 150.14 -1066.01 150.19 C-1053.96 150.29 -1041.9 150.37 -1029.84 150.45 C-1029.51 149.46 -1029.18 148.47 -1028.84 147.45 C-1030.26 145.09 -1031.69 142.96 -1033.34 140.76 C-1033.81 140.13 -1034.27 139.5 -1034.75 138.85 C-1036.1 137.04 -1037.47 135.24 -1038.84 133.45 C-1039.13 133.07 -1039.13 133.07 -1040.57 131.14 C-1053.12 115.62 -1073.69 103.89 -1093.36 100.7 C-1112.22 98.82 -1129.02 104.02 -1141.84 118.45 Z " fill="#3F8784" transform="translate(1474.83984375,607.55078125)"/>
<path d="M0 0 C2.29 0.41 2.29 0.41 3.29 1.41 C3.39 3.71 3.42 6 3.43 8.3 C3.43 9.03 3.43 9.76 3.44 10.51 C3.44 12.97 3.45 15.43 3.45 17.89 C3.45 19.65 3.46 21.41 3.46 23.16 C3.47 26.96 3.48 30.75 3.49 34.55 C3.5 40.55 3.52 46.56 3.54 52.57 C3.6 69.65 3.66 86.73 3.69 103.81 C3.71 113.24 3.74 122.66 3.78 132.09 C3.8 137.08 3.81 142.06 3.82 147.05 C3.82 151.75 3.84 156.45 3.86 161.15 C3.87 162.87 3.87 164.59 3.87 166.31 C3.85 178.99 4.35 189.65 13.29 199.41 C24.85 210.47 40.74 212.58 56.17 212.53 C57.14 212.54 58.12 212.54 59.13 212.54 C62.4 212.54 65.66 212.53 68.93 212.53 C71.28 212.53 73.62 212.53 75.97 212.53 C82.33 212.53 88.69 212.52 95.06 212.52 C101.04 212.51 107.01 212.51 112.99 212.51 C124.83 212.51 136.66 212.5 148.5 212.49 C160 212.48 171.49 212.47 182.99 212.47 C183.34 212.47 183.34 212.47 185.14 212.47 C188.7 212.47 192.25 212.47 195.81 212.46 C225.3 212.45 254.8 212.44 284.29 212.41 C284.4 211.55 284.5 210.68 284.61 209.79 C285.02 206.5 285.43 203.21 285.84 199.93 C286.02 198.52 286.2 197.11 286.37 195.7 C288.84 175.56 292.94 156 301.29 137.41 C301.77 136.32 302.25 135.23 302.75 134.11 C307.48 124.07 313.88 114.67 321.29 106.41 C321.95 106.41 322.61 106.41 323.29 106.41 C323.62 105.42 323.95 104.43 324.29 103.41 C341.83 88.72 361.32 84.81 383.65 86.6 C407.96 89.16 430.87 98.19 453.29 107.41 C456.84 108.87 460.38 110.32 463.93 111.76 C466.1 112.65 468.27 113.55 470.44 114.45 C487.13 121.32 504.01 127.07 521.35 132.04 C522.33 132.32 523.31 132.6 524.32 132.9 C540.5 137.55 556.74 141.86 573.51 143.78 C581.73 144.84 581.73 144.84 584.59 147.77 C584.92 148.7 585.26 149.64 585.6 150.6 C585.97 151.52 586.34 152.44 586.71 153.39 C587.98 160.02 585.65 165.51 582.94 171.41 C582.6 172.16 582.26 172.91 581.92 173.69 C580.84 176.08 579.75 178.47 578.66 180.85 C577.6 183.2 576.55 185.55 575.49 187.89 C574.79 189.44 574.09 190.99 573.38 192.53 C571.63 196.36 569.96 200.18 568.45 204.11 C568.3 204.48 568.3 204.48 567.56 206.35 C567 207.75 566.47 209.16 565.97 210.58 C565.21 212.47 565.21 212.47 563.29 215.41 C559.93 216.32 559.93 216.32 556.29 216.41 C555.35 216.49 554.41 216.56 553.44 216.63 C552.98 216.66 552.98 216.66 550.65 216.77 C502.44 219.55 460.63 235.97 418.06 257.51 C388.25 272.59 358.54 284.41 325.29 289.41 C324.19 289.58 323.1 289.75 321.97 289.92 C308.68 291.73 295.48 291.7 282.09 291.69 C279.48 291.69 276.87 291.7 274.26 291.7 C267.95 291.72 261.64 291.72 255.33 291.72 C250.2 291.71 245.06 291.72 239.93 291.72 C239.56 291.72 239.56 291.72 237.7 291.72 C236.21 291.72 234.72 291.72 233.22 291.73 C219.28 291.74 205.33 291.73 191.38 291.73 C178.65 291.72 165.92 291.73 153.18 291.75 C140.07 291.77 126.96 291.78 113.84 291.78 C106.49 291.78 99.15 291.78 91.8 291.79 C84.9 291.81 77.99 291.8 71.08 291.79 C68.56 291.79 66.03 291.79 63.51 291.8 C39.04 291.87 14.75 289.55 -3.96 271.73 C-19.42 255.26 -25.12 234.89 -27.34 212.85 C-27.58 210.56 -27.82 208.27 -28.06 205.97 C-28.11 205.47 -28.11 205.47 -28.37 202.95 C-28.71 200.41 -28.71 200.41 -29.71 197.41 C-29.98 198.14 -30.25 198.87 -30.52 199.62 C-37.23 216.82 -48.58 231.66 -65.71 239.41 C-85.31 246.99 -110.25 249.29 -129.91 240.64 C-145.56 233.32 -158.25 223.18 -164.43 206.46 C-171.94 184.7 -172.67 161.04 -163.84 139.54 C-163.15 138.15 -162.44 136.78 -161.71 135.41 C-161.29 134.62 -160.87 133.82 -160.44 133 C-156.69 126.32 -151.99 120.94 -146.71 115.41 C-146.1 114.71 -145.5 114 -144.87 113.28 C-125.9 92.29 -95.1 80.29 -69.71 69.41 C-68.79 69.02 -67.86 68.62 -66.91 68.21 C-39.62 56.42 -39.62 56.42 -31.26 54.7 C-30.42 54.28 -29.58 53.85 -28.71 53.41 C-28.48 50.83 -28.56 48.72 -28.77 46.16 C-28.96 34.24 -21.53 26.04 -14.62 16.96 C-12.89 14.65 -11.26 12.31 -9.67 9.9 C-9.45 9.57 -9.45 9.57 -8.33 7.9 C-7.52 6.69 -6.73 5.49 -5.95 4.27 C-4.1 1.61 -3.27 0.5 0 0 Z M-40.89 101.74 C-41.69 102 -42.49 102.25 -43.32 102.52 C-45.93 103.37 -48.54 104.23 -51.15 105.1 C-51.59 105.25 -51.59 105.25 -53.85 105.99 C-70.44 111.45 -86.64 117.59 -102.71 124.41 C-103.59 124.78 -104.48 125.15 -105.38 125.53 C-147.15 143.08 -147.15 143.08 -154.71 154.41 C-154.71 157.97 -153.85 159.26 -151.46 161.91 C-128.65 179.19 -84.56 176.76 -57.62 173.4 C-36.22 170.29 -36.22 170.29 -29.06 162.65 C-27.31 159.75 -27.35 157.83 -27.37 154.45 C-27.37 153.25 -27.37 152.05 -27.37 150.81 C-27.39 149.52 -27.4 148.23 -27.42 146.9 C-27.42 145.56 -27.43 144.22 -27.43 142.88 C-27.44 139.36 -27.47 135.84 -27.5 132.33 C-27.54 128.73 -27.55 125.14 -27.56 121.55 C-27.6 114.5 -27.65 107.46 -27.71 100.41 C-32.67 99.2 -36.15 100.16 -40.89 101.74 Z M311.29 174.41 C310.62 175.07 309.96 175.73 309.27 176.4 C300.26 185.88 292.12 200.2 292.29 213.41 C303.66 213.61 314.89 213.05 326.23 212.16 C327.1 212.1 327.97 212.03 328.86 211.96 C379.72 208.03 429.26 198.32 478.29 184.41 C478.29 183.75 478.29 183.09 478.29 182.41 C467.19 178.69 456.07 174.99 444.96 171.3 C442.3 170.42 439.65 169.53 437 168.65 C346.34 138.46 346.34 138.46 311.29 174.41 Z " fill="#3F8784" transform="translate(210.7109375,192.5859375)"/>
<path d="M0 0 C1.32 0 2.64 0 4 0 C4 0.28 4 0.28 4 1.68 C4.08 34.64 4.18 67.6 4.28 100.56 C4.29 104.53 4.31 108.49 4.32 112.45 C4.32 113.24 4.32 114.03 4.32 114.84 C4.36 127.59 4.4 140.35 4.43 153.1 C4.46 166.2 4.5 179.29 4.54 192.39 C4.57 200.46 4.59 208.54 4.61 216.61 C4.62 222.81 4.64 229.02 4.67 235.22 C4.68 237.76 4.68 240.29 4.68 242.83 C4.72 283.63 4.72 283.63 16.74 297.96 C28.7 308.74 45.6 310.56 61 310.38 C62.25 310.37 63.51 310.36 64.8 310.35 C87.36 309.99 111.51 307.67 128.81 291.69 C138.32 281.45 141.98 268.53 144 255 C145.98 255 147.96 255 150 255 C150.16 261.61 149.79 267.91 148.75 274.44 C148.62 275.28 148.49 276.13 148.36 277.01 C147.66 281.52 146.81 285.97 145.77 290.41 C145.57 291.28 145.37 292.14 145.16 293.03 C144.77 294.69 144.35 296.35 143.92 298 C143.38 300.25 143.38 300.25 143 304 C149.26 311.38 164.02 311.23 173 312 C177.88 312.29 182.76 312.33 187.65 312.32 C189.76 312.31 191.88 312.34 194 312.36 C208.24 312.43 222.63 309.75 233.75 300.12 C243.74 288.99 247.57 273.49 249.54 259.07 C250 256 250 256 251 255 C252.67 254.96 254.33 254.96 256 255 C256.19 262.4 256.19 269.67 255.41 277.04 C255.31 278.07 255.2 279.1 255.09 280.16 C254.87 282.2 254.62 284.24 254.36 286.28 C253.59 293.34 253.59 293.34 255.54 296.46 C277.53 310.23 313.26 320.97 339 318 C343.67 315.59 344.79 310.14 346.32 305.44 C347.39 301.59 347.8 297.78 348.12 293.81 C348.16 293.38 348.16 293.38 348.36 291.18 C349.43 278.16 349.68 265.06 350 252 C352.31 252 354.62 252 357 252 C357.01 252.46 357.01 252.46 357.04 254.76 C357.11 258.2 357.18 261.63 357.26 265.07 C357.3 266.54 357.32 268.02 357.35 269.5 C357.52 280.24 358.54 290.07 363 300 C364.92 301.19 364.92 301.19 367 302 C368.07 302.64 369.14 303.28 370.25 303.94 C384.34 310.98 403.19 310.23 418.5 310.25 C419.2 310.25 419.9 310.25 420.62 310.25 C444.56 310.23 468.22 307.38 486.52 290.54 C486.93 290.12 486.93 290.12 489 288 C489.49 287.5 489.97 287.01 490.47 286.5 C496.85 279.63 501.71 271.63 506.81 263.81 C513.51 253.55 520.35 243.58 528 234 C528.53 233.33 529.06 232.67 529.6 231.98 C544.51 213.49 563.37 193.83 588 190 C602.93 188.75 615.99 191.48 628 201 C644.08 215.62 650.07 236.33 654 257 C654.18 257.91 654.35 258.81 654.53 259.75 C655.08 263.54 655.2 267.27 655.24 271.09 C655.25 271.86 655.26 272.64 655.27 273.43 C655.62 308.36 651.48 347.25 626.21 373.94 C615.45 384.8 604.57 389.34 589.38 389.5 C559.43 389.24 531.4 375.64 510.47 354.55 C503.59 347.29 498.64 339.3 495 330 C493.42 332.37 492.29 334.42 491.15 336.99 C481.84 357.59 469.63 376.93 447.46 385.34 C429.22 391.11 407.4 391.45 389 386 C387.95 385.71 386.91 385.42 385.83 385.12 C369.85 380.28 358.2 371.86 349 358 C346.83 360.78 345.04 363.61 343.31 366.69 C337.28 376.75 329.99 384.2 318.75 388.14 C299.74 392.51 281.16 387 264.89 377.2 C256.86 372.12 250.76 365.98 244.97 358.48 C243.11 356.14 241.15 354.07 239 352 C238.9 352.72 238.79 353.44 238.68 354.18 C236.32 363.96 227.51 373.84 219.18 379.16 C203.34 388.34 186.24 391.66 168.11 388.27 C164.96 387.36 162.01 386.29 159 385 C158.12 384.64 157.25 384.28 156.34 383.9 C145.83 379.11 135.43 370.65 129 361 C125.75 362.41 123.81 364.08 121.44 366.69 C106.48 382.01 84.39 388.78 63.48 389.3 C60.86 389.32 58.24 389.32 55.62 389.31 C54.33 389.33 53.04 389.34 51.7 389.36 C31.87 389.37 12.27 384.21 -3 371 C-26 345.09 -26.93 311.73 -27.53 278.84 C-27.55 277.77 -27.57 276.7 -27.59 275.6 C-28.16 245.95 -28.33 216.3 -28.53 186.64 C-28.58 178.88 -28.63 171.13 -28.69 163.37 C-28.72 159.84 -28.74 156.3 -28.76 152.77 C-28.91 131.57 -29.3 110.35 -31.38 89.25 C-31.49 87.97 -31.6 86.69 -31.72 85.38 C-32.46 77.57 -33.68 70.06 -35.4 62.43 C-36.54 55.93 -36.55 51.93 -32.75 46.42 C-32.06 45.4 -31.37 44.39 -30.65 43.34 C-30.29 42.82 -30.29 42.82 -28.44 40.19 C-27.73 39.16 -27.03 38.13 -26.3 37.07 C-24.22 34.03 -22.11 31.01 -20 28 C-19.38 27.11 -18.76 26.22 -18.11 25.31 C-16.95 23.65 -15.79 21.99 -14.63 20.33 C-11.63 16.04 -8.69 11.71 -5.74 7.38 C-5.29 6.7 -4.83 6.03 -4.36 5.34 C-3.95 4.75 -3.54 4.15 -3.13 3.54 C-2 2 -2 2 0 0 Z M519.53 278.18 C518 280 518 280 517.87 281.96 C519.58 285.04 522.25 286.53 525.19 288.31 C525.82 288.7 526.45 289.1 527.09 289.5 C533.52 293.43 540.15 296.88 547 300 C547.31 300.14 547.31 300.14 548.88 300.87 C567.65 309.37 587.73 314.56 608 318 C609.12 318.19 610.24 318.38 611.4 318.58 C616.13 319.13 620.8 319.26 625.56 319.31 C626.02 319.33 626.02 319.33 628.35 319.4 C634.15 319.45 637.71 319.08 642 315 C644.33 306.36 637.61 291.3 633.25 283.69 C632.2 282.1 631.12 280.54 630 279 C629.33 278.07 628.66 277.15 627.97 276.2 C619.52 265.22 607.61 256.86 593.76 254.28 C566.16 251.47 541.15 261.46 519.53 278.18 Z " fill="#3F8784" transform="translate(876,95)"/>
<path d="M0 0 C4.16 1.06 4.46 1.41 6.62 4.88 C7.68 6.88 8.7 8.9 9.69 10.94 C9.98 11.52 10.28 12.11 10.58 12.71 C28.9 49.05 39.15 87.91 39.06 128.62 C39.06 129.56 39.06 130.5 39.06 131.47 C39 155.68 36.16 178.8 28.69 201.94 C28.57 202.3 28.57 202.3 27.99 204.12 C18.43 233.43 0.58 259.94 -27 274.62 C-43.07 282.49 -62.2 285.43 -79.56 279.94 C-82.18 279.02 -84.75 278 -87.31 276.94 C-88.02 276.65 -88.73 276.37 -89.47 276.08 C-105.71 269.52 -120.67 260.93 -134.31 249.94 C-135.21 249.26 -136.12 248.58 -137.05 247.88 C-137.46 247.55 -137.46 247.55 -139.56 245.88 C-140.29 245.31 -141.02 244.74 -141.77 244.15 C-144.1 240.81 -143.41 237.97 -143.31 233.94 C-142.16 233.95 -141 233.97 -139.81 233.99 C-92.18 234.57 -49.12 229.55 -11.31 197.94 C-10.8 197.51 -10.3 197.09 -9.77 196.65 C6.61 182.84 20 164.48 23.69 142.94 C25.18 124.49 16.29 110.58 4.69 96.94 C3.78 95.85 2.87 94.75 1.97 93.66 C-3.17 87.52 -8.47 81.61 -14.12 75.94 C-14.67 75.39 -15.21 74.84 -15.77 74.28 C-18.63 71.44 -21.49 69.04 -24.81 66.75 C-25.64 65.82 -26.46 64.89 -27.31 63.94 C-27.05 61.87 -27.05 61.87 -26.23 59.47 C-25.93 58.58 -25.63 57.68 -25.32 56.76 C-25.16 56.3 -25.16 56.3 -24.31 53.94 C-24 53.04 -23.68 52.15 -23.36 51.23 C-22.32 48.35 -21.26 45.49 -20.19 42.64 C-19.8 41.6 -19.41 40.56 -19.01 39.49 C-18.2 37.31 -17.38 35.13 -16.56 32.95 C-15.31 29.62 -14.07 26.29 -12.83 22.95 C-12.03 20.83 -11.23 18.7 -10.44 16.57 C-10.07 15.58 -9.7 14.59 -9.32 13.57 C-4.7 1.33 -4.7 1.33 0 0 Z " fill="#3F8784" transform="translate(201.3125,635.0625)"/>
<path d="M0 0 C-0.42 7.46 -1.12 15.03 -4 22 C-7.3 24.2 -9.38 24.6 -13.26 25.28 C-13.9 25.39 -14.53 25.5 -15.19 25.62 C-17.3 25.99 -19.42 26.36 -21.54 26.72 C-23.04 26.99 -24.53 27.25 -26.03 27.51 C-29.23 28.08 -32.42 28.64 -35.62 29.19 C-40.65 30.07 -45.68 30.95 -50.71 31.84 C-51.55 31.98 -52.38 32.13 -53.24 32.28 C-54.93 32.58 -56.61 32.88 -58.29 33.17 C-60.82 33.62 -63.34 34.06 -65.87 34.51 C-79.11 36.83 -92.34 39.24 -105.56 41.69 C-122.43 44.81 -139.3 47.86 -156.19 50.88 C-157.35 51.08 -158.5 51.29 -159.7 51.5 C-173.29 53.92 -186.88 56.33 -200.47 58.73 C-205.71 59.65 -210.95 60.57 -216.19 61.5 C-217.48 61.73 -218.77 61.96 -220.1 62.19 C-239.69 65.65 -259.23 69.28 -278.76 73.01 C-298.45 76.76 -318.15 80.23 -338 83 C-337.74 77.17 -336.83 71.64 -335.31 66 C-335.02 64.91 -334.73 63.81 -334.43 62.69 C-333 60 -333 60 -330.51 58.95 C-326.16 57.78 -321.81 56.96 -317.38 56.19 C-316.42 56.02 -315.47 55.85 -314.48 55.67 C-312.41 55.31 -310.34 54.94 -308.27 54.57 C-302.62 53.58 -296.97 52.57 -291.33 51.57 C-290.15 51.36 -288.97 51.15 -287.76 50.93 C-276.21 48.87 -264.67 46.72 -253.14 44.57 C-234.4 41.07 -215.65 37.68 -196.86 34.45 C-182.18 31.93 -167.52 29.28 -152.88 26.56 C-134.86 23.22 -116.81 20.04 -98.75 16.94 C-80.41 13.8 -62.1 10.49 -43.8 7.09 C-33.98 5.27 -24.16 3.47 -14.33 1.74 C-13.84 1.65 -13.84 1.65 -11.37 1.21 C-10.47 1.05 -9.56 0.89 -8.62 0.73 C-7.83 0.59 -7.03 0.45 -6.21 0.3 C-4 0 -4 0 0 0 Z " fill="#FFDC4E" transform="translate(1344,143)"/>
<path d="M0 0 C12.15 4.21 24.37 8.18 36.65 12.02 C36.65 12.68 36.65 13.34 36.65 14.02 C-23.46 31.22 -86.58 43.61 -149.35 43.02 C-148.75 25.61 -137.45 10.17 -125.3 -1.48 C-87.58 -33.5 -40.89 -14.18 0 0 Z " fill="#FFFFFF" transform="translate(652.3480377197266,362.9846954345703)"/>
<path d="M0 0 C0.12 7.72 0.2 15.44 0.26 23.16 C0.29 26.74 0.32 30.33 0.38 33.91 C0.43 37.38 0.46 40.84 0.47 44.3 C0.49 46.26 0.53 48.21 0.57 50.17 C0.57 60.11 0.57 60.11 -2.4 63.77 C-19.84 78.71 -55.29 75.11 -76.75 73.77 C-113.65 70.69 -113.65 70.69 -125.69 59.5 C-127 57 -127 57 -126.81 54.55 C-124.1 46.05 -110.53 40.91 -103 37 C-98.17 34.6 -93.29 32.32 -88.38 30.09 C-86.62 29.29 -84.88 28.47 -83.13 27.64 C-74.66 23.65 -66.06 20.14 -57.31 16.81 C-56.59 16.54 -55.87 16.26 -55.13 15.98 C-43.58 11.58 -31.93 7.49 -20.19 3.62 C-19.82 3.5 -19.82 3.5 -17.97 2.88 C-15.89 2.19 -13.81 1.52 -11.73 0.85 C-10.55 0.47 -9.37 0.08 -8.15 -0.31 C-4.91 -1.02 -3.17 -0.75 0 0 Z " fill="#FFFFFF" transform="translate(183,293)"/>
<path d="M0 0 C12.87 12.14 19.36 28.48 22.2 45.63 C21.69 47.75 21.69 47.75 19.27 50 C14.72 52.23 11.25 52.36 6.25 52.25 C5.33 52.24 4.42 52.23 3.48 52.21 C-14.62 51.71 -32.15 47.24 -49.31 41.75 C-50.17 41.48 -51.03 41.21 -51.91 40.93 C-68.65 35.54 -89.49 28.21 -102.31 15.75 C-102.41 13.73 -102.41 13.73 -101.31 11.75 C-74.99 -12.98 -29.79 -24.25 0 0 Z " fill="#FFFFFF" transform="translate(1496.3125,362.25)"/>
<path d="M0 0 C3.85 1.57 6.13 4.03 9 7 C11.25 9.15 13.53 11.26 15.81 13.38 C16.12 13.66 16.12 13.66 17.69 15.12 C21.5 18.63 25.32 22.13 29.26 25.5 C30.5 26.56 31.71 27.66 32.89 28.79 C33.51 29.35 34.12 29.92 34.75 30.5 C35.02 30.75 35.02 30.75 36.36 32.03 C38 33 38 33 39.87 33 C43.04 31.51 45.05 29.04 47.31 26.44 C47.56 26.17 47.56 26.17 48.78 24.79 C50.2 23.2 51.6 21.6 53 20 C53.33 19.62 53.33 19.62 55.03 17.71 C57.35 15.07 59.65 12.44 61.84 9.7 C62.45 8.95 63.06 8.21 63.69 7.44 C64.23 6.76 64.77 6.07 65.32 5.37 C67 4 67 4 68.98 4.1 C71.26 5.12 72.73 6.25 74.56 7.94 C74.91 8.25 74.91 8.25 76.66 9.84 C77.43 10.55 78.2 11.27 79 12 C80.83 13.67 82.67 15.33 84.5 17 C85.44 17.86 86.38 18.71 87.34 19.59 C89.54 21.59 91.76 23.55 94 25.5 C94.62 26.04 95.23 26.59 95.87 27.15 C97.56 28.62 99.28 30.05 101.01 31.48 C102.05 32.36 103.09 33.24 104.12 34.12 C104.61 34.53 104.61 34.53 107.07 36.57 C107.71 37.37 108.34 38.17 109 39 C108.29 42.88 106.27 45.06 103.44 47.69 C100.08 50.83 100.08 50.83 99 53 C98.34 53 97.68 53 97 53 C96.31 54.32 95.65 55.66 95 57 C93.99 58.23 92.94 59.41 91.85 60.57 C91.24 61.22 90.62 61.87 89.99 62.54 C89.36 63.21 88.72 63.87 88.06 64.56 C87.43 65.23 86.8 65.91 86.14 66.6 C83.46 69.44 80.77 72.25 78 75 C71.75 70.63 66.27 65.65 60.75 60.41 C60.16 59.85 59.58 59.3 58.98 58.73 C58.45 58.23 57.93 57.73 57.39 57.21 C56 56 56 56 54 55 C54 54.34 54 53.68 54 53 C53.44 52.72 52.89 52.45 52.32 52.16 C48.4 50.2 45.51 46.98 42.34 44 C40 42 40 42 37 41 C36.73 41.59 36.46 42.18 36.19 42.79 C34.99 45.02 33.73 46.56 31.99 48.39 C31.4 49.01 30.81 49.64 30.2 50.28 C29.58 50.93 28.95 51.58 28.31 52.25 C27.04 53.59 25.76 54.94 24.49 56.29 C23.88 56.93 23.28 57.57 22.65 58.23 C20.19 60.87 17.84 63.61 15.53 66.39 C13.53 68.5 11.3 70.22 9 72 C8.62 71.66 8.62 71.66 6.73 69.91 C-1.74 62.13 -10.24 54.39 -18.91 46.84 C-22.97 43.27 -26.98 39.63 -31 36 C-29.34 31.85 -26.34 28.93 -23.31 25.75 C-22.22 24.58 -21.12 23.41 -20.03 22.24 C-19.5 21.68 -18.98 21.12 -18.43 20.54 C-16.16 18.1 -13.98 15.58 -11.8 13.05 C-7.93 8.64 -3.96 4.33 0 0 Z " fill="#3F8784" transform="translate(75,142)"/>
<path d="M0 0 C10.37 9.98 13.96 23.73 14.41 37.64 C14.87 63.37 9.42 84.38 -8.31 103.81 C-18.18 113.96 -29.33 121.98 -43.97 122.43 C-52.97 122.56 -59.77 121.48 -67.83 117.09 C-68.49 116.76 -69.15 116.43 -69.83 116.09 C-69.83 115.43 -69.83 114.77 -69.83 114.09 C-70.7 113.84 -71.57 113.59 -72.46 113.34 C-76.03 112.02 -78.64 110.38 -81.7 108.15 C-82.67 107.46 -83.64 106.77 -84.63 106.06 C-85.36 105.41 -86.08 104.76 -86.83 104.09 C-86.83 103.1 -86.83 102.11 -86.83 101.09 C-86.46 101.06 -86.46 101.06 -84.62 100.89 C-20.2 95 -20.2 95 1.17 73.09 C1.83 73.09 2.49 73.09 3.17 73.09 C3.5 71.11 3.83 69.13 4.17 67.09 C3.2 67.58 2.22 68.08 1.21 68.59 C-0.07 69.23 -1.36 69.88 -2.64 70.53 C-2.96 70.69 -2.96 70.69 -4.59 71.51 C-12.68 75.58 -20.25 76.71 -29.11 74.14 C-38.03 70.22 -42.18 64.22 -45.97 55.45 C-50.63 42.63 -47.38 25.47 -41.99 13.27 C-37.33 4.52 -31.24 -1.49 -21.83 -4.91 C-13.96 -6.91 -6.5 -4.71 0 0 Z M-39.83 28.09 C-42.62 31.38 -43.71 33.26 -44.33 37.53 C-43.73 41.79 -42.77 44.95 -39.83 48.09 C-29.61 54.77 -19.02 55.32 -7.27 52.96 C-1.25 51.42 4.63 49.5 9.17 45.09 C9.75 39.79 7.37 35.26 4.17 31.09 C-2.23 24.22 -9.05 20.84 -18.41 20.1 C-27.03 20.07 -33.63 21.97 -39.83 28.09 Z " fill="#FFDC4E" transform="translate(821.828125,561.91015625)"/>
<path d="M0 0 C2.55 1.99 5.03 4.05 7.5 6.14 C8.38 6.82 9.26 7.51 10.17 8.23 C16.08 13.06 20.51 19.33 25 25.45 C25.46 26.06 25.92 26.67 26.39 27.3 C27.51 28.85 28.52 30.49 29.5 32.14 C29.17 33.13 28.84 34.12 28.5 35.14 C15.26 35.07 2.03 35 -11.21 34.9 C-17.36 34.85 -23.51 34.82 -29.66 34.79 C-35.6 34.76 -41.54 34.72 -47.48 34.67 C-49.74 34.66 -52 34.64 -54.26 34.64 C-57.44 34.63 -60.61 34.6 -63.79 34.57 C-64.72 34.57 -65.64 34.57 -66.59 34.57 C-74.36 34.46 -82.07 33.35 -88.68 29.07 C-91.38 24.7 -91.38 21.14 -90.5 16.14 C-86.97 5.26 -78.71 -3.28 -68.84 -8.69 C-46.55 -19.89 -19.67 -14.72 0 0 Z " fill="#FFFFFF" transform="translate(416.495361328125,722.86474609375)"/>
<path d="M0 0 C-0.24 1.65 -0.48 3.31 -0.73 4.96 C-0.99 6.91 -1.17 8.87 -1.34 10.82 C-1.97 14.89 -2.63 18.59 -5 22 C-7.8 23.18 -9.74 23.72 -12.68 24.17 C-13.47 24.31 -14.26 24.46 -15.07 24.61 C-16.8 24.93 -18.53 25.24 -20.26 25.53 C-23.04 26.01 -25.8 26.53 -28.57 27.08 C-34.79 28.3 -41.02 29.46 -47.25 30.62 C-49.58 31.06 -51.91 31.5 -54.24 31.94 C-72.71 35.4 -91.18 38.83 -109.66 42.23 C-121.4 44.39 -133.14 46.59 -144.86 48.85 C-147.31 49.32 -149.75 49.79 -152.2 50.26 C-156.84 51.15 -161.47 52.05 -166.11 52.95 C-168.22 53.36 -170.32 53.76 -172.43 54.16 C-172.9 54.26 -172.9 54.26 -175.28 54.73 C-180.95 55.81 -186.22 56.17 -192 56 C-190.45 37.45 -190.45 37.45 -186 33 C-183.02 32.28 -180.08 31.67 -177.07 31.12 C-176.15 30.94 -175.23 30.77 -174.28 30.59 C-171.23 30.01 -168.18 29.44 -165.12 28.88 C-162.98 28.47 -160.83 28.07 -158.69 27.66 C-143.14 24.74 -127.57 21.9 -112 19.09 C-98.5 16.66 -85.02 14.14 -71.54 11.58 C-68.16 10.94 -64.77 10.3 -61.39 9.67 C-51.97 7.89 -42.55 6.11 -33.14 4.31 C-29.56 3.63 -25.99 2.95 -22.42 2.28 C-20.78 1.97 -19.14 1.66 -17.51 1.34 C-15.29 0.92 -13.06 0.5 -10.84 0.08 C-9.61 -0.15 -8.37 -0.39 -7.1 -0.63 C-4.3 -0.96 -2.62 -0.95 0 0 Z " fill="#FFDC4E" transform="translate(500,151)"/>
<path d="M0 0 C2.04 1.27 4.04 2.61 6 4 C6 4.66 6 5.32 6 6 C6.53 6.25 7.06 6.51 7.61 6.77 C10.99 8.51 13.52 11.09 16.25 13.69 C17.42 14.78 18.59 15.88 19.76 16.98 C20.32 17.5 20.88 18.03 21.46 18.57 C23.88 20.82 26.38 22.98 28.89 25.14 C32.3 28.15 35.63 31.25 38.97 34.36 C42.78 37.89 42.78 37.89 45 39 C44.42 42.17 43.53 43.86 41.3 46.17 C40.76 46.75 40.21 47.33 39.65 47.92 C39.06 48.53 38.48 49.13 37.88 49.75 C36.68 51.01 35.48 52.27 34.29 53.53 C33.72 54.13 33.14 54.74 32.55 55.36 C30.19 57.86 27.94 60.45 25.69 63.06 C22.85 66.32 19.93 69.51 17.02 72.7 C15 75 15 75 13.48 77.36 C12.99 77.9 12.5 78.44 12 79 C8.69 78.62 6.97 77.36 4.62 75.09 C4.01 74.51 3.4 73.94 2.77 73.34 C2.14 72.73 1.52 72.13 0.88 71.5 C-0.38 70.3 -1.63 69.1 -2.88 67.91 C-3.43 67.37 -3.98 66.84 -4.55 66.29 C-6 65 -6 65 -8 64 C-8 63.34 -8 62.68 -8 62 C-9.32 61.3 -10.65 60.64 -12 60 C-13.61 58.69 -13.61 58.69 -15.17 57.21 C-15.75 56.66 -16.33 56.12 -16.93 55.56 C-17.53 54.98 -18.13 54.41 -18.75 53.81 C-20 52.64 -21.24 51.46 -22.49 50.29 C-23.09 49.72 -23.69 49.16 -24.31 48.58 C-27.47 45.63 -30.72 42.8 -34 40 C-32.72 36.25 -31.35 34.04 -28.44 31.38 C-25.16 28.24 -22.27 24.98 -19.44 21.44 C-16.37 17.62 -13.22 14.1 -9.7 10.7 C-7.12 8.12 -4.76 5.36 -2.38 2.6 C-1.61 1.71 -0.83 0.83 0 0 Z " fill="#3F8784" transform="translate(1364,541)"/>
<path d="M0 0 C4.49 4.03 6.57 8.17 8.75 13.81 C8.38 17.25 8.38 17.25 6.66 18.92 C-2.73 25.09 -14.5 27.49 -25.62 26.25 C-32.66 24.77 -38.65 23.03 -42.94 17 C-44.85 13.24 -45.37 10.49 -44.62 6.25 C-41.32 0.23 -36.9 -4.42 -30.22 -6.5 C-19.23 -9.02 -8.85 -7.01 0 0 Z " fill="#FFFFFF" transform="translate(822.625,589.75)"/>
</svg>
